<svg width="72" height="72" viewBox="0 0 72 72" fill="none" xmlns="http://www.w3.org/2000/svg">
<g id="observability">
<path id="background" d="M72 18C72 8.05888 63.9411 0 54 0H18C8.05888 0 0 8.05888 0 18V54C0 63.9411 8.05888 72 18 72H54C63.9411 72 72 63.9411 72 54V18Z" fill="black"/>
<path id="surface" opacity="0.25" d="M72 18C72 8.05888 63.9411 0 54 0H18C8.05888 0 0 8.05888 0 18V54C0 63.9411 8.05888 72 18 72H54C63.9411 72 72 63.9411 72 54V18Z" fill="url(#paint0_linear_7778_5581)"/>
<path id="Ellipse 2" d="M24 28C24 34.6274 29.3726 40 36 40C42.6274 40 48 34.6274 48 28C48 21.3726 42.6274 16 36 16C29.3726 16 24 21.3726 24 28Z" fill="url(#paint1_linear_7778_5581)"/>
<g id="symbol-stroke">
<path fill-rule="evenodd" clip-rule="evenodd" d="M25.7568 54.0121C27.0172 54.1402 28.0008 55.2052 28.001 56.4994C28.001 57.8801 26.8817 58.9994 25.501 58.9994H20.501C19.1203 58.9994 18.001 57.8801 18.001 56.4994C18.0012 55.2052 18.9847 54.1402 20.2451 54.0121L20.501 53.9994H25.501L25.7568 54.0121ZM20.501 55.4994C19.9488 55.4994 19.5012 55.9473 19.501 56.4994C19.501 57.0517 19.9487 57.4994 20.501 57.4994H25.501C26.0533 57.4994 26.501 57.0517 26.501 56.4994C26.5008 55.9473 26.0531 55.4994 25.501 55.4994H20.501Z" fill="white"/>
<path fill-rule="evenodd" clip-rule="evenodd" d="M51.7568 54.0121C53.0172 54.1402 54.0008 55.2052 54.001 56.4994C54.001 57.8801 52.8817 58.9994 51.501 58.9994H32.501C31.1203 58.9994 30.001 57.8801 30.001 56.4994C30.0012 55.2052 30.9847 54.1402 32.2451 54.0121L32.501 53.9994H51.501L51.7568 54.0121ZM32.501 55.4994C31.9488 55.4994 31.5012 55.9473 31.501 56.4994C31.501 57.0517 31.9487 57.4994 32.501 57.4994H51.501C52.0533 57.4994 52.501 57.0517 52.501 56.4994C52.5008 55.9473 52.0531 55.4994 51.501 55.4994H32.501Z" fill="white"/>
<path fill-rule="evenodd" clip-rule="evenodd" d="M51.501 46.9994C52.8816 46.9994 54.0008 48.1189 54.001 49.4994C54.001 50.7937 53.0173 51.8586 51.7568 51.9867L51.501 51.9994H20.501L20.2451 51.9867C18.9846 51.8586 18.001 50.7937 18.001 49.4994C18.0012 48.1189 19.1204 46.9994 20.501 46.9994H51.501ZM20.501 48.4994C19.9488 48.4994 19.5012 48.9473 19.501 49.4994C19.501 50.0517 19.9487 50.4994 20.501 50.4994H51.501C52.0533 50.4994 52.501 50.0517 52.501 49.4994C52.5008 48.9473 52.0531 48.4994 51.501 48.4994H20.501Z" fill="white"/>
<path fill-rule="evenodd" clip-rule="evenodd" d="M36.001 21.9994C39.3146 21.9994 42.0008 24.6859 42.001 27.9994C42.001 31.3131 39.3147 33.9994 36.001 33.9994C32.6873 33.9994 30.001 31.3131 30.001 27.9994C30.0012 24.6859 32.6874 21.9994 36.001 21.9994ZM36.001 23.4994C33.5158 23.4994 31.5012 25.5143 31.501 27.9994C31.501 30.4847 33.5157 32.4994 36.001 32.4994C38.4863 32.4994 40.501 30.4847 40.501 27.9994C40.5008 25.5143 38.4861 23.4994 36.001 23.4994Z" fill="white"/>
<path fill-rule="evenodd" clip-rule="evenodd" d="M22.3535 18.6469C29.8906 11.1099 42.1113 11.1099 49.6484 18.6469L59.002 28.0004L49.6484 37.3549L49.292 37.7025C41.8508 44.776 30.1511 44.776 22.71 37.7025L22.3535 37.3549L13 28.0004L22.3535 18.6469ZM48.5869 19.7074C41.6357 12.7566 30.3663 12.7566 23.415 19.7074L15.1211 28.0004L23.415 36.2943C30.3663 43.2452 41.6356 43.2452 48.5869 36.2943L56.8809 28.0004L48.5869 19.7074Z" fill="white"/>
</g>
</g>
<defs>
<linearGradient id="paint0_linear_7778_5581" x1="6.5" y1="3.5" x2="64" y2="67" gradientUnits="userSpaceOnUse">
<stop stop-color="#E09EF1"/>
<stop offset="1" stop-color="#B257CF"/>
</linearGradient>
<linearGradient id="paint1_linear_7778_5581" x1="48" y1="10.1861" x2="21.262" y2="20.3283" gradientUnits="userSpaceOnUse">
<stop offset="0.449943" stop-color="#E09EF1"/>
<stop offset="1" stop-color="#B257CF"/>
</linearGradient>
</defs>
</svg>
