<svg width="72" height="72" viewBox="0 0 72 72" fill="none" xmlns="http://www.w3.org/2000/svg">
<g id="confidential-server">
<path id="background" d="M72 18C72 8.05888 63.9411 0 54 0H18C8.05888 0 0 8.05888 0 18V54C0 63.9411 8.05888 72 18 72H54C63.9411 72 72 63.9411 72 54V18Z" fill="black"/>
<path id="surface" opacity="0.25" d="M72 18C72 8.05888 63.9411 0 54 0H18C8.05888 0 0 8.05888 0 18V54C0 63.9411 8.05888 72 18 72H54C63.9411 72 72 63.9411 72 54V18Z" fill="url(#paint0_linear_7778_5577)"/>
<g id="Group 74795">
<path id="Vector" d="M36 62L29.8217 59.058C20.7675 54.7464 15 45.612 15 35.5836V14H57V35.5836C57 45.612 51.2325 54.7464 42.1783 59.058L36 62Z" fill="url(#paint1_linear_7778_5577)"/>
<g id="symbol-stroke">
<path d="M45.75 39.75C46.1642 39.75 46.5 40.0858 46.5 40.5V43.5C46.5 43.9142 46.1642 44.25 45.75 44.25C45.3358 44.25 45 43.9142 45 43.5V40.5C45 40.0858 45.3358 39.75 45.75 39.75Z" fill="white"/>
<path d="M42.75 31.75C43.1642 31.75 43.5 32.0858 43.5 32.5V35.5C43.5 35.9142 43.1642 36.25 42.75 36.25C42.3358 36.25 42 35.9142 42 35.5V32.5C42 32.0858 42.3358 31.75 42.75 31.75Z" fill="white"/>
<path d="M45.75 31.75C46.1642 31.75 46.5 32.0858 46.5 32.5V35.5C46.5 35.9142 46.1642 36.25 45.75 36.25C45.3358 36.25 45 35.9142 45 35.5V32.5C45 32.0858 45.3358 31.75 45.75 31.75Z" fill="white"/>
<path d="M39.75 23.75C40.1642 23.75 40.5 24.0858 40.5 24.5V27.5C40.5 27.9142 40.1642 28.25 39.75 28.25C39.3358 28.25 39 27.9142 39 27.5V24.5C39 24.0858 39.3358 23.75 39.75 23.75Z" fill="white"/>
<path d="M42.75 23.75C43.1642 23.75 43.5 24.0858 43.5 24.5V27.5C43.5 27.9142 43.1642 28.25 42.75 28.25C42.3358 28.25 42 27.9142 42 27.5V24.5C42 24.0858 42.3358 23.75 42.75 23.75Z" fill="white"/>
<path d="M45.75 23.75C46.1642 23.75 46.5 24.0858 46.5 24.5V27.5C46.5 27.9142 46.1642 28.25 45.75 28.25C45.3358 28.25 45 27.9142 45 27.5V24.5C45 24.0858 45.3358 23.75 45.75 23.75Z" fill="white"/>
<path fill-rule="evenodd" clip-rule="evenodd" d="M49.75 46.75H22.25V21.25H49.75V46.75ZM23.75 45.25H48.25V38.75H23.75V45.25ZM23.75 37.25H48.25V30.75H23.75V37.25ZM23.75 29.25H48.25V22.75H23.75V29.25Z" fill="white"/>
</g>
</g>
</g>
<defs>
<linearGradient id="paint0_linear_7778_5577" x1="6.5" y1="3.5" x2="64" y2="67" gradientUnits="userSpaceOnUse">
<stop stop-color="#F1A5A5"/>
<stop offset="1" stop-color="#DC1F1F"/>
</linearGradient>
<linearGradient id="paint1_linear_7778_5577" x1="20.1653" y1="19.0841" x2="46.9467" y2="56.84" gradientUnits="userSpaceOnUse">
<stop stop-color="#F1A5A5"/>
<stop offset="1" stop-color="#DC1F1F"/>
</linearGradient>
</defs>
</svg>
