<svg width="72" height="72" viewBox="0 0 72 72" fill="none" xmlns="http://www.w3.org/2000/svg">
<g id="application-load-balancer">
<path id="background" d="M72 18C72 8.05888 63.9411 0 54 0H18C8.05888 0 0 8.05888 0 18V54C0 63.9411 8.05888 72 18 72H54C63.9411 72 72 63.9411 72 54V18Z" fill="black"/>
<path id="surface" opacity="0.25" d="M72 18C72 8.05888 63.9411 0 54 0H18C8.05888 0 0 8.05888 0 18V54C0 63.9411 8.05888 72 18 72H54C63.9411 72 72 63.9411 72 54V18Z" fill="url(#paint0_linear_8047_550)"/>
<path id="symbol-stroke" d="M50.0723 46H49.998C49.4714 46 48.9771 46.1367 48.5469 46.375L36.748 26.709V46.0146C36.5028 46.0055 36.2525 46 35.998 46C35.7436 46 35.4933 46.0055 35.248 46.0146V26.7061L23.6719 46H21.9219L35.9971 22.542L50.0723 46Z" fill="white"/>
<path id="Rectangle 761" opacity="0.9" d="M47 13H25V35H47V13Z" fill="url(#paint1_linear_8047_550)"/>
<g id="Union" opacity="0.8">
<path d="M25 53.0967C25 56.0401 23.1588 58.6698 20.3926 59.6758L19.5 60L18.6074 59.6758C15.8412 58.6698 14 56.0401 14 53.0967V46H25V53.0967Z" fill="url(#paint2_linear_8047_550)"/>
<path d="M36 46C39.0376 46 41.5 46.6716 41.5 47.5V58.5C41.5 59.3284 39.0376 60 36 60C32.9624 60 30.5 59.3284 30.5 58.5V47.5C30.5 46.6716 32.9624 46 36 46Z" fill="url(#paint3_linear_8047_550)"/>
<path d="M55 46C56.6569 46 58 47.3431 58 49V57C58 58.6569 56.6569 60 55 60H50C48.3431 60 47 58.6569 47 57V49C47 47.3431 48.3431 46 50 46H55Z" fill="url(#paint4_linear_8047_550)"/>
</g>
<g id="symbol-stroke_2">
<path fill-rule="evenodd" clip-rule="evenodd" d="M23.5 52.4697C23.5 54.9832 21.8871 57.2133 19.5 58C17.1129 57.2133 15.5 54.9832 15.5 52.4697V47.5H23.5V52.4697ZM17 52.4697C17 54.165 17.9902 55.6826 19.5 56.3848C21.0098 55.6826 22 54.165 22 52.4697V49H17V52.4697Z" fill="white"/>
<path d="M54.75 56C55.1642 56 55.5 56.3358 55.5 56.75C55.5 57.1642 55.1642 57.5 54.75 57.5H50.25C49.8358 57.5 49.5 57.1642 49.5 56.75C49.5 56.3358 49.8358 56 50.25 56H54.75Z" fill="white"/>
<path d="M41.5 56.3096C41.1233 56.4976 40.7038 56.6433 40.2842 56.7578C39.1271 57.0734 37.6127 57.25 36 57.25C34.3873 57.25 32.8729 57.0734 31.7158 56.7578C31.2962 56.6433 30.8767 56.4976 30.5 56.3096V54.25C30.5 55.0784 32.9624 55.75 36 55.75C39.0376 55.75 41.5 55.0784 41.5 54.25V56.3096Z" fill="white"/>
<path d="M54.75 52.25C55.1642 52.25 55.5 52.5858 55.5 53C55.5 53.4142 55.1642 53.75 54.75 53.75H50.25C49.8358 53.75 49.5 53.4142 49.5 53C49.5 52.5858 49.8358 52.25 50.25 52.25H54.75Z" fill="white"/>
<path d="M41.5 51.8096C41.1233 51.9976 40.7038 52.1433 40.2842 52.2578C39.1271 52.5734 37.6127 52.75 36 52.75C34.3873 52.75 32.8729 52.5734 31.7158 52.2578C31.2962 52.1433 30.8767 51.9976 30.5 51.8096V49.75C30.5 50.5784 32.9624 51.25 36 51.25C39.0376 51.25 41.5 50.5784 41.5 49.75V51.8096Z" fill="white"/>
<path d="M54.75 48.5C55.1642 48.5 55.5 48.8358 55.5 49.25C55.5 49.6642 55.1642 50 54.75 50H50.25C49.8358 50 49.5 49.6642 49.5 49.25C49.5 48.8358 49.8358 48.5 50.25 48.5H54.75Z" fill="white"/>
</g>
</g>
<defs>
<linearGradient id="paint0_linear_8047_550" x1="6.5" y1="3.5" x2="64" y2="67" gradientUnits="userSpaceOnUse">
<stop stop-color="#9DB0FC"/>
<stop offset="1" stop-color="#5371DE"/>
</linearGradient>
<linearGradient id="paint1_linear_8047_550" x1="29.3288" y1="13" x2="47.9645" y2="31.7082" gradientUnits="userSpaceOnUse">
<stop stop-color="#9DB0FC"/>
<stop offset="1" stop-color="#5371DE"/>
</linearGradient>
<linearGradient id="paint2_linear_8047_550" x1="32.1586" y1="48.3288" x2="37.2364" y2="77.9834" gradientUnits="userSpaceOnUse">
<stop stop-color="#9DB0FC"/>
<stop offset="1" stop-color="#5371DE"/>
</linearGradient>
<linearGradient id="paint3_linear_8047_550" x1="32.1586" y1="48.3288" x2="37.2364" y2="77.9834" gradientUnits="userSpaceOnUse">
<stop stop-color="#9DB0FC"/>
<stop offset="1" stop-color="#5371DE"/>
</linearGradient>
<linearGradient id="paint4_linear_8047_550" x1="32.1586" y1="48.3288" x2="37.2364" y2="77.9834" gradientUnits="userSpaceOnUse">
<stop stop-color="#9DB0FC"/>
<stop offset="1" stop-color="#5371DE"/>
</linearGradient>
</defs>
</svg>
