<svg width="72" height="72" viewBox="0 0 72 72" fill="none" xmlns="http://www.w3.org/2000/svg">
<g id="cdn">
<path id="background" d="M72 18C72 8.05888 63.9411 0 54 0H18C8.05888 0 0 8.05888 0 18V54C0 63.9411 8.05888 72 18 72H54C63.9411 72 72 63.9411 72 54V18Z" fill="black"/>
<path id="surface" opacity="0.25" d="M72 18C72 8.05888 63.9411 0 54 0H18C8.05888 0 0 8.05888 0 18V54C0 63.9411 8.05888 72 18 72H54C63.9411 72 72 63.9411 72 54V18Z" fill="url(#paint0_linear_7778_5569)"/>
<path id="Union" d="M19.1699 55.1501C20.5506 52.7588 23.6086 51.9397 26 53.3201C28.3913 54.7007 29.2115 57.7587 27.8311 60.1501C26.4503 62.5416 23.3915 63.3609 21 61.9802C18.6089 60.5994 17.7893 57.5414 19.1699 55.1501ZM46 53.3201C48.3915 51.9393 51.4503 52.7587 52.8311 55.1501C54.2117 57.5416 53.3914 60.5995 51 61.9802C48.6086 63.3607 45.5506 62.5415 44.1699 60.1501C42.7895 57.7588 43.6089 54.7008 46 53.3201ZM11 30.9998C13.7614 30.9998 16 33.2384 16 35.9998C16 38.7612 13.7614 40.9998 11 40.9998C8.2388 40.9995 6.00003 38.761 6 35.9998C6 33.2385 8.23879 31 11 30.9998ZM61 30.9998C63.7614 30.9998 66 33.2384 66 35.9998C66 38.7612 63.7614 40.9998 61 40.9998C58.2388 40.9995 56 38.761 56 35.9998C56 33.2385 58.2388 31 61 30.9998ZM21 10.0194C23.3915 8.63864 26.4494 9.45797 27.8301 11.8494C29.2108 14.2409 28.3915 17.2988 26 18.6795C23.6086 20.0598 20.5506 19.2407 19.1699 16.8494C17.7893 14.4581 18.6089 11.4002 21 10.0194ZM44.1699 11.8494C45.5506 9.45803 48.6086 8.63879 51 10.0194C53.3915 11.4001 54.2118 14.458 52.8311 16.8494C51.4503 19.2409 48.3915 20.0602 46 18.6795C43.6088 17.2988 42.7896 14.2407 44.1699 11.8494Z" fill="url(#paint1_linear_7778_5569)"/>
<path id="Intersect" d="M40.6689 24.9434C41.2401 25.1849 41.7877 25.4706 42.3096 25.7939C42.1248 25.8805 41.9358 25.9728 41.7432 26.0713C40.3497 26.7839 38.8006 27.7868 37.1914 29.0322C38.1935 29.8795 39.2022 30.8067 40.1973 31.8018C43.2137 34.8183 45.6005 37.9596 47.0557 40.6689C46.8138 41.2409 46.5271 41.7889 46.2031 42.3115C46.1166 42.127 46.0261 41.9375 45.9277 41.7451C44.5868 39.123 42.2208 35.9465 39.1367 32.8623C38.0934 31.819 37.0383 30.8583 35.999 29.9912C34.9596 30.8584 33.9048 31.8188 32.8613 32.8623C29.777 35.9467 27.4103 39.1228 26.0693 41.7451C25.971 41.9374 25.8794 42.1261 25.793 42.3105C25.4695 41.7886 25.183 41.2412 24.9414 40.6699C26.3965 37.9602 28.7837 34.8188 31.8008 31.8018C32.7958 30.8068 33.8036 29.8795 34.8057 29.0322C33.1969 27.7872 31.648 26.7838 30.2549 26.0713C30.0619 25.9726 29.8717 25.8807 29.6865 25.7939C30.2083 25.4705 30.7561 25.1849 31.3271 24.9434C32.7873 25.7274 34.3743 26.7804 35.998 28.0586C37.6217 26.7803 39.2087 25.7274 40.6689 24.9434Z" fill="white"/>
<path id="Ellipse 41" opacity="0.9" d="M36 48C42.6274 48 48 42.6274 48 36C48 29.3726 42.6274 24 36 24C29.3726 24 24 29.3726 24 36C24 42.6274 29.3726 48 36 48Z" fill="url(#paint2_radial_7778_5569)"/>
<path id="symbol-stroke" fill-rule="evenodd" clip-rule="evenodd" d="M36 19.25C45.2508 19.25 52.75 26.7492 52.75 36C52.75 40.6202 50.8796 44.8036 47.8545 47.834L47.8535 47.833C44.8216 50.8702 40.6306 52.75 36 52.75C31.3903 52.75 27.2162 50.8871 24.1875 47.874C24.1806 47.8673 24.1729 47.8613 24.166 47.8545C24.1592 47.8477 24.1523 47.8398 24.1455 47.833C24.1385 47.826 24.1319 47.8186 24.125 47.8115C21.1125 44.7829 19.25 40.6092 19.25 36C19.25 31.3975 21.1065 27.2287 24.1113 24.2012C24.1225 24.1896 24.1331 24.1774 24.1445 24.166L24.1455 24.167C27.1775 21.1295 31.3692 19.25 36 19.25ZM35.999 43.9404C34.2286 45.3341 32.5041 46.4635 30.9375 47.2646C29.6434 47.9264 28.4225 48.3791 27.3525 48.5615C29.8101 50.2565 32.7888 51.25 36 51.25C39.2109 51.25 42.1891 50.2563 44.6465 48.5615C43.5765 48.3792 42.3558 47.9265 41.0615 47.2646C39.4947 46.4634 37.7698 45.3345 35.999 43.9404ZM23.4375 27.3525C21.7427 29.81 20.75 32.789 20.75 36C20.75 39.2107 21.743 42.1892 23.4375 44.6465C23.6201 43.5766 24.0746 42.3565 24.7363 41.0625C24.8026 40.933 24.8717 40.8025 24.9424 40.6709C25.1838 41.2416 25.4708 41.789 25.7939 42.3105C25.2894 43.3874 24.9866 44.3276 24.8848 45.0898C24.7651 45.9864 24.9365 46.4955 25.1973 46.7637C25.2099 46.7764 25.2226 46.7891 25.2354 46.8018C25.5035 47.0629 26.0127 47.2351 26.9102 47.1152C27.803 46.9959 28.9401 46.602 30.2549 45.9297C31.6486 45.217 33.1971 44.2126 34.8066 42.9668C33.8046 42.1196 32.7957 41.1932 31.8008 40.1982C28.637 37.0344 26.1653 33.7346 24.7354 30.9385C24.0733 29.6439 23.6199 28.4228 23.4375 27.3525ZM48.5605 27.3516C48.3783 28.4218 47.9257 29.6427 47.2637 30.9375C45.8338 33.7336 43.362 37.0344 40.1982 40.1982C39.2032 41.1933 38.1935 42.1195 37.1914 42.9668C38.8011 44.2127 40.3504 45.2169 41.7441 45.9297C43.0589 46.602 44.196 46.9959 45.0889 47.1152C45.9958 47.2364 46.5067 47.0597 46.7725 46.7939C46.7822 46.7842 46.791 46.7735 46.8008 46.7637C47.0618 46.4956 47.2349 45.9869 47.1152 45.0898C47.0134 44.3278 46.7095 43.3879 46.2051 42.3115C46.5286 41.7895 46.816 41.2422 47.0576 40.6709C47.1283 40.8025 47.1984 40.933 47.2646 41.0625C47.9262 42.3563 48.3791 43.5768 48.5615 44.6465C50.2563 42.1891 51.25 39.2109 51.25 36C51.25 32.7883 50.256 29.8093 48.5605 27.3516ZM36 20.75C32.7885 20.75 29.8092 21.7432 27.3516 23.4385C28.4219 23.6208 29.6439 24.0743 30.9385 24.7363C31.0675 24.8023 31.197 24.873 31.3281 24.9434C30.7574 25.1848 30.21 25.4707 29.6885 25.7939C28.6123 25.2897 27.672 24.9866 26.9102 24.8848C26.0034 24.7637 25.4923 24.9413 25.2266 25.207C25.2197 25.2139 25.2129 25.2207 25.2061 25.2275L25.1104 25.3389C24.9002 25.6271 24.7779 26.1171 24.8838 26.9102C25.0031 27.8031 25.3979 28.9409 26.0703 30.2559C27.4113 32.878 29.7772 36.0535 32.8613 39.1377C33.9046 40.181 34.9598 41.1408 35.999 42.0078C37.0383 41.1407 38.0934 40.1811 39.1367 39.1377C42.221 36.0534 44.5877 32.8781 45.9287 30.2559C46.601 28.9411 46.9958 27.804 47.1152 26.9111C47.2364 26.0042 47.0587 25.4923 46.793 25.2266C46.7865 25.22 46.78 25.2135 46.7734 25.207L46.6611 25.1113C46.3729 24.9011 45.8827 24.779 45.0898 24.8848C44.3278 24.9866 43.3872 25.2895 42.3105 25.7939C41.7891 25.4709 41.2415 25.1847 40.6709 24.9434C40.8027 24.8726 40.9329 24.8026 41.0625 24.7363C42.3569 24.0745 43.5774 23.6208 44.6475 23.4385C42.1899 21.7435 39.2112 20.75 36 20.75Z" fill="white"/>
</g>
<defs>
<linearGradient id="paint0_linear_7778_5569" x1="6.5" y1="3.5" x2="64" y2="67" gradientUnits="userSpaceOnUse">
<stop stop-color="#9DB0FC"/>
<stop offset="1" stop-color="#5371DE"/>
</linearGradient>
<linearGradient id="paint1_linear_7778_5569" x1="15.5005" y1="11.9999" x2="57.0005" y2="59.9999" gradientUnits="userSpaceOnUse">
<stop stop-color="#9DB0FC"/>
<stop offset="1" stop-color="#5371DE"/>
</linearGradient>
<radialGradient id="paint2_radial_7778_5569" cx="0" cy="0" r="1" gradientUnits="userSpaceOnUse" gradientTransform="translate(30.6404 30.9769) rotate(41.4033) scale(18.7666)">
<stop offset="0.263904" stop-color="#9DB0FC"/>
<stop offset="1" stop-color="#5371DE"/>
</radialGradient>
</defs>
</svg>
