<svg width="72" height="72" viewBox="0 0 72 72" fill="none" xmlns="http://www.w3.org/2000/svg">
<g id="cspm">
<path id="background" d="M72 18C72 8.05888 63.9411 0 54 0H18C8.05888 0 0 8.05888 0 18V54C0 63.9411 8.05888 72 18 72H54C63.9411 72 72 63.9411 72 54V18Z" fill="black"/>
<path id="surface" opacity="0.25" d="M72 18C72 8.05888 63.9411 0 54 0H18C8.05888 0 0 8.05888 0 18V54C0 63.9411 8.05888 72 18 72H54C63.9411 72 72 63.9411 72 54V18Z" fill="url(#paint0_linear_10298_2140)"/>
<path id="symbol-stroke" fill-rule="evenodd" clip-rule="evenodd" d="M32.9512 7.99902C39.6651 7.99908 45.4405 12.1359 47.8281 17.999H48C54.0751 17.999 58.9999 22.9239 59 28.999C59 35.0742 54.0751 39.999 48 39.999H17C12.5818 39.9989 9 36.4173 9 31.999C9.00012 27.5809 12.5819 23.9991 17 23.999C16.9456 15.1785 24.1304 7.99902 32.9512 7.99902ZM32.9512 9.49902C24.9564 9.49902 18.4508 16.0078 18.5 23.9902L18.5088 25.499H17C13.4103 25.4991 10.5001 28.4093 10.5 31.999C10.5 35.5888 13.4102 38.4989 17 38.499H48C53.2467 38.499 57.5 34.2457 57.5 28.999C57.4999 23.7523 53.2466 19.499 48 19.499H46.8193L46.4385 18.5645C44.2733 13.248 39.0353 9.49908 32.9512 9.49902Z" fill="white"/>
<path id="Vector" opacity="0.9" d="M47 63.999L42.0777 61.5454C35.2899 58.162 31 51.2302 31 43.6459V28.999H63V43.6459C63 51.2302 58.7101 58.162 51.9223 61.5454L47 63.999Z" fill="url(#paint1_linear_10298_2140)"/>
<path id="symbol-stroke_2" opacity="0.9" d="M57.5 34.5H36.5V44.0332C36.5 49.181 39.3989 53.8824 43.9795 56.1758L47 57.6875L50.0205 56.1758C54.6011 53.8824 57.5 49.181 57.5 44.0332V34.5ZM59 44.0332C59 49.7464 55.7822 54.9679 50.6914 57.5166L47 59.3652L43.3086 57.5166C38.2178 54.9679 35 49.7464 35 44.0332V33H59V44.0332Z" fill="white"/>
</g>
<defs>
<linearGradient id="paint0_linear_10298_2140" x1="6.5" y1="3.5" x2="64" y2="67" gradientUnits="userSpaceOnUse">
<stop stop-color="#9DB0FC"/>
<stop offset="1" stop-color="#5371DE"/>
</linearGradient>
<linearGradient id="paint1_linear_10298_2140" x1="34.9355" y1="32.7062" x2="54.1658" y2="61.0339" gradientUnits="userSpaceOnUse">
<stop stop-color="#9DB0FC"/>
<stop offset="1" stop-color="#5371DE"/>
</linearGradient>
</defs>
</svg>
