<svg width="72" height="72" viewBox="0 0 72 72" fill="none" xmlns="http://www.w3.org/2000/svg">
<g id="dns">
<path id="background" d="M72 18C72 8.05888 63.9411 0 54 0H18C8.05888 0 0 8.05888 0 18V54C0 63.9411 8.05888 72 18 72H54C63.9411 72 72 63.9411 72 54V18Z" fill="black"/>
<path id="surface" opacity="0.25" d="M72 18C72 8.05888 63.9411 0 54 0H18C8.05888 0 0 8.05888 0 18V54C0 63.9411 8.05888 72 18 72H54C63.9411 72 72 63.9411 72 54V18Z" fill="url(#paint0_linear_7778_5567)"/>
<path id="symbol-stroke" fill-rule="evenodd" clip-rule="evenodd" d="M35.999 11C42.4979 11 48.0918 17.0542 50.5967 25.75H58.8076C59.0289 26.2417 59.234 26.7421 59.4238 27.25H50.9912C51.6425 29.9734 51.999 32.9217 51.999 36C51.999 39.0783 51.6425 42.0266 50.9912 44.75H59.4238C59.234 45.2579 59.0289 45.7583 58.8076 46.25H50.5967C48.1887 54.6094 42.9261 60.5263 36.749 60.9717V60.9873C36.4999 60.9946 36.2499 61 35.999 61C35.7481 61 35.4981 60.9946 35.249 60.9873V60.9717C29.072 60.5263 23.8093 54.6094 21.4014 46.25H13.1904C12.9691 45.7583 12.764 45.2579 12.5742 44.75H21.0068C20.3555 42.0266 19.999 39.0783 19.999 36C19.999 32.9217 20.3555 29.9734 21.0068 27.25H12.5742C12.764 26.7421 12.9691 26.2417 13.1904 25.75H21.4014C23.9062 17.0542 29.5001 11 35.999 11ZM22.9668 46.25C23.7204 48.7371 24.7352 50.9737 25.9482 52.8691C28.4945 56.8477 31.789 59.1722 35.249 59.4668V46.25H22.9668ZM36.749 59.4668C40.2091 59.1722 43.5035 56.8477 46.0498 52.8691C47.2628 50.9737 48.2776 48.7371 49.0312 46.25H36.749V59.4668ZM22.5508 27.25C21.8748 29.9465 21.499 32.8972 21.499 36C21.499 39.1028 21.8748 42.0535 22.5508 44.75H35.249V27.25H22.5508ZM36.749 44.75H49.4473C50.1233 42.0535 50.499 39.1028 50.499 36C50.499 32.8972 50.1233 29.9465 49.4473 27.25H36.749V44.75ZM35.249 12.5322C31.7889 12.8268 28.4945 15.1523 25.9482 19.1309C24.7352 21.0263 23.7204 23.2629 22.9668 25.75H35.249V12.5322ZM36.749 25.75H49.0312C48.2776 23.2629 47.2628 21.0263 46.0498 19.1309C43.5035 15.1523 40.2091 12.8268 36.749 12.5322V25.75Z" fill="white"/>
<path id="gradient" opacity="0.9" d="M61 36C61 49.8071 49.8071 61 36 61C22.1929 61 11 49.8071 11 36C11 22.1929 22.1929 11 36 11C49.8071 11 61 22.1929 61 36Z" fill="url(#paint1_radial_7778_5567)"/>
<g id="symbol-stroke_2">
<path fill-rule="evenodd" clip-rule="evenodd" d="M36 36.2588C38.7611 36.2591 40.9999 38.4976 41 41.2588C41 44.0202 38.7604 46.2588 35.999 46.2588H33.5693L31 48.8281L28.4297 46.2588H12.999C10.2378 46.2585 8 44.0201 8 41.2588C8.00009 38.4974 10.2386 36.2588 13 36.2588H36ZM13 37.7588C11.1274 37.7588 9.5985 39.2296 9.50488 41.0791L9.5 41.2588C9.5 43.1918 11.0664 44.7585 12.999 44.7588H29.0508L30.999 46.707L32.9482 44.7588H35.999C37.9324 44.7588 39.5 43.1914 39.5 41.2588C39.4999 39.3864 38.029 37.8575 36.1797 37.7637L36 37.7588H13Z" fill="white"/>
<path fill-rule="evenodd" clip-rule="evenodd" d="M56.999 17.251C59.7604 17.251 61.9999 19.4896 62 22.251C62 25.0122 59.7612 27.2507 57 27.251H41.8281L38.999 30.0791L36.1709 27.251H34C31.2386 27.251 28.999 25.0124 28.999 22.251C28.9991 19.4898 31.2379 17.2512 33.999 17.251H56.999ZM33.999 18.751L33.8193 18.7559C31.97 18.8496 30.4991 20.3786 30.499 22.251C30.499 24.1836 32.0666 25.751 34 25.751H36.792L39 27.958L41.207 25.751H57C58.933 25.7507 60.5 24.1836 60.5 22.251L60.4951 22.0713C60.4014 20.2222 58.872 18.751 56.999 18.751H33.999Z" fill="white"/>
</g>
</g>
<defs>
<linearGradient id="paint0_linear_7778_5567" x1="6.5" y1="3.5" x2="64" y2="67" gradientUnits="userSpaceOnUse">
<stop stop-color="#9DB0FC"/>
<stop offset="1" stop-color="#5371DE"/>
</linearGradient>
<radialGradient id="paint1_radial_7778_5567" cx="0" cy="0" r="1" gradientUnits="userSpaceOnUse" gradientTransform="translate(23.3197 24.3481) rotate(41.0548) scale(37.4578)">
<stop offset="0.39401" stop-color="#9DB0FC"/>
<stop offset="1" stop-color="#5371DE"/>
</radialGradient>
</defs>
</svg>
