<svg width="72" height="72" viewBox="0 0 72 72" fill="none" xmlns="http://www.w3.org/2000/svg">
<g id="firewall">
<path id="background" d="M72 18C72 8.05888 63.9411 0 54 0H18C8.05888 0 0 8.05888 0 18V54C0 63.9411 8.05888 72 18 72H54C63.9411 72 72 63.9411 72 54V18Z" fill="black"/>
<path id="surface" opacity="0.25" d="M72 18C72 8.05888 63.9411 0 54 0H18C8.05888 0 0 8.05888 0 18V54C0 63.9411 8.05888 72 18 72H54C63.9411 72 72 63.9411 72 54V18Z" fill="url(#paint0_linear_8893_41)"/>
<path id="Vector" d="M21.5738 29.3835C21.8114 29.0211 22.3426 29.2013 22.4495 29.6211C22.9776 31.6953 24.8562 33.2293 27.0927 33.2293C29.7389 33.2293 31.884 31.0819 31.884 28.4331C31.884 23.9262 25.1635 18.4841 35.3718 9.43437C35.6789 9.16211 36.1729 9.38406 36.209 9.79289C37.1263 20.1937 53.915 25.8085 53.915 41.3184C53.915 51.2224 45.8944 59.2512 36.0005 59.2512C26.1065 59.2512 18.0859 51.2224 18.0859 41.3184C18.0859 36.523 20.0708 31.6757 21.5738 29.3835Z" fill="url(#paint1_linear_8893_41)"/>
<g id="symbol-stroke">
<path d="M34 31.8965V67L9 51.1035V16L34 31.8965ZM10.5 50.2793L32.5 64.2686V32.7197L10.5 18.7305V50.2793Z" fill="white"/>
<path d="M38 31.8965V67L63 51.1035V16L38 31.8965ZM61.5 50.2793L39.5 64.2686V32.7197L61.5 18.7305V50.2793Z" fill="white"/>
</g>
</g>
<defs>
<linearGradient id="paint0_linear_8893_41" x1="6.5" y1="3.5" x2="64" y2="67" gradientUnits="userSpaceOnUse">
<stop stop-color="#9DB0FC"/>
<stop offset="1" stop-color="#5371DE"/>
</linearGradient>
<linearGradient id="paint1_linear_8893_41" x1="22.4923" y1="14.6037" x2="51.7061" y2="48.3749" gradientUnits="userSpaceOnUse">
<stop stop-color="#9DB0FC"/>
<stop offset="1" stop-color="#5371DE"/>
</linearGradient>
</defs>
</svg>
