<svg width="72" height="72" viewBox="0 0 72 72" fill="none" xmlns="http://www.w3.org/2000/svg">
<g id="ip">
<path id="background" d="M72 18C72 8.05888 63.9411 0 54 0H18C8.05888 0 0 8.05888 0 18V54C0 63.9411 8.05888 72 18 72H54C63.9411 72 72 63.9411 72 54V18Z" fill="black"/>
<path id="surface" opacity="0.25" d="M72 18C72 8.05888 63.9411 0 54 0H18C8.05888 0 0 8.05888 0 18V54C0 63.9411 8.05888 72 18 72H54C63.9411 72 72 63.9411 72 54V18Z" fill="url(#paint0_linear_7778_5568)"/>
<path id="Subtract" d="M26.8076 15.8076C31.8844 10.7308 40.1156 10.7308 45.1924 15.8076C50.2692 20.8844 50.2692 29.1156 45.1924 34.1924L36 43.3848L26.8076 34.1924C21.7308 29.1156 21.7308 20.8844 26.8076 15.8076ZM39.5352 21.4648C37.5825 19.5122 34.4175 19.5122 32.4648 21.4648C30.5122 23.4175 30.5122 26.5825 32.4648 28.5352C34.4175 30.4878 37.5825 30.4878 39.5352 28.5352C41.4878 26.5825 41.4878 23.4175 39.5352 21.4648Z" fill="url(#paint1_linear_7778_5568)"/>
<path id="symbol-stroke" fill-rule="evenodd" clip-rule="evenodd" d="M36 42.75C46.2462 42.75 54.75 49.924 54.75 59H53.25C53.25 56.5798 52.5599 54.2816 51.334 52.25H45.7861C46.4053 54.3114 46.75 56.5986 46.75 59H45.25C45.25 56.5593 44.8719 54.2672 44.2139 52.25H36.7373V59H35.2373V52.25H27.7861C27.1281 54.2672 26.75 56.5593 26.75 59H25.25C25.25 56.5986 25.5947 54.3114 26.2139 52.25H20.666C19.4401 54.2816 18.75 56.5798 18.75 59H17.25C17.25 49.924 25.7538 42.75 36 42.75ZM30.502 45.0127C26.8689 46.0554 23.7964 48.1027 21.7051 50.75H26.7266C27.1664 49.6167 27.6942 48.57 28.2988 47.6328C28.9445 46.6321 29.6841 45.7458 30.502 45.0127ZM35.2373 44.3008C33.1006 44.5848 31.1027 46.0546 29.5596 48.4463C29.1089 49.1448 28.7035 49.9171 28.3477 50.75H35.2373V44.3008ZM36.7373 50.75H43.6523C43.2965 49.9171 42.8911 49.1448 42.4404 48.4463C40.8912 46.0452 38.8835 44.5735 36.7373 44.2979V50.75ZM41.4971 45.0127C42.3152 45.7459 43.0554 46.6319 43.7012 47.6328C44.3058 48.57 44.8336 49.6167 45.2734 50.75H50.2949C48.2034 48.1025 45.1305 46.0553 41.4971 45.0127Z" fill="white"/>
</g>
<defs>
<linearGradient id="paint0_linear_7778_5568" x1="6.5" y1="3.5" x2="64" y2="67" gradientUnits="userSpaceOnUse">
<stop stop-color="#9DB0FC"/>
<stop offset="1" stop-color="#5371DE"/>
</linearGradient>
<linearGradient id="paint1_linear_7778_5568" x1="26.1976" y1="15.3242" x2="44.004" y2="39.0913" gradientUnits="userSpaceOnUse">
<stop stop-color="#9DB0FC"/>
<stop offset="1" stop-color="#5371DE"/>
</linearGradient>
</defs>
</svg>
