<svg width="72" height="72" viewBox="0 0 72 72" fill="none" xmlns="http://www.w3.org/2000/svg">
<g id="load-balancer">
<path id="background" d="M72 18C72 8.05888 63.9411 0 54 0H18C8.05888 0 0 8.05888 0 18V54C0 63.9411 8.05888 72 18 72H54C63.9411 72 72 63.9411 72 54V18Z" fill="black"/>
<path id="surface" opacity="0.25" d="M72 18C72 8.05888 63.9411 0 54 0H18C8.05888 0 0 8.05888 0 18V54C0 63.9411 8.05888 72 18 72H54C63.9411 72 72 63.9411 72 54V18Z" fill="url(#paint0_linear_7778_5570)"/>
<path id="Rectangle 765" d="M41.5 47H30.5V58H41.5V47Z" fill="url(#paint1_linear_7778_5570)"/>
<path id="Rectangle 766" d="M58 47H47V58H58V47Z" fill="url(#paint2_linear_7778_5570)"/>
<path id="Rectangle 764" d="M25 47H14V58H25V47Z" fill="url(#paint3_linear_7778_5570)"/>
<path id="symbol-stroke" d="M53.1426 52.1143L51.8555 52.8857L36.749 27.708V52.5H35.249V27.708L20.1426 52.8857L18.8555 52.1143L35.999 23.542L53.1426 52.1143Z" fill="white"/>
<path id="Rectangle 761" opacity="0.9" d="M47 14H25V36H47V14Z" fill="url(#paint4_linear_7778_5570)"/>
</g>
<defs>
<linearGradient id="paint0_linear_7778_5570" x1="6.5" y1="3.5" x2="64" y2="67" gradientUnits="userSpaceOnUse">
<stop stop-color="#9DB0FC"/>
<stop offset="1" stop-color="#5371DE"/>
</linearGradient>
<linearGradient id="paint1_linear_7778_5570" x1="40.2476" y1="57.1787" x2="32.4978" y2="47.4543" gradientUnits="userSpaceOnUse">
<stop stop-color="#5371DE"/>
<stop offset="1" stop-color="#9DB0FC"/>
</linearGradient>
<linearGradient id="paint2_linear_7778_5570" x1="56.7476" y1="57.1787" x2="48.9978" y2="47.4543" gradientUnits="userSpaceOnUse">
<stop stop-color="#5371DE"/>
<stop offset="1" stop-color="#9DB0FC"/>
</linearGradient>
<linearGradient id="paint3_linear_7778_5570" x1="23.7476" y1="57.1787" x2="15.9978" y2="47.4543" gradientUnits="userSpaceOnUse">
<stop stop-color="#5371DE"/>
<stop offset="1" stop-color="#9DB0FC"/>
</linearGradient>
<linearGradient id="paint4_linear_7778_5570" x1="44.4951" y1="34.3575" x2="28.9956" y2="14.9086" gradientUnits="userSpaceOnUse">
<stop stop-color="#5371DE"/>
<stop offset="1" stop-color="#9DB0FC"/>
</linearGradient>
</defs>
</svg>
