<svg width="72" height="72" viewBox="0 0 72 72" fill="none" xmlns="http://www.w3.org/2000/svg">
<g id="network-interface-card">
<path id="background" d="M72 18C72 8.05888 63.9411 0 54 0H18C8.05888 0 0 8.05888 0 18V54C0 63.9411 8.05888 72 18 72H54C63.9411 72 72 63.9411 72 54V18Z" fill="black"/>
<path id="surface" opacity="0.25" d="M72 18C72 8.05888 63.9411 0 54 0H18C8.05888 0 0 8.05888 0 18V54C0 63.9411 8.05888 72 18 72H54C63.9411 72 72 63.9411 72 54V18Z" fill="url(#paint0_linear_10327_52)"/>
<g id="symbol-stroke">
<path fill-rule="evenodd" clip-rule="evenodd" d="M17.917 39.4639L20.7031 42.25H23.1084C23.3921 41.2071 24.3428 40.4395 25.4756 40.4395C26.832 40.4395 27.9316 41.5391 27.9316 42.8955C27.9316 44.2519 26.832 45.3516 25.4756 45.3516C24.4201 45.3516 23.5232 44.6846 23.1758 43.75H20.0811L17.0762 40.7451H12.3867V39.2451H17.6973L17.917 39.4639ZM25.4756 41.9395C24.9476 41.9395 24.5195 42.3675 24.5195 42.8955C24.5195 43.4235 24.9476 43.8516 25.4756 43.8516C26.0036 43.8516 26.4316 43.4235 26.4316 42.8955C26.4316 42.3675 26.0036 41.9395 25.4756 41.9395Z" fill="white"/>
<path fill-rule="evenodd" clip-rule="evenodd" d="M25.4756 33.4395C26.832 33.4395 27.9316 34.5391 27.9316 35.8955C27.9316 37.2519 26.832 38.3516 25.4756 38.3516C24.4201 38.3516 23.5232 37.6846 23.1758 36.75H12.3867V35.25H23.1084C23.3921 34.2071 24.3428 33.4395 25.4756 33.4395ZM25.4756 34.9395C24.9476 34.9395 24.5195 35.3675 24.5195 35.8955C24.5195 36.4235 24.9476 36.8516 25.4756 36.8516C26.0036 36.8516 26.4316 36.4235 26.4316 35.8955C26.4316 35.3675 26.0036 34.9395 25.4756 34.9395Z" fill="white"/>
<path fill-rule="evenodd" clip-rule="evenodd" d="M25.4756 26.4395C26.832 26.4395 27.9316 27.5391 27.9316 28.8955C27.9316 30.2519 26.832 31.3516 25.4756 31.3516C24.4182 31.3516 23.5199 30.6823 23.1738 29.7451H20.7031L17.917 32.5312L17.6973 32.75H12.3867V31.25H17.0762L20.0811 28.2451H23.1094C23.3947 27.2047 24.3446 26.4395 25.4756 26.4395ZM25.4756 27.9395C24.9476 27.9395 24.5195 28.3675 24.5195 28.8955C24.5195 29.4235 24.9476 29.8516 25.4756 29.8516C26.0036 29.8516 26.4316 29.4235 26.4316 28.8955C26.4316 28.3675 26.0036 27.9395 25.4756 27.9395Z" fill="white"/>
</g>
<path id="Rectangle" opacity="0.85" d="M61.6641 20L11.6641 20L11.6641 52L61.6641 52L61.6641 20Z" fill="url(#paint1_linear_10327_52)"/>
<g id="symbol-stroke_2">
<path d="M10.3867 13.25C11.9055 13.25 13.1367 14.4812 13.1367 16V58H11.6367V16C11.6367 15.3096 11.0771 14.75 10.3867 14.75H8.38672V13.25H10.3867Z" fill="white"/>
<path d="M33.2266 56.25H53.7266V52H55.2266V57.75H31.7266V52H33.2266V56.25Z" fill="white"/>
<path fill-rule="evenodd" clip-rule="evenodd" d="M42.4141 28H44.9141V25H46.4141V28H48.9141V25H50.4141V28H53.6641V31.25H56.6641V32.75H53.6641V35.25H56.6641V36.75H53.6641V39.25H56.6641V40.75H53.6641V44H50.4141V47H48.9141V44H46.4141V47H44.9141V44H42.4141V47H40.9141V44H37.6641V40.75H34.6641V39.25H37.6641V36.75H34.6641V35.25H37.6641V32.75H34.6641V31.25H37.6641V28H40.9141V25H42.4141V28ZM39.1641 29.5V42.5H52.1641V29.5H39.1641Z" fill="white"/>
</g>
</g>
<defs>
<linearGradient id="paint0_linear_10327_52" x1="6.5" y1="3.5" x2="64" y2="67" gradientUnits="userSpaceOnUse">
<stop stop-color="#9DB0FC"/>
<stop offset="1" stop-color="#5371DE"/>
</linearGradient>
<linearGradient id="paint1_linear_10327_52" x1="27.0514" y1="21.8672" x2="61.6641" y2="49.9125" gradientUnits="userSpaceOnUse">
<stop stop-color="#9DB0FC"/>
<stop offset="1" stop-color="#5371DE"/>
</linearGradient>
</defs>
</svg>
