<svg width="72" height="72" viewBox="0 0 72 72" fill="none" xmlns="http://www.w3.org/2000/svg">
<g id="network">
<path id="background" d="M72 18C72 8.05888 63.9411 0 54 0H18C8.05888 0 0 8.05888 0 18V54C0 63.9411 8.05888 72 18 72H54C63.9411 72 72 63.9411 72 54V18Z" fill="black"/>
<path id="surface" opacity="0.25" d="M72 18C72 8.05888 63.9411 0 54 0H18C8.05888 0 0 8.05888 0 18V54C0 63.9411 8.05888 72 18 72H54C63.9411 72 72 63.9411 72 54V18Z" fill="url(#paint0_linear_7778_5566)"/>
<path id="Union" d="M36.0018 54C38.7631 54.0001 41.0018 56.2386 41.0018 59C41.0015 61.7612 38.763 63.9999 36.0018 64C33.2405 64 31.002 61.7612 31.0018 59C31.0018 56.2386 33.2404 54 36.0018 54ZM13.5828 43.1689C15.9743 41.7883 19.0322 42.6086 20.4129 45C21.7934 47.3914 20.9742 50.4494 18.5828 51.8301C16.1915 53.2105 13.1335 52.3911 11.7528 50C10.372 47.6085 11.1914 44.5497 13.5828 43.1689ZM51.5897 45C52.9703 42.6087 56.0284 41.7887 58.4197 43.1689C60.8112 44.5497 61.6305 47.6085 60.2498 50C58.869 52.391 55.811 53.2107 53.4197 51.8301C51.0286 50.4494 50.2094 47.3913 51.5897 45ZM11.7528 22C13.1334 19.6086 16.1914 18.7885 18.5828 20.1689C20.9743 21.5497 21.7936 24.6085 20.4129 27C19.0321 29.3911 15.9741 30.2107 13.5828 28.8301C11.1915 27.4494 10.3724 24.3914 11.7528 22ZM53.4197 20.1689C55.8112 18.7882 58.8691 19.6085 60.2498 22C61.6304 24.3914 60.8112 27.4494 58.4197 28.8301C56.0284 30.2104 52.9703 29.3912 51.5897 27C50.209 24.6086 51.0284 21.5497 53.4197 20.1689ZM36.0018 8C38.7631 8.0001 41.0018 10.2386 41.0018 13C41.0015 15.7611 38.763 17.9999 36.0018 18C33.2405 18 31.002 15.7612 31.0018 13C31.0018 10.2386 33.2404 8 36.0018 8Z" fill="url(#paint1_linear_7778_5566)"/>
<path id="symbol-stroke" d="M36.751 34.7002L55.5449 23.8506L56.2949 25.1494L37.5 35.999L56.2949 46.8506L55.5449 48.1494L36.751 37.2988V59H35.251V37.2988L16.457 48.1494L15.707 46.8506L34.5 35.999L15.707 25.1494L16.457 23.8506L35.251 34.7002V13H36.751V34.7002Z" fill="white"/>
<path id="gradient" opacity="0.9" d="M36 49C43.1797 49 49 43.1797 49 36C49 28.8203 43.1797 23 36 23C28.8203 23 23 28.8203 23 36C23 43.1797 28.8203 49 36 49Z" fill="url(#paint2_linear_7778_5566)"/>
</g>
<defs>
<linearGradient id="paint0_linear_7778_5566" x1="6.5" y1="3.5" x2="64" y2="67" gradientUnits="userSpaceOnUse">
<stop stop-color="#9DB0FC"/>
<stop offset="1" stop-color="#5371DE"/>
</linearGradient>
<linearGradient id="paint1_linear_7778_5566" x1="17.0017" y1="12.9995" x2="47.0019" y2="61.499" gradientUnits="userSpaceOnUse">
<stop stop-color="#9DB0FC"/>
<stop offset="1" stop-color="#5371DE"/>
</linearGradient>
<linearGradient id="paint2_linear_7778_5566" x1="26" y1="23" x2="47.2986" y2="44.749" gradientUnits="userSpaceOnUse">
<stop stop-color="#9DB0FC"/>
<stop offset="1" stop-color="#5371DE"/>
</linearGradient>
</defs>
</svg>
