<svg width="72" height="72" viewBox="0 0 72 72" fill="none" xmlns="http://www.w3.org/2000/svg">
<g id="private-endpoint">
<path id="background" d="M72 18C72 8.05888 63.9411 0 54 0H18C8.05888 0 0 8.05888 0 18V54C0 63.9411 8.05888 72 18 72H54C63.9411 72 72 63.9411 72 54V18Z" fill="black"/>
<path id="surface" opacity="0.25" d="M72 18C72 8.05888 63.9411 0 54 0H18C8.05888 0 0 8.05888 0 18V54C0 63.9411 8.05888 72 18 72H54C63.9411 72 72 63.9411 72 54V18Z" fill="url(#paint0_linear_9323_193)"/>
<g id="symbol-stroke">
<path d="M47.0293 26.0293L20.0293 53.0293L18.9688 51.9688L45.9688 24.9688L47.0293 26.0293Z" fill="white"/>
<path d="M46.873 11.0039C54.5839 11.1993 60.7989 17.4141 60.9941 25.125L60.999 25.499C60.999 33.5071 54.507 39.9989 46.499 39.999L46.125 39.9941C43.3481 39.9238 40.7655 39.0718 38.5879 37.6514L39.6748 36.5645C41.6584 37.7904 43.9959 38.499 46.499 38.499C53.6786 38.4989 59.499 32.6786 59.499 25.499C59.499 18.3194 53.6786 12.4992 46.499 12.499C39.3194 12.4992 33.499 18.3194 33.499 25.499C33.499 28.0017 34.2071 30.3389 35.4326 32.3223L34.3457 33.4092C32.862 31.1343 31.999 28.4175 31.999 25.499L32.0039 25.125C32.2023 17.2898 38.6161 10.9992 46.499 10.999L46.873 11.0039Z" fill="white"/>
</g>
<g id="Group 75293">
<path id="Ellipse" opacity="0.9" d="M46.5 32.999C50.6421 32.999 54 29.6412 54 25.499C54 21.3569 50.6421 17.999 46.5 17.999C42.3579 17.999 39 21.3569 39 25.499C39 29.6412 42.3579 32.999 46.5 32.999Z" fill="url(#paint1_radial_9323_193)"/>
<path id="Ellipse_2" opacity="0.9" d="M19.5 59.999C23.6421 59.999 27 56.6412 27 52.499C27 48.3569 23.6421 44.999 19.5 44.999C15.3579 44.999 12 48.3569 12 52.499C12 56.6412 15.3579 59.999 19.5 59.999Z" fill="url(#paint2_radial_9323_193)"/>
</g>
</g>
<defs>
<linearGradient id="paint0_linear_9323_193" x1="6.5" y1="3.5" x2="64" y2="67" gradientUnits="userSpaceOnUse">
<stop stop-color="#9DB0FC"/>
<stop offset="1" stop-color="#5371DE"/>
</linearGradient>
<radialGradient id="paint1_radial_9323_193" cx="0" cy="0" r="1" gradientUnits="userSpaceOnUse" gradientTransform="translate(42.6959 22.0035) rotate(41.0548) scale(11.2373)">
<stop offset="0.39401" stop-color="#9DB0FC"/>
<stop offset="1" stop-color="#5371DE"/>
</radialGradient>
<radialGradient id="paint2_radial_9323_193" cx="0" cy="0" r="1" gradientUnits="userSpaceOnUse" gradientTransform="translate(15.6959 49.0035) rotate(41.0548) scale(11.2373)">
<stop offset="0.39401" stop-color="#9DB0FC"/>
<stop offset="1" stop-color="#5371DE"/>
</radialGradient>
</defs>
</svg>
