<svg width="72" height="72" viewBox="0 0 72 72" fill="none" xmlns="http://www.w3.org/2000/svg">
<g id="security-groups">
<path id="background" d="M72 18C72 8.05888 63.9411 0 54 0H18C8.05888 0 0 8.05888 0 18V54C0 63.9411 8.05888 72 18 72H54C63.9411 72 72 63.9411 72 54V18Z" fill="black"/>
<path id="surface" opacity="0.25" d="M72 18C72 8.05888 63.9411 0 54 0H18C8.05888 0 0 8.05888 0 18V54C0 63.9411 8.05888 72 18 72H54C63.9411 72 72 63.9411 72 54V18Z" fill="url(#paint0_linear_7778_5571)"/>
<g id="Group 74871">
<path id="symbol-stroke" fill-rule="evenodd" clip-rule="evenodd" d="M52 20H58V36.2617L57.9951 36.7354C57.8986 41.6225 56.3123 46.3885 53.5029 50.2041L53.2275 50.5703C50.3484 54.3128 46.378 56.9435 42 58L41.5771 57.8926C37.2264 56.7349 33.305 54.0177 30.4971 50.2041C30.2875 49.9194 30.0855 49.6289 29.8896 49.334C27.8411 47.9891 26.0077 46.2557 24.4971 44.2041C21.6877 40.3885 20.1014 35.6225 20.0049 30.7354L20 30.2617V14H52V20ZM52 30.2617L51.9951 30.7354C51.8986 35.6225 50.3123 40.3885 47.5029 44.2041L47.2275 44.5703C44.3484 48.3128 40.378 50.9435 36 52L35.5771 51.8926C34.7542 51.6736 33.9467 51.3987 33.1592 51.0713C35.6068 53.7066 38.6779 55.576 42 56.4521C46.0185 55.3923 49.6705 52.8798 52.2949 49.3154C54.9988 45.6432 56.5 41.0053 56.5 36.2617V21.5H52V30.2617ZM27.5 36.2617C27.5 40.5557 28.7299 44.7632 30.9688 48.2461C32.5375 49.2395 34.2333 49.9862 36 50.4521C40.0185 49.3923 43.6705 46.8798 46.2949 43.3154C48.9988 39.6432 50.5 35.0053 50.5 30.2617V21.5H27.5V36.2617ZM21.5 30.2617C21.5 35.0053 23.0012 39.6432 25.7051 43.3154C26.4136 44.2777 27.1976 45.1628 28.043 45.9639C26.7725 43.096 26.0682 39.9417 26.0049 36.7354L26 36.2617V20H50.5V15.5H21.5V30.2617Z" fill="white"/>
<g id="Group 74794" opacity="0.9">
<path id="Vector" d="M30 58C25.4808 56.9094 21.3962 54.1413 18.4975 50.2045C15.5972 46.2657 14 41.314 14 36.2617V20H46V36.2617C46 41.314 44.4028 46.2657 41.5025 50.2045C38.6038 54.1413 34.5192 56.9094 30 58Z" fill="url(#paint1_linear_7778_5571)"/>
</g>
</g>
</g>
<defs>
<linearGradient id="paint0_linear_7778_5571" x1="6.5" y1="3.5" x2="64" y2="67" gradientUnits="userSpaceOnUse">
<stop stop-color="#9DB0FC"/>
<stop offset="1" stop-color="#5371DE"/>
</linearGradient>
<linearGradient id="paint1_linear_7778_5571" x1="16" y1="21.5" x2="33.587" y2="47.7764" gradientUnits="userSpaceOnUse">
<stop stop-color="#9DB0FC"/>
<stop offset="1" stop-color="#5371DE"/>
</linearGradient>
</defs>
</svg>
