<svg width="72" height="72" viewBox="0 0 72 72" fill="none" xmlns="http://www.w3.org/2000/svg">
<g id="vpn">
<path id="background" d="M72 18C72 8.05888 63.9411 0 54 0H18C8.05888 0 0 8.05888 0 18V54C0 63.9411 8.05888 72 18 72H54C63.9411 72 72 63.9411 72 54V18Z" fill="black"/>
<path id="surface" opacity="0.25" d="M72 18C72 8.05888 63.9411 0 54 0H18C8.05888 0 0 8.05888 0 18V54C0 63.9411 8.05888 72 18 72H54C63.9411 72 72 63.9411 72 54V18Z" fill="url(#paint0_linear_9323_129)"/>
<g id="Group 75295">
<g id="symbol-stroke">
<path fill-rule="evenodd" clip-rule="evenodd" d="M27.9688 22.0889C30.1783 20.8132 33.0287 21.533 35.6885 23.2891C35.7931 23.3582 35.8963 23.4312 36.001 23.5039C36.1054 23.4315 36.2091 23.3589 36.3135 23.29C38.973 21.5343 41.8229 20.8145 44.0322 22.0898C46.2415 23.3655 47.0434 26.1937 46.8525 29.375C46.8451 29.4993 46.8328 29.6248 46.8223 29.751C46.9374 29.8052 47.0521 29.8581 47.1641 29.9141C50.0147 31.3394 52.0632 33.4478 52.0635 35.999C52.0635 38.5503 50.0147 40.6586 47.1641 42.084C47.0518 42.1401 46.9366 42.1927 46.8213 42.2471C46.8319 42.374 46.8441 42.4999 46.8516 42.625C47.0425 45.8063 46.2414 48.6344 44.0322 49.9102C41.8227 51.1857 38.9723 50.4661 36.3125 48.71C36.2082 48.6411 36.1053 48.5685 36.001 48.4961C35.8965 48.5686 35.7939 48.642 35.6895 48.7109C33.0298 50.467 30.1792 51.1875 27.9697 49.9121C25.7602 48.6364 24.9585 45.8075 25.1494 42.626C25.1569 42.5005 25.1681 42.3743 25.1787 42.2471C25.0636 42.1928 24.9489 42.14 24.8369 42.084C23.768 41.5495 22.8119 40.919 22.0342 40.2051C21.9693 40.1455 21.9051 40.0861 21.8428 40.0254C20.6593 38.8732 19.9375 37.5138 19.9375 35.999C19.9378 33.4478 21.9863 31.3394 24.8369 29.9141C24.9487 29.8582 25.0629 29.8051 25.1777 29.751C25.1672 29.6244 25.1559 29.4988 25.1484 29.374C24.9575 26.1927 25.7595 23.3647 27.9688 22.0889ZM26.6406 42.8604C26.4942 45.7856 27.2906 47.7882 28.7197 48.6133C30.1487 49.4379 32.2797 49.125 34.7393 47.5361C33.5772 46.5715 32.4307 45.4002 31.3496 44.0557C29.6448 43.7916 28.057 43.3845 26.6406 42.8604ZM45.3604 42.8594C43.9439 43.3836 42.3564 43.7915 40.6514 44.0557C39.5705 45.4001 38.4256 46.5725 37.2637 47.5371C39.7225 49.1249 41.8536 49.436 43.2822 48.6113C44.7111 47.7862 45.5067 45.7841 45.3604 42.8594ZM38.4609 44.3096C37.6581 44.3728 36.8365 44.4062 36.001 44.4062C35.1654 44.4062 34.3439 44.3728 33.541 44.3096C34.3474 45.195 35.1755 45.9711 36.001 46.627C36.8265 45.9711 37.6546 45.195 38.4609 44.3096ZM36.001 29.0928C34.6686 29.0928 33.3806 29.1805 32.1582 29.3428C31.4058 30.3207 30.6852 31.3932 30.0186 32.5479C29.3526 33.7014 28.7858 34.8606 28.3154 36C28.786 37.1395 29.3535 38.2985 30.0195 39.4521C30.6855 40.6056 31.4048 41.6771 32.1562 42.6543C33.3793 42.8168 34.6678 42.9053 36.001 42.9053C37.2938 42.9053 38.5446 42.8231 39.7344 42.6699L39.8438 42.6543C40.595 41.6774 41.3156 40.6073 41.9814 39.4541C42.6479 38.2998 43.2158 37.1402 43.6865 36C43.216 34.8599 42.6487 33.7 41.9824 32.5459C41.3161 31.3918 40.5948 30.3203 39.8428 29.3428C38.6207 29.1805 37.3331 29.0928 36.001 29.0928ZM27.5742 38.0244C27.211 39.1648 26.9521 40.2693 26.7969 41.3115C27.4532 41.5705 28.1558 41.8067 28.9004 42.0088L29.5381 42.1719C29.7012 42.2112 29.8666 42.2468 30.0332 42.2832C29.5773 41.6198 29.1373 40.9254 28.7197 40.2021C28.3022 39.4789 27.9207 38.7509 27.5742 38.0244ZM44.4268 38.0244C44.08 38.7514 43.6991 39.4803 43.2812 40.2041C42.8641 40.9266 42.4242 41.6205 41.9688 42.2832C42.135 42.2468 42.3001 42.2111 42.4629 42.1719L43.1016 42.0088C43.7303 41.8381 44.3299 41.6453 44.8965 41.4336C45.0002 41.3948 45.1017 41.3525 45.2031 41.3125C45.048 40.27 44.7901 39.1651 44.4268 38.0244ZM25.3779 31.3232C22.7727 32.6588 21.4378 34.3493 21.4375 35.999C21.4375 37.2569 22.213 38.5397 23.7363 39.6699C23.9902 39.8583 24.2653 40.0416 24.5605 40.2207C24.7081 40.3102 24.8607 40.3985 25.0186 40.4854C25.1355 40.5497 25.2564 40.611 25.3789 40.6738C25.6333 39.1857 26.0748 37.6078 26.6982 36C26.0742 34.3911 25.6323 32.8123 25.3779 31.3232ZM46.6221 31.3232C46.3678 32.8123 45.9268 34.3911 45.3027 36C45.9262 37.6079 46.3678 39.1857 46.6221 40.6738C49.2275 39.3382 50.5635 37.6489 50.5635 35.999C50.5632 34.3492 49.2278 32.6588 46.6221 31.3232ZM30.0342 29.7148C28.8642 29.9705 27.7776 30.2986 26.7969 30.6855C26.9521 31.7287 27.2105 32.8342 27.5742 33.9756C27.9207 33.2491 28.3022 32.5211 28.7197 31.7979C29.1377 31.074 29.5778 30.3787 30.0342 29.7148ZM41.9678 29.7148C42.4237 30.3781 42.8637 31.0727 43.2812 31.7959C43.6989 32.5194 44.0802 33.2478 44.4268 33.9746C44.7903 32.8335 45.049 31.7284 45.2041 30.6855C44.2236 30.2986 43.1374 29.9705 41.9678 29.7148ZM34.7383 24.4629C32.2789 22.8744 30.1475 22.5628 28.7188 23.3877C27.2902 24.2127 26.4938 26.2139 26.6396 29.1377C28.0565 28.6135 29.645 28.2063 31.3506 27.9424C32.4313 26.5988 33.5767 25.427 34.7383 24.4629ZM43.2822 23.3887C41.8534 22.564 39.7219 22.8754 37.2627 24.4639C38.4242 25.428 39.5698 26.5988 40.6504 27.9424C42.356 28.2063 43.9444 28.6134 45.3613 29.1377C45.5069 26.2146 44.7106 24.2135 43.2822 23.3887ZM36.001 25.373C35.1756 26.0287 34.3473 26.8044 33.541 27.6895C34.3438 27.6263 35.1654 27.5928 36.001 27.5928C36.8362 27.5928 37.6575 27.6263 38.46 27.6895C37.6538 26.8046 36.8262 26.0286 36.001 25.373Z" fill="white"/>
<path fill-rule="evenodd" clip-rule="evenodd" d="M58.5 17.9189V35.584C58.4999 46.1908 52.3997 55.8518 42.8232 60.4121L36 63.6611L29.1768 60.4121C19.6003 55.8518 13.5002 46.1908 13.5 35.584V17.9189L36 10.4189L58.5 17.9189ZM15 19V35.584L15.0039 36.0527C15.1806 45.8959 20.9087 54.8133 29.8213 59.0576L36 62L42.1787 59.0576C51.0913 54.8133 56.8194 45.8959 56.9961 36.0527L57 35.584V19L36 12L15 19Z" fill="white"/>
</g>
<g id="Subtract" opacity="0.9">
<path d="M36 25.3721C38.1075 27.0465 40.2288 29.5112 41.9805 32.5449C44.0491 36.1279 45.1762 39.7603 45.3535 42.7139C45.387 43.2716 45.3856 43.7965 45.3535 44.2871C43.0636 46.8699 39.7232 48.4999 36 48.5C32.2761 48.5 28.9345 46.8697 26.6445 44.2861C26.6127 43.7964 26.6121 43.2724 26.6455 42.7158C26.8228 39.7624 27.9501 36.1307 30.0186 32.5479C31.7706 29.5132 33.8919 27.0468 36 25.3721Z" fill="url(#paint1_radial_9323_129)"/>
<path d="M38.5117 23.752C44.2114 24.9147 48.5 29.9568 48.5 36C48.5 38.2788 47.8866 40.4132 46.8213 42.2529C46.5599 39.0995 45.357 35.3936 43.2793 31.7949C41.5397 28.7821 39.4293 26.2618 37.2627 24.4629C37.6893 24.1874 38.1068 23.9513 38.5117 23.752Z" fill="url(#paint2_radial_9323_129)"/>
<path d="M33.4883 23.752C33.8935 23.9515 34.3114 24.1871 34.7383 24.4629C32.5708 26.2621 30.4599 28.7839 28.7197 31.7979C26.6428 35.3953 25.4396 39.0993 25.1777 42.252C24.1128 40.4125 23.5 38.2784 23.5 36C23.5 29.9566 27.7884 24.9145 33.4883 23.752Z" fill="url(#paint3_radial_9323_129)"/>
<path d="M36.0039 23.5L36 23.5029L35.9951 23.5H36.0039Z" fill="url(#paint4_radial_9323_129)"/>
</g>
</g>
</g>
<defs>
<linearGradient id="paint0_linear_9323_129" x1="6.5" y1="3.5" x2="64" y2="67" gradientUnits="userSpaceOnUse">
<stop stop-color="#9DB0FC"/>
<stop offset="1" stop-color="#5371DE"/>
</linearGradient>
<radialGradient id="paint1_radial_9323_129" cx="0" cy="0" r="1" gradientUnits="userSpaceOnUse" gradientTransform="translate(29.6598 30.1741) rotate(41.0548) scale(18.7289)">
<stop offset="0.39401" stop-color="#9DB0FC"/>
<stop offset="1" stop-color="#5371DE"/>
</radialGradient>
<radialGradient id="paint2_radial_9323_129" cx="0" cy="0" r="1" gradientUnits="userSpaceOnUse" gradientTransform="translate(29.6598 30.1741) rotate(41.0548) scale(18.7289)">
<stop offset="0.39401" stop-color="#9DB0FC"/>
<stop offset="1" stop-color="#5371DE"/>
</radialGradient>
<radialGradient id="paint3_radial_9323_129" cx="0" cy="0" r="1" gradientUnits="userSpaceOnUse" gradientTransform="translate(29.6598 30.1741) rotate(41.0548) scale(18.7289)">
<stop offset="0.39401" stop-color="#9DB0FC"/>
<stop offset="1" stop-color="#5371DE"/>
</radialGradient>
<radialGradient id="paint4_radial_9323_129" cx="0" cy="0" r="1" gradientUnits="userSpaceOnUse" gradientTransform="translate(29.6598 30.1741) rotate(41.0548) scale(18.7289)">
<stop offset="0.39401" stop-color="#9DB0FC"/>
<stop offset="1" stop-color="#5371DE"/>
</radialGradient>
</defs>
</svg>
