<svg width="72" height="72" viewBox="0 0 72 72" fill="none" xmlns="http://www.w3.org/2000/svg">
<g id="file-storage">
<path id="background" d="M72 18C72 8.05888 63.9411 0 54 0H18C8.05888 0 0 8.05888 0 18V54C0 63.9411 8.05888 72 18 72H54C63.9411 72 72 63.9411 72 54V18Z" fill="black"/>
<path id="surface" opacity="0.25" d="M72 18C72 8.05888 63.9411 0 54 0H18C8.05888 0 0 8.05888 0 18V54C0 63.9411 8.05888 72 18 72H54C63.9411 72 72 63.9411 72 54V18Z" fill="url(#paint0_linear_7778_5576)"/>
<path id="Rectangle 849" d="M23 17C23 14.2386 25.2386 12 28 12H44C46.7614 12 49 14.2386 49 17V41C49 43.7614 46.7614 46 44 46H28C25.2386 46 23 43.7614 23 41V17Z" fill="url(#paint1_linear_7778_5576)"/>
<g id="symbol-stroke">
<path d="M46.75 52.75C47.1642 52.75 47.5 53.0858 47.5 53.5V56.5C47.5 56.9142 47.1642 57.25 46.75 57.25C46.3358 57.25 46 56.9142 46 56.5V53.5C46 53.0858 46.3358 52.75 46.75 52.75Z" fill="white"/>
<path d="M49.75 52.75C50.1642 52.75 50.5 53.0858 50.5 53.5V56.5C50.5 56.9142 50.1642 57.25 49.75 57.25C49.3358 57.25 49 56.9142 49 56.5V53.5C49 53.0858 49.3358 52.75 49.75 52.75Z" fill="white"/>
<path fill-rule="evenodd" clip-rule="evenodd" d="M54 60H18V50H54V60ZM19.5 58.5H52.5V51.5H19.5V58.5Z" fill="white"/>
<path d="M40.7734 33.5303L36 38.3037L31.2266 33.5303L32.2881 32.4697L36 36.1816L39.7119 32.4697L40.7734 33.5303Z" fill="white"/>
<path d="M40.7734 27.5303L36 32.3037L31.2266 27.5303L32.2881 26.4697L36 30.1816L39.7119 26.4697L40.7734 27.5303Z" fill="white"/>
<path d="M40.7734 21.5303L36 26.3037L31.2266 21.5303L32.2881 20.4697L36 24.1816L39.7119 20.4697L40.7734 21.5303Z" fill="white"/>
</g>
</g>
<defs>
<linearGradient id="paint0_linear_7778_5576" x1="6.5" y1="3.5" x2="64" y2="67" gradientUnits="userSpaceOnUse">
<stop stop-color="#F1A5A5"/>
<stop offset="1" stop-color="#DC1F1F"/>
</linearGradient>
<linearGradient id="paint1_linear_7778_5576" x1="26.1976" y1="15.6013" x2="45.8676" y2="39.8362" gradientUnits="userSpaceOnUse">
<stop stop-color="#F1A5A5"/>
<stop offset="1" stop-color="#DC1F1F"/>
</linearGradient>
</defs>
</svg>
