<svg width="72" height="72" viewBox="0 0 72 72" fill="none" xmlns="http://www.w3.org/2000/svg">
<g id="virtual-machine">
<path id="background" d="M72 18C72 8.05888 63.9411 0 54 0H18C8.05888 0 0 8.05888 0 18V54C0 63.9411 8.05888 72 18 72H54C63.9411 72 72 63.9411 72 54V18Z" fill="black"/>
<path id="surface" opacity="0.25" d="M72 18C72 8.05888 63.9411 0 54 0H18C8.05888 0 0 8.05888 0 18V54C0 63.9411 8.05888 72 18 72H54C63.9411 72 72 63.9411 72 54V18Z" fill="url(#paint0_linear_7778_5572)"/>
<path id="Polygon 2" d="M36 17.333L52 26.6663V45.333L36 54.6663L20 45.333V26.6663L36 17.333Z" fill="url(#paint1_linear_7778_5572)"/>
<path id="symbol-stroke" fill-rule="evenodd" clip-rule="evenodd" d="M31.0869 9.99707C34.1227 8.22625 37.8773 8.22622 40.9131 9.99707L55.9355 18.7607C57.6814 19.7792 58.196 21.8554 57.4844 23.501C59.242 23.7363 60.7498 25.2172 60.75 27.2227V44.8311C60.7498 48.2986 58.9083 51.5057 55.9131 53.2529L40.8896 62.0156C39.141 63.0356 37.0812 62.4587 36 61.0303C34.9188 62.4587 32.859 63.0356 31.1104 62.0156L16.0869 53.2529C13.0917 51.5057 11.2502 48.2986 11.25 44.8311V27.2227C11.2502 25.2176 12.7574 23.7367 14.5146 23.501C13.8032 21.8554 14.3187 19.7791 16.0645 18.7607L31.0869 9.99707ZM16.124 25.2744C14.6257 24.4096 12.7503 25.49 12.75 27.2227V44.8311C12.7502 47.7651 14.3084 50.4786 16.8428 51.957L31.8662 60.7207C33.366 61.5955 35.2496 60.5135 35.25 58.7773V41.1689C35.2499 38.2349 33.6916 35.5214 31.1572 34.043L31.1348 34.0293C31.119 34.0202 31.1026 34.0121 31.0869 34.0029L16.124 25.2744ZM59.25 27.2227C59.2497 25.4898 57.3734 24.4088 55.875 25.2744L40.9131 34.0029C40.8984 34.0115 40.8829 34.0189 40.8682 34.0273L40.8428 34.043C38.3084 35.5214 36.7501 38.2349 36.75 41.1689V58.7773C36.7504 60.5135 38.634 61.5955 40.1338 60.7207L55.1572 51.957C57.6916 50.4786 59.2498 47.7651 59.25 44.8311V27.2227ZM37.252 35.25C36.4205 35.3575 35.5785 35.3576 34.7471 35.25C35.2563 35.9168 35.6774 36.6465 36 37.4209C36.3225 36.6467 36.7429 35.9166 37.252 35.25ZM40.1572 11.293C37.5885 9.79456 34.4115 9.7946 31.8428 11.293L16.8203 20.0566C15.3319 20.9249 15.3319 23.0751 16.8203 23.9434L31.8848 32.7305C34.4333 34.1973 37.5701 34.1966 40.1182 32.7285L55.1797 23.9434C56.668 23.0751 56.668 20.9249 55.1797 20.0566L40.1572 11.293Z" fill="white"/>
</g>
<defs>
<linearGradient id="paint0_linear_7778_5572" x1="6.5" y1="3.5" x2="64" y2="67" gradientUnits="userSpaceOnUse">
<stop stop-color="#F1A5A5"/>
<stop offset="1" stop-color="#DC1F1F"/>
</linearGradient>
<linearGradient id="paint1_linear_7778_5572" x1="23.5556" y1="20.8886" x2="44.1201" y2="52.3072" gradientUnits="userSpaceOnUse">
<stop stop-color="#F1A5A5"/>
<stop offset="1" stop-color="#DC1F1F"/>
</linearGradient>
</defs>
</svg>
