<svg width="72" height="72" viewBox="0 0 72 72" fill="none" xmlns="http://www.w3.org/2000/svg">
<g id="kms">
<path id="background" d="M72 18C72 8.05888 63.9411 0 54 0H18C8.05888 0 0 8.05888 0 18V54C0 63.9411 8.05888 72 18 72H54C63.9411 72 72 63.9411 72 54V18Z" fill="black"/>
<path id="surface" opacity="0.25" d="M72 18C72 8.05888 63.9411 0 54 0H18C8.05888 0 0 8.05888 0 18V54C0 63.9411 8.05888 72 18 72H54C63.9411 72 72 63.9411 72 54V18Z" fill="url(#paint0_linear_7778_5590)"/>
<path id="symbol-stroke" fill-rule="evenodd" clip-rule="evenodd" d="M36.1232 9.75C37.1223 9.75 38.209 10.5371 39.09 12.2188C39.8407 13.6519 40.359 15.6008 40.4806 17.8037C38.5867 17.2498 36.5187 17.2059 34.4816 17.79C28.7484 19.4343 25.4336 25.4144 27.0773 31.1475C28.3131 35.4568 31.9992 38.3987 36.1886 38.8965L41.6007 57.7734L46.7677 60.6367L49.631 55.4717L48.8839 52.8623L45.5558 51.0176L46.8321 48.7158L44.3888 47.3623L46.3116 43.8926L44.2189 36.5947C47.4058 34.0351 48.9761 29.7795 47.9474 25.5977L47.84 25.1934C46.9411 22.0592 44.745 19.6505 42.003 18.377C41.9463 15.7394 41.3636 13.3273 40.4181 11.5225C39.4407 9.65685 37.9598 8.25 36.1232 8.25V9.75ZM34.8956 19.2314C39.6784 17.8602 44.6612 20.4963 46.255 25.1504L46.3976 25.6074C47.4609 29.3162 46.1146 33.1486 43.2794 35.4258L42.503 36.0498L44.6984 43.709L42.3488 47.9473L44.7931 49.2998L43.5177 51.6025L47.6134 53.873L48.0187 55.2861L46.1837 58.5977L42.8712 56.7617L37.3556 37.5254L36.3654 37.4072C32.7545 36.9781 29.582 34.4418 28.5187 30.7334C27.1036 25.7967 29.9585 20.6471 34.8956 19.2314Z" fill="white"/>
<path id="Subtract" d="M37.0171 17.734C31.2296 16.291 25.3673 19.8171 23.9232 25.6088C22.8377 29.9631 24.5593 34.3574 27.9398 36.8842L23.1902 55.9338L26.2305 60.9965L31.2908 57.9535L32.1317 54.5812L29.4171 50.0607L33.9364 47.3428L36.0402 38.9048C40.2117 38.2612 43.7954 35.1889 44.8813 30.8342C46.3252 25.0425 42.8045 19.177 37.0171 17.734ZM35.1649 25.1628C36.8527 25.5838 37.8802 27.2945 37.4591 28.9837C37.0378 30.6726 35.3274 31.7009 33.6396 31.2802C31.9518 30.8593 30.9254 29.1487 31.3464 27.4596C31.7676 25.7705 33.477 24.7421 35.1649 25.1628Z" fill="url(#paint1_linear_7778_5590)"/>
<path id="symbol-stroke_2" d="M30.2383 18.8018C30.2383 15.999 30.8321 13.4237 31.8281 11.5225C32.8056 9.65685 34.2864 8.25 36.123 8.25V9.75C35.124 9.75 34.0372 10.5371 33.1562 12.2188C32.2939 13.8649 31.7383 16.1914 31.7383 18.8018C31.7383 21.4119 32.294 23.7377 33.1562 25.3838C34.0372 27.0654 35.124 27.8525 36.123 27.8525V29.3525C34.2864 29.3525 32.8056 27.9458 31.8281 26.0801C30.8321 24.1789 30.2383 21.6044 30.2383 18.8018Z" fill="white"/>
</g>
<defs>
<linearGradient id="paint0_linear_7778_5590" x1="6.5" y1="3.5" x2="64" y2="67" gradientUnits="userSpaceOnUse">
<stop stop-color="#97E2A3"/>
<stop offset="1" stop-color="#4AB861"/>
</linearGradient>
<linearGradient id="paint1_linear_7778_5590" x1="19.0116" y1="31.8247" x2="43.7597" y2="41.7628" gradientUnits="userSpaceOnUse">
<stop stop-color="#97E2A3"/>
<stop offset="1" stop-color="#4AB861"/>
</linearGradient>
</defs>
</svg>
