<svg width="72" height="72" viewBox="0 0 72 72" fill="none" xmlns="http://www.w3.org/2000/svg">
<g id="secrets-manager">
<path id="background" d="M72 18C72 8.05888 63.9411 0 54 0H18C8.05888 0 0 8.05888 0 18V54C0 63.9411 8.05888 72 18 72H54C63.9411 72 72 63.9411 72 54V18Z" fill="black"/>
<path id="surface" opacity="0.25" d="M72 18C72 8.05888 63.9411 0 54 0H18C8.05888 0 0 8.05888 0 18V54C0 63.9411 8.05888 72 18 72H54C63.9411 72 72 63.9411 72 54V18Z" fill="url(#paint0_linear_7778_5583)"/>
<path id="Union" d="M36 10.5C40.6944 10.5 44.5 14.3056 44.5 19C44.5 22.2207 42.708 25.0218 40.0674 26.4639L45 44H27L31.9316 26.4639C29.2914 25.0217 27.5 22.2204 27.5 19C27.5 14.3056 31.3056 10.5 36 10.5Z" fill="url(#paint1_linear_7778_5583)"/>
<g id="symbol-stroke">
<path d="M24.1455 53.0479L22.2969 56.25H26V57.75H22.3018L24.1543 60.958L22.8545 61.708L21 58.4951L19.1455 61.708L17.8457 60.958L19.6982 57.75H16V56.25H19.7031L17.8545 53.0479L19.1543 52.2979L21 55.4941L22.8457 52.2979L24.1455 53.0479Z" fill="white"/>
<path d="M39.1455 53.0479L37.2969 56.25H41V57.75H37.3018L39.1543 60.958L37.8545 61.708L36 58.4951L34.1455 61.708L32.8457 60.958L34.6982 57.75H31V56.25H34.7031L32.8545 53.0479L34.1543 52.2979L36 55.4941L37.8457 52.2979L39.1455 53.0479Z" fill="white"/>
<path d="M54.1455 53.0479L52.2969 56.25H56V57.75H52.3018L54.1543 60.958L52.8545 61.708L51 58.4951L49.1455 61.708L47.8457 60.958L49.6982 57.75H46V56.25H49.7031L47.8545 53.0479L49.1543 52.2979L51 55.4941L52.8457 52.2979L54.1455 53.0479Z" fill="white"/>
</g>
</g>
<defs>
<linearGradient id="paint0_linear_7778_5583" x1="6.5" y1="3.5" x2="64" y2="67" gradientUnits="userSpaceOnUse">
<stop stop-color="#97E2A3"/>
<stop offset="1" stop-color="#4AB861"/>
</linearGradient>
<linearGradient id="paint1_linear_7778_5583" x1="38.2335" y1="20.3016" x2="23.2093" y2="45.5681" gradientUnits="userSpaceOnUse">
<stop stop-color="#4AB861"/>
<stop offset="1" stop-color="#97E2A3"/>
</linearGradient>
</defs>
</svg>
