<svg width="72" height="72" viewBox="0 0 72 72" fill="none" xmlns="http://www.w3.org/2000/svg">
<g id="cloudfoundry">
<path id="background" d="M72 18C72 8.05888 63.9411 0 54 0H18C8.05888 0 0 8.05888 0 18V54C0 63.9411 8.05888 72 18 72H54C63.9411 72 72 63.9411 72 54V18Z" fill="black"/>
<path id="surface" opacity="0.25" d="M72 18C72 8.05888 63.9411 0 54 0H18C8.05888 0 0 8.05888 0 18V54C0 63.9411 8.05888 72 18 72H54C63.9411 72 72 63.9411 72 54V18Z" fill="url(#paint0_linear_7778_5580)"/>
<path id="Vector" d="M52 17H44V25H52V17Z" fill="url(#paint1_linear_7778_5580)"/>
<path id="symbol-stroke" d="M44 17V25H36V17H44ZM37.5 23.5H42.5V18.5H37.5V23.5Z" fill="white"/>
<path id="Union" d="M36 57H28V49H36V57ZM36.0986 25H44V33H52C56.4182 33 59.9999 36.5818 60 41C60 45.4183 56.4183 49 52 49H36V41H28V49H21C14.9249 49 10 44.0751 10 38C10.0001 31.925 14.9249 27 21 27H21.1797C23.5811 21.137 29.3847 17.0001 36.0986 17V25Z" fill="url(#paint2_linear_7778_5580)"/>
<g id="symbol-stroke_2" opacity="0.5">
<path d="M28 41V33H36V41H28ZM34.5 34.5H29.5V39.5H34.5V34.5Z" fill="white"/>
<path d="M44 49V41H52V49H44ZM50.5 42.5H45.5V47.5H50.5V42.5Z" fill="white"/>
</g>
</g>
<defs>
<linearGradient id="paint0_linear_7778_5580" x1="6.5" y1="3.5" x2="64" y2="67" gradientUnits="userSpaceOnUse">
<stop stop-color="#D6E16D"/>
<stop offset="1" stop-color="#A3B713"/>
</linearGradient>
<linearGradient id="paint1_linear_7778_5580" x1="34.5624" y1="40.7966" x2="56.2044" y2="26.9671" gradientUnits="userSpaceOnUse">
<stop stop-color="#A3B713"/>
<stop offset="1" stop-color="#D6E16D"/>
</linearGradient>
<linearGradient id="paint2_linear_7778_5580" x1="17.8041" y1="50.2968" x2="46.5952" y2="17.108" gradientUnits="userSpaceOnUse">
<stop stop-color="#A3B713"/>
<stop offset="1" stop-color="#D6E16D"/>
</linearGradient>
</defs>
</svg>
