<svg width="72" height="72" viewBox="0 0 72 72" fill="none" xmlns="http://www.w3.org/2000/svg">
<g id="confidential-kubernetes">
<path id="background" d="M72 18C72 8.05888 63.9411 0 54 0H18C8.05888 0 0 8.05888 0 18V54C0 63.9411 8.05888 72 18 72H54C63.9411 72 72 63.9411 72 54V18Z" fill="black"/>
<path id="surface" opacity="0.25" d="M72 18C72 8.05888 63.9411 0 54 0H18C8.05888 0 0 8.05888 0 18V54C0 63.9411 8.05888 72 18 72H54C63.9411 72 72 63.9411 72 54V18Z" fill="url(#paint0_linear_7778_5579)"/>
<path id="Vector" d="M36 62L29.8217 59.058C20.7675 54.7464 15 45.612 15 35.5836V14H57V35.5836C57 45.612 51.2325 54.7464 42.1783 59.058L36 62Z" fill="url(#paint1_linear_7778_5579)"/>
<g id="symbol-stroke">
<path fill-rule="evenodd" clip-rule="evenodd" d="M37.6513 46.7709C38.5543 46.7712 39.1397 47.6877 38.8124 48.4896L38.7353 48.6478L37.1113 51.4594C36.6295 52.2935 35.4261 52.2934 34.9443 51.4594L33.3202 48.6478C32.839 47.8136 33.441 46.771 34.4042 46.7709H37.6513ZM36.0283 50.3363L37.2206 48.2709H34.8359L36.0283 50.3363Z" fill="white"/>
<path fill-rule="evenodd" clip-rule="evenodd" d="M23.747 41.0619C24.0986 40.1652 25.2894 39.9851 25.8906 40.7377L27.9159 43.2748L28.0165 43.4193C28.4311 44.1139 28.0738 45.0269 27.2978 45.2553L27.1259 45.2933L23.9159 45.7787C22.9634 45.9229 22.2121 44.9824 22.5634 44.0853L23.747 41.0619ZM24.1171 44.2318L26.4765 43.8734L24.9872 42.0082L24.1171 44.2318Z" fill="white"/>
<path fill-rule="evenodd" clip-rule="evenodd" d="M46.1513 40.7377C46.7525 39.9851 47.9434 40.1651 48.2949 41.0619L49.4784 44.0853L49.5312 44.2533C49.7349 45.0954 49.019 45.9138 48.1259 45.7787L44.9159 45.2933C43.9635 45.1491 43.5241 44.0276 44.1249 43.2748L46.1513 40.7377ZM45.5654 43.8734L47.9257 44.2308L47.0546 42.0092L45.5654 43.8734Z" fill="white"/>
<path fill-rule="evenodd" clip-rule="evenodd" d="M34.9169 24.1156C35.5639 23.8042 36.3178 23.8041 36.9648 24.1156L43.706 27.3617C44.353 27.6733 44.8235 28.2631 44.9833 28.9633L46.6474 36.2572C46.8072 36.9573 46.6399 37.6928 46.1923 38.2543L41.5273 44.1039L41.4404 44.2064C40.9942 44.705 40.3548 44.9925 39.6816 44.9926H32.2001L32.0654 44.9887C31.3974 44.9506 30.7742 44.6303 30.3544 44.1039L25.6894 38.2543C25.2696 37.7278 25.0963 37.0488 25.2079 36.389L25.2343 36.2572L26.8984 28.9633C27.0583 28.2631 27.5287 27.6733 28.1757 27.3617L34.9169 24.1156ZM36.3144 25.4672C36.0786 25.3536 35.8031 25.3538 35.5673 25.4672L28.8271 28.7133C28.5913 28.8268 28.4196 29.0422 28.3613 29.2973L26.6962 36.5912C26.638 36.8463 26.6992 37.1141 26.8622 37.3187L31.5273 43.1683C31.6905 43.373 31.9384 43.4926 32.2001 43.4926H39.6816C39.9432 43.4925 40.1913 43.3729 40.3544 43.1683L45.0195 37.3187C45.1823 37.1141 45.2437 36.8462 45.1855 36.5912L43.5204 29.2973C43.4622 29.0423 43.2911 28.8269 43.0556 28.7133L36.3144 25.4672Z" fill="white"/>
<path fill-rule="evenodd" clip-rule="evenodd" d="M23.2333 29.1889C24.0962 28.922 24.9271 29.6247 24.8515 30.4877L24.8242 30.6615L24.1034 33.8275C23.8898 34.7669 22.7399 35.1227 22.0331 34.4682L19.6513 32.2621C18.9451 31.6074 19.2118 30.4327 20.1318 30.1478L23.2333 29.1889ZM20.9872 31.4535L22.7372 33.0746L23.2665 30.7484L20.9872 31.4535Z" fill="white"/>
<path fill-rule="evenodd" clip-rule="evenodd" d="M47.1757 30.6615C46.9628 29.7226 47.8466 28.9047 48.7665 29.1889L51.8681 30.1478C52.731 30.4148 53.0193 31.4636 52.4697 32.1332L52.3486 32.2621L49.9667 34.4682C49.2599 35.1225 48.1101 34.7668 47.8964 33.8275L47.1757 30.6615ZM49.2646 33.0746L51.0136 31.4535L48.7343 30.7484L49.2646 33.0746Z" fill="white"/>
<path fill-rule="evenodd" clip-rule="evenodd" d="M41.9677 19.5238C42.7642 18.9818 43.8487 19.5054 43.9199 20.4662L44.1591 23.7035L44.1611 23.8803C44.1069 24.7445 43.1804 25.3155 42.3671 24.9232L39.4433 23.5121C38.5758 23.0933 38.4869 21.8921 39.2831 21.35L41.9677 19.5238ZM40.4833 22.348L42.6327 23.3851L42.456 21.0053L40.4833 22.348Z" fill="white"/>
<path fill-rule="evenodd" clip-rule="evenodd" d="M28.0146 20.4096C28.086 19.4492 29.1704 18.9258 29.9667 19.4672L32.6503 21.2933C33.3969 21.8014 33.3659 22.8884 32.6445 23.3676L32.4902 23.4555L29.5663 24.8666C28.6988 25.2847 27.7032 24.6074 27.7743 23.6469L28.0146 20.4096ZM29.3027 23.3285L31.4521 22.2914L29.4794 20.9486L29.3027 23.3285Z" fill="white"/>
</g>
</g>
<defs>
<linearGradient id="paint0_linear_7778_5579" x1="6.5" y1="3.5" x2="64" y2="67" gradientUnits="userSpaceOnUse">
<stop stop-color="#D6E16D"/>
<stop offset="1" stop-color="#A3B713"/>
</linearGradient>
<linearGradient id="paint1_linear_7778_5579" x1="20.1653" y1="19.0841" x2="46.9467" y2="56.84" gradientUnits="userSpaceOnUse">
<stop stop-color="#D6E16D"/>
<stop offset="1" stop-color="#A3B713"/>
</linearGradient>
</defs>
</svg>
