<svg width="72" height="72" viewBox="0 0 72 72" fill="none" xmlns="http://www.w3.org/2000/svg">
<g id="edge-cloud">
<path id="background" d="M72 18C72 8.05888 63.9411 0 54 0H18C8.05888 0 0 8.05888 0 18V54C0 63.9411 8.05888 72 18 72H54C63.9411 72 72 63.9411 72 54V18Z" fill="black"/>
<path id="surface" opacity="0.25" d="M72 18C72 8.05888 63.9411 0 54 0H18C8.05888 0 0 8.05888 0 18V54C0 63.9411 8.05888 72 18 72H54C63.9411 72 72 63.9411 72 54V18Z" fill="url(#paint0_linear_8045_483)"/>
<path id="symbol-stroke" fill-rule="evenodd" clip-rule="evenodd" d="M37.0312 11.292C38.8262 11.292 40.2812 12.7471 40.2812 14.542C40.2812 16.0786 39.2144 17.3644 37.7812 17.7031V37.6631L52.8232 22.6201C52.5171 22.1244 52.3398 21.5405 52.3398 20.915C52.3398 19.1201 53.7949 17.665 55.5898 17.665C57.3848 17.665 58.8398 19.1201 58.8398 20.915C58.8398 22.71 57.3848 24.165 55.5898 24.165C54.9639 24.165 54.3798 23.9873 53.8838 23.6807L37.7812 39.7842V56.4795H36.2812V47.6953L17.1777 28.5918C16.682 28.898 16.0981 29.0752 15.4727 29.0752C13.6777 29.0752 12.2227 27.6201 12.2227 25.8252C12.2227 24.0303 13.6777 22.5752 15.4727 22.5752C17.2676 22.5752 18.7227 24.0303 18.7227 25.8252C18.7227 26.4511 18.5449 27.0353 18.2383 27.5312L36.2812 45.5742V17.7031C34.8481 17.3644 33.7812 16.0786 33.7812 14.542C33.7812 12.7471 35.2363 11.292 37.0312 11.292ZM15.4727 24.0752C14.5062 24.0752 13.7227 24.8587 13.7227 25.8252C13.7227 26.7917 14.5062 27.5752 15.4727 27.5752C16.4392 27.5752 17.2227 26.7917 17.2227 25.8252C17.2227 24.8587 16.4392 24.0752 15.4727 24.0752ZM55.5898 19.165C54.6233 19.165 53.8398 19.9485 53.8398 20.915C53.8398 21.8815 54.6233 22.665 55.5898 22.665C56.5563 22.665 57.3398 21.8815 57.3398 20.915C57.3398 19.9485 56.5563 19.165 55.5898 19.165ZM37.0312 12.792C36.0648 12.792 35.2812 13.5755 35.2812 14.542C35.2812 15.5085 36.0648 16.292 37.0312 16.292C37.9977 16.292 38.7812 15.5085 38.7812 14.542C38.7812 13.5755 37.9977 12.792 37.0312 12.792Z" fill="white"/>
<path id="Vector" opacity="0.9" d="M51.9928 41.4021C51.9928 33.0754 45.2426 26.3252 36.9159 26.3252C31.2672 26.3252 26.3449 29.4322 23.7624 34.0299C23.1369 33.9227 22.495 33.8637 21.8389 33.8637C15.5939 33.8637 10.5312 38.9263 10.5312 45.1713C10.5312 51.4164 15.5939 56.479 21.8389 56.479H51.9928C56.1562 56.479 59.5312 53.1039 59.5312 48.9406C59.5312 44.7772 56.1562 41.4021 51.9928 41.4021Z" fill="url(#paint1_linear_8045_483)"/>
</g>
<defs>
<linearGradient id="paint0_linear_8045_483" x1="6.5" y1="3.5" x2="64" y2="67" gradientUnits="userSpaceOnUse">
<stop stop-color="#D6E16D"/>
<stop offset="1" stop-color="#A3B713"/>
</linearGradient>
<linearGradient id="paint1_linear_8045_483" x1="18.1793" y1="51.4259" x2="38.424" y2="21.0878" gradientUnits="userSpaceOnUse">
<stop stop-color="#A3B713"/>
<stop offset="1" stop-color="#D6E16D"/>
</linearGradient>
</defs>
</svg>
