<svg width="72" height="72" viewBox="0 0 72 72" fill="none" xmlns="http://www.w3.org/2000/svg">
<g id="kubernetes">
<path id="background" d="M72 18C72 8.05888 63.9411 0 54 0H18C8.05888 0 0 8.05888 0 18V54C0 63.9411 8.05888 72 18 72H54C63.9411 72 72 63.9411 72 54V18Z" fill="black"/>
<path id="surface" opacity="0.25" d="M72 18C72 8.05888 63.9411 0 54 0H18C8.05888 0 0 8.05888 0 18V54C0 63.9411 8.05888 72 18 72H54C63.9411 72 72 63.9411 72 54V18Z" fill="url(#paint0_linear_7778_5578)"/>
<path id="Polygon 1" d="M33.8305 18.045C35.2015 17.3848 36.7984 17.3848 38.1694 18.045L48.6853 23.1092C50.0563 23.7694 51.052 25.0179 51.3905 26.5014L53.9878 37.8806C54.3264 39.3641 53.971 40.921 53.0223 42.1107L45.745 51.2361C44.7963 52.4257 43.3575 53.1186 41.8359 53.1186H30.164C28.6424 53.1186 27.2036 52.4257 26.2549 51.2361L18.9776 42.1107C18.0289 40.921 17.6735 39.3641 18.0121 37.8806L20.6094 26.5014C20.9479 25.0179 21.9436 23.7694 23.3146 23.1092L33.8305 18.045Z" fill="url(#paint1_linear_7778_5578)"/>
<g id="symbol-stroke">
<path fill-rule="evenodd" clip-rule="evenodd" d="M38.7852 56.6855C40.0138 56.6858 40.7814 58.0159 40.167 59.0801L37.4278 63.8242C36.8133 64.8884 35.2775 64.8884 34.6631 63.8242L31.9238 59.0801C31.3096 58.0159 32.078 56.6857 33.3067 56.6855H38.7852ZM33.3067 58.1855C33.2327 58.1857 33.1859 58.2659 33.2227 58.3301L35.9619 63.0742C35.999 63.1384 36.0918 63.1384 36.1289 63.0742L38.8682 58.3301C38.9052 58.2659 38.8591 58.1858 38.7852 58.1855H33.3067Z" fill="white"/>
<path fill-rule="evenodd" clip-rule="evenodd" d="M15.8018 46.7246C16.2499 45.5805 17.7692 45.3506 18.5362 46.3105L21.9551 50.5918C22.7218 51.552 22.1613 52.982 20.9463 53.166L15.5293 53.9863C14.3146 54.1699 13.3558 52.9702 13.8037 51.8261L15.8018 46.7246ZM17.3643 47.247C17.318 47.1894 17.2265 47.2029 17.1992 47.2715L15.2012 52.373C15.1742 52.4419 15.2316 52.5145 15.3047 52.5039L20.7217 51.6836C20.795 51.6725 20.8284 51.5863 20.7822 51.5283L17.3643 47.247Z" fill="white"/>
<path fill-rule="evenodd" clip-rule="evenodd" d="M53.5322 46.3105C54.2991 45.3508 55.8173 45.5809 56.2656 46.7246L58.2637 51.8261C58.7118 52.9704 57.7531 54.1703 56.5381 53.9863L51.1221 53.166C49.9073 52.9818 49.3466 51.552 50.1133 50.5918L53.5322 46.3105ZM54.8692 47.2715C54.8418 47.2028 54.7503 47.1892 54.7041 47.247L51.2852 51.5283C51.2394 51.5862 51.2737 51.6723 51.3467 51.6836L56.7627 52.5039C56.8361 52.515 56.8943 52.4421 56.8672 52.373L54.8692 47.2715Z" fill="white"/>
<path fill-rule="evenodd" clip-rule="evenodd" d="M36 27.25C40.8325 27.25 44.75 31.1675 44.75 36C44.75 40.8325 40.8325 44.75 36 44.75C31.1676 44.75 27.25 40.8324 27.25 36C27.25 31.1675 31.1675 27.25 36 27.25ZM36 28.75C31.996 28.75 28.75 31.9959 28.75 36C28.75 40.004 31.996 43.25 36 43.25C40.0041 43.25 43.25 40.004 43.25 36C43.25 31.9959 40.0041 28.75 36 28.75Z" fill="white"/>
<path fill-rule="evenodd" clip-rule="evenodd" d="M14.6094 26.9931C15.7832 26.6304 16.91 27.674 16.6377 28.872L15.4219 34.2138C15.1494 35.412 13.6828 35.8661 12.7813 35.0312L8.76174 31.3076C7.86096 30.4724 8.20151 28.9755 9.37502 28.6123L14.6094 26.9931ZM15.0518 28.4258L9.81838 30.0449C9.74775 30.0669 9.72713 30.1576 9.78127 30.208L13.7998 33.9306C13.8542 33.981 13.9435 33.9541 13.96 33.8818L15.1748 28.539C15.1908 28.4669 15.1225 28.4039 15.0518 28.4258Z" fill="white"/>
<path fill-rule="evenodd" clip-rule="evenodd" d="M55.3623 28.872C55.0901 27.6741 56.217 26.6306 57.3906 26.9931L62.625 28.6123C63.7988 28.9755 64.1394 30.4724 63.2383 31.3076L59.2188 35.0312C58.3173 35.866 56.8506 35.412 56.5781 34.2138L55.3623 28.872ZM56.9483 28.4258C56.8777 28.4041 56.8093 28.4671 56.8252 28.539L58.0401 33.8818C58.0566 33.954 58.1458 33.9809 58.2002 33.9306L62.2188 30.208C62.2732 30.1576 62.2525 30.0668 62.1817 30.0449L56.9483 28.4258Z" fill="white"/>
<path fill-rule="evenodd" clip-rule="evenodd" d="M46.3594 10.6162C47.3753 9.92487 48.7586 10.592 48.8496 11.8174L49.2539 17.2812C49.3446 18.5067 48.0745 19.371 46.9678 18.8369L42.0342 16.4551C40.9278 15.9208 40.8144 14.3896 41.8301 13.6982L46.3594 10.6162ZM47.2031 11.8554L42.6738 14.9385C42.6129 14.9802 42.6201 15.0722 42.6865 15.1045L47.6201 17.4863C47.6869 17.5183 47.7633 17.4655 47.7578 17.3916L47.3535 11.9287C47.348 11.8549 47.2644 11.814 47.2031 11.8554Z" fill="white"/>
<path fill-rule="evenodd" clip-rule="evenodd" d="M23.0381 11.7236C23.1289 10.4984 24.5125 9.83081 25.5283 10.5215L30.0576 13.6045C31.0736 14.2958 30.9603 15.8271 29.8535 16.3613L24.9199 18.7431C23.8133 19.2771 22.5432 18.4128 22.6338 17.1875L23.0381 11.7236ZM24.6846 11.7617C24.6233 11.7205 24.5397 11.7612 24.5342 11.8349L24.1299 17.2978C24.1244 17.3717 24.2008 17.4237 24.2676 17.3916L29.2022 15.0107C29.2687 14.9783 29.2751 14.8854 29.2139 14.8437L24.6846 11.7617Z" fill="white"/>
</g>
</g>
<defs>
<linearGradient id="paint0_linear_7778_5578" x1="6.5" y1="3.5" x2="64" y2="67" gradientUnits="userSpaceOnUse">
<stop stop-color="#D6E16D"/>
<stop offset="1" stop-color="#A3B713"/>
</linearGradient>
<linearGradient id="paint1_linear_7778_5578" x1="21.5134" y1="20.3928" x2="40.7372" y2="55.3127" gradientUnits="userSpaceOnUse">
<stop stop-color="#D6E16D"/>
<stop offset="1" stop-color="#A3B713"/>
</linearGradient>
</defs>
</svg>
