<svg width="72" height="72" viewBox="0 0 72 72" fill="none" xmlns="http://www.w3.org/2000/svg">
<g id="container-registry">
<path id="background" d="M72 18C72 8.05888 63.9411 0 54 0H18C8.05888 0 0 8.05888 0 18V54C0 63.9411 8.05888 72 18 72H54C63.9411 72 72 63.9411 72 54V18Z" fill="black"/>
<path id="surface" opacity="0.25" d="M72 18C72 8.05888 63.9411 0 54 0H18C8.05888 0 0 8.05888 0 18V54C0 63.9411 8.05888 72 18 72H54C63.9411 72 72 63.9411 72 54V18Z" fill="url(#paint0_linear_7778_5564)"/>
<path id="gradient" d="M53 19H19V53H53V19Z" fill="url(#paint1_linear_7778_5564)"/>
<g id="symbol-stroke">
<path fill-rule="evenodd" clip-rule="evenodd" d="M25 59H13V47H25V59ZM14.5 57.5H23.5V48.5H14.5V57.5Z" fill="white"/>
<path fill-rule="evenodd" clip-rule="evenodd" d="M59 59H47V47H59V59ZM48.5 57.5H57.5V48.5H48.5V57.5Z" fill="white"/>
<path fill-rule="evenodd" clip-rule="evenodd" d="M25 25H13V13H25V25ZM14.5 23.5H23.5V14.5H14.5V23.5Z" fill="white"/>
<path fill-rule="evenodd" clip-rule="evenodd" d="M59 25H47V13H59V25ZM48.5 23.5H57.5V14.5H48.5V23.5Z" fill="white"/>
</g>
</g>
<defs>
<linearGradient id="paint0_linear_7778_5564" x1="6.5" y1="3.5" x2="64" y2="67" gradientUnits="userSpaceOnUse">
<stop stop-color="#66DBB7"/>
<stop offset="1" stop-color="#05AD7D"/>
</linearGradient>
<linearGradient id="paint1_linear_7778_5564" x1="47.6932" y1="47.3023" x2="23.054" y2="24.5801" gradientUnits="userSpaceOnUse">
<stop stop-color="#05AD7D"/>
<stop offset="1" stop-color="#66DBB7"/>
</linearGradient>
</defs>
</svg>
