<svg width="72" height="72" viewBox="0 0 72 72" fill="none" xmlns="http://www.w3.org/2000/svg">
<g id="git">
<path id="background" d="M72 18C72 8.05888 63.9411 0 54 0H18C8.05888 0 0 8.05888 0 18V54C0 63.9411 8.05888 72 18 72H54C63.9411 72 72 63.9411 72 54V18Z" fill="black"/>
<path id="surface" opacity="0.25" d="M72 18C72 8.05888 63.9411 0 54 0H18C8.05888 0 0 8.05888 0 18V54C0 63.9411 8.05888 72 18 72H54C63.9411 72 72 63.9411 72 54V18Z" fill="url(#paint0_linear_7778_5565)"/>
<path id="gradient" d="M33.9512 10C25.1304 10 17.9456 17.1795 18 26C13.5819 26.0001 10.0001 29.5819 10 34C10 38.4182 13.5818 41.9999 18 42H49C55.0751 42 60 37.0751 60 31C59.9999 24.9249 55.0751 19.9999 49 20H48.8281C46.4405 14.1369 40.6651 10.0001 33.9512 10Z" fill="url(#paint1_linear_7778_5565)"/>
<path id="symbol-stroke" fill-rule="evenodd" clip-rule="evenodd" d="M43.5 28.25C45.2949 28.25 46.75 29.7051 46.75 31.5C46.75 33.0366 45.6831 34.3224 44.25 34.6611V36.9502C44.25 40.0938 42.6013 43.0075 39.9062 44.626L30.25 50.4238V54.3379C31.6832 54.6765 32.75 55.9633 32.75 57.5C32.75 59.2949 31.2949 60.75 29.5 60.75C27.7051 60.75 26.25 59.2949 26.25 57.5C26.25 55.9633 27.3168 54.6765 28.75 54.3379V34.6611C27.3169 34.3224 26.25 33.0366 26.25 31.5C26.25 29.7051 27.7051 28.25 29.5 28.25C31.2949 28.25 32.75 29.7051 32.75 31.5C32.75 33.0366 31.6831 34.3224 30.25 34.6611V48.6748L39.1338 43.3398C41.3773 41.9926 42.75 39.5672 42.75 36.9502V34.6611C41.3169 34.3224 40.25 33.0366 40.25 31.5C40.25 29.7051 41.7051 28.25 43.5 28.25ZM29.5 55.75C28.5335 55.75 27.75 56.5335 27.75 57.5C27.75 58.4665 28.5335 59.25 29.5 59.25C30.4665 59.25 31.25 58.4665 31.25 57.5C31.25 56.5335 30.4665 55.75 29.5 55.75ZM29.5 29.75C28.5335 29.75 27.75 30.5335 27.75 31.5C27.75 32.4665 28.5335 33.25 29.5 33.25C30.4665 33.25 31.25 32.4665 31.25 31.5C31.25 30.5335 30.4665 29.75 29.5 29.75ZM43.5 29.75C42.5335 29.75 41.75 30.5335 41.75 31.5C41.75 32.4665 42.5335 33.25 43.5 33.25C44.4665 33.25 45.25 32.4665 45.25 31.5C45.25 30.5335 44.4665 29.75 43.5 29.75Z" fill="white"/>
</g>
<defs>
<linearGradient id="paint0_linear_7778_5565" x1="6.5" y1="3.5" x2="64" y2="67" gradientUnits="userSpaceOnUse">
<stop stop-color="#66DBB7"/>
<stop offset="1" stop-color="#05AD7D"/>
</linearGradient>
<linearGradient id="paint1_linear_7778_5565" x1="52.1959" y1="36.6375" x2="30.4003" y2="5.23154" gradientUnits="userSpaceOnUse">
<stop stop-color="#05AD7D"/>
<stop offset="1" stop-color="#66DBB7"/>
</linearGradient>
</defs>
</svg>
