<svg width="72" height="72" viewBox="0 0 72 72" fill="none" xmlns="http://www.w3.org/2000/svg">
  <path d="M72 18C72 8.05888 63.9411 0 54 0H18C8.05888 0 0 8.05888 0 18V54C0 63.9411 8.05888 72 18 72H54C63.9411 72 72 63.9411 72 54V18Z" fill="black"/>
  <path opacity="0.25" d="M72 18C72 8.05888 63.9411 0 54 0H18C8.05888 0 0 8.05888 0 18V54C0 63.9411 8.05888 72 18 72H54C63.9411 72 72 63.9411 72 54V18Z" fill="url(#bg)"/>
  <path d="M15 22H32L35 26H57V38H15V22Z" fill="url(#fg)"/>
  <path d="M12 36H30V51H12V36Z" fill="url(#fg)"/>
  <path d="M42 36H60V51H42V36Z" fill="url(#fg)"/>
  <path d="M36 32V38" stroke="white" stroke-width="3" stroke-linecap="round"/>
  <path d="M21 36V33H51V36" stroke="white" stroke-width="3" stroke-linecap="round"/>
  <defs>
    <linearGradient id="bg" x1="6" y1="4" x2="64" y2="67" gradientUnits="userSpaceOnUse">
      <stop stop-color="#9DB0FC"/>
      <stop offset="1" stop-color="#5371DE"/>
    </linearGradient>
    <linearGradient id="fg" x1="14" y1="20" x2="58" y2="52" gradientUnits="userSpaceOnUse">
      <stop stop-color="#9DB0FC"/>
      <stop offset="1" stop-color="#5371DE"/>
    </linearGradient>
  </defs>
</svg>
