<svg width="72" height="72" viewBox="0 0 72 72" fill="none" xmlns="http://www.w3.org/2000/svg">
  <path d="M72 18C72 8.05888 63.9411 0 54 0H18C8.05888 0 0 8.05888 0 18V54C0 63.9411 8.05888 72 18 72H54C63.9411 72 72 63.9411 72 54V18Z" fill="black"/>
  <path opacity="0.25" d="M72 18C72 8.05888 63.9411 0 54 0H18C8.05888 0 0 8.05888 0 18V54C0 63.9411 8.05888 72 18 72H54C63.9411 72 72 63.9411 72 54V18Z" fill="url(#bg)"/>
  <path d="M36 13L52 22V50H20V22L36 13Z" fill="url(#fg)"/>
  <path d="M28 31H32V50H28V31Z" fill="white"/>
  <path d="M34 31H38V50H34V31Z" fill="white"/>
  <path d="M40 31H44V50H40V31Z" fill="white"/>
  <path d="M24 26H48V30H24V26Z" fill="white"/>
  <path d="M34 40H38V50H34V40Z" fill="black"/>
  <defs>
    <linearGradient id="bg" x1="6" y1="4" x2="64" y2="67" gradientUnits="userSpaceOnUse">
      <stop stop-color="#9DB0FC"/>
      <stop offset="1" stop-color="#5371DE"/>
    </linearGradient>
    <linearGradient id="fg" x1="22" y1="16" x2="50" y2="52" gradientUnits="userSpaceOnUse">
      <stop stop-color="#9DB0FC"/>
      <stop offset="1" stop-color="#5371DE"/>
    </linearGradient>
  </defs>
</svg>
