<svg width="72" height="72" viewBox="0 0 72 72" fill="none" xmlns="http://www.w3.org/2000/svg">
  <path d="M72 18C72 8.05888 63.9411 0 54 0H18C8.05888 0 0 8.05888 0 18V54C0 63.9411 8.05888 72 18 72H54C63.9411 72 72 63.9411 72 54V18Z" fill="black"/>
  <path opacity="0.25" d="M72 18C72 8.05888 63.9411 0 54 0H18C8.05888 0 0 8.05888 0 18V54C0 63.9411 8.05888 72 18 72H54C63.9411 72 72 63.9411 72 54V18Z" fill="url(#bg)"/>
  <path d="M18 30H54L50 52H22L18 30Z" fill="url(#fg)"/>
  <path d="M24 24H48V30H24V24Z" fill="url(#fg)"/>
  <path d="M40 18L52 30" stroke="white" stroke-width="3" stroke-linecap="round"/>
  <path d="M31 38H41" stroke="white" stroke-width="3" stroke-linecap="round"/>
  <defs>
    <linearGradient id="bg" x1="6" y1="4" x2="64" y2="67" gradientUnits="userSpaceOnUse">
      <stop stop-color="#9DB0FC"/>
      <stop offset="1" stop-color="#5371DE"/>
    </linearGradient>
    <linearGradient id="fg" x1="20" y1="24" x2="50" y2="54" gradientUnits="userSpaceOnUse">
      <stop stop-color="#9DB0FC"/>
      <stop offset="1" stop-color="#5371DE"/>
    </linearGradient>
  </defs>
</svg>
