<svg width="72" height="72" viewBox="0 0 72 72" fill="none" xmlns="http://www.w3.org/2000/svg">
<g id="pubsub">
<path id="background" d="M72 18C72 8.05888 63.9411 0 54 0H18C8.05888 0 0 8.05888 0 18V54C0 63.9411 8.05888 72 18 72H54C63.9411 72 72 63.9411 72 54V18Z" fill="black"/>
<path id="surface" opacity="0.25" d="M72 18C72 8.05888 63.9411 0 54 0H18C8.05888 0 0 8.05888 0 18V54C0 63.9411 8.05888 72 18 72H54C63.9411 72 72 63.9411 72 54V18Z" fill="url(#paint0_linear_10019_121)"/>
<g id="symbol-stroke">
<path fill-rule="evenodd" clip-rule="evenodd" d="M55.1562 31.9896C55.1562 30.9539 55.9435 30.1026 56.9521 30.0003L57.1562 29.9896L63.5781 29.9896L63.7822 30.0003C64.7908 30.1027 65.5781 30.954 65.5781 31.9896V40.014L65.5674 40.2181C65.4718 41.1595 64.7236 41.9077 63.7822 42.0032L63.5781 42.014H57.1562L56.9521 42.0032C56.0107 41.9078 55.2626 41.1595 55.167 40.2181L55.1562 40.014V31.9896ZM56.6562 40.014C56.6564 40.29 56.8802 40.514 57.1562 40.514H63.5781C63.8541 40.5139 64.078 40.29 64.0781 40.014V31.9896C64.0781 31.7135 63.8542 31.4896 63.5781 31.4896H57.1562C56.8801 31.4896 56.6562 31.7134 56.6562 31.9896V40.014Z" fill="white"/>
<path fill-rule="evenodd" clip-rule="evenodd" d="M48.4902 19.4779C48.2222 18.4775 48.7621 17.451 49.71 17.0911L49.9043 17.0286L56.1074 15.3665L56.3076 15.3236C57.3083 15.1614 58.2886 15.7803 58.5566 16.7806L60.6338 24.5325L60.6768 24.7318C60.8281 25.6658 60.2987 26.5824 59.4141 26.9183L59.2197 26.9818L53.0166 28.6439L52.8174 28.6859C51.8834 28.8373 50.9669 28.3086 50.6309 27.4241L50.5674 27.2298L48.4902 19.4779ZM49.9395 19.0892L52.0166 26.8411C52.0882 27.1077 52.3623 27.2661 52.6289 27.1946L58.832 25.5325C59.0984 25.4609 59.2568 25.1867 59.1855 24.9202L57.1084 17.1683C57.0369 16.9019 56.7626 16.7436 56.4961 16.8148L50.293 18.4769C50.0263 18.5483 49.8681 18.8225 49.9395 19.0892Z" fill="white"/>
<path fill-rule="evenodd" clip-rule="evenodd" d="M49.707 54.9134C48.8224 54.5775 48.294 53.6609 48.4453 52.7269L48.4873 52.5277L50.5645 44.7757C50.8325 43.7755 51.8129 43.1567 52.8135 43.3187L53.0137 43.3616L59.2168 45.0238L59.4111 45.0863C60.3589 45.4461 60.8989 46.4727 60.6309 47.473L58.5537 55.2249L58.4912 55.4193C58.1553 56.3038 57.2387 56.8323 56.3047 56.681L56.1045 56.639L49.9014 54.9769L49.707 54.9134ZM49.9365 52.9154C49.8652 53.182 50.0234 53.4562 50.29 53.5277L56.4932 55.1898C56.7597 55.261 57.0339 55.1027 57.1055 54.8363L59.1826 47.0843C59.2537 46.8179 59.0954 46.5436 58.8291 46.472L52.626 44.8099C52.3594 44.7385 52.0853 44.897 52.0137 45.1634L49.9365 52.9154Z" fill="white"/>
<path fill-rule="evenodd" clip-rule="evenodd" d="M33.0938 31.9896C33.0938 30.9539 33.881 30.1026 34.8896 30.0003L35.0938 29.9896L41.5156 29.9896L41.7197 30.0003C42.7283 30.1027 43.5156 30.954 43.5156 31.9896V40.014L43.5049 40.2181C43.4093 41.1595 42.6611 41.9077 41.7197 42.0032L41.5156 42.014H35.0938L34.8896 42.0032C33.9482 41.9078 33.2001 41.1595 33.1045 40.2181L33.0938 40.014V31.9896ZM34.5938 40.014C34.5939 40.29 34.8177 40.514 35.0938 40.514H41.5156C41.7916 40.5139 42.0155 40.29 42.0156 40.014V31.9896C42.0156 31.7135 41.7917 31.4896 41.5156 31.4896H35.0938C34.8176 31.4896 34.5938 31.7134 34.5938 31.9896V40.014Z" fill="white"/>
<path d="M23.5928 36.0023L23.5879 36.5364V35.4759C23.5901 35.6505 23.5928 35.8262 23.5928 36.0023Z" fill="white"/>
<path fill-rule="evenodd" clip-rule="evenodd" d="M20.2695 31.9896C20.2695 30.9539 21.0568 30.1026 22.0654 30.0003L22.2695 29.9896H28.6914L28.8955 30.0003C29.9041 30.1027 30.6914 30.954 30.6914 31.9896V40.014L30.6807 40.2181C30.5851 41.1595 29.8369 41.9077 28.8955 42.0032L28.6914 42.014H22.2695L22.0654 42.0032C21.124 41.9078 20.3758 41.1595 20.2803 40.2181L20.2695 40.014V31.9896ZM21.7695 40.014C21.7697 40.29 21.9935 40.514 22.2695 40.514H28.6914C28.9674 40.5139 29.1913 40.29 29.1914 40.014V31.9896C29.1914 31.7135 28.9675 31.4896 28.6914 31.4896H22.2695C21.9934 31.4896 21.7695 31.7134 21.7695 31.9896V40.014Z" fill="white"/>
<path fill-rule="evenodd" clip-rule="evenodd" d="M7.44141 31.9896C7.44141 30.9539 8.22864 30.1026 9.2373 30.0003L9.44141 29.9896H13.667C14.4836 24.9635 16.2926 21.4679 18.3936 21.4632V22.9632C18.2851 22.9647 17.9843 23.0258 17.5215 23.5736C17.0583 24.1219 16.5731 25.0046 16.1367 26.2259C15.7538 27.2977 15.4316 28.5694 15.1895 29.9896H15.8633L16.0674 30.0003C17.076 30.1027 17.8633 30.954 17.8633 31.9896V40.014L17.8525 40.2181C17.757 41.1595 17.0088 41.9077 16.0674 42.0032L15.8633 42.014H15.1895C15.4317 43.4344 15.7537 44.7066 16.1367 45.7786C16.5731 47 17.0583 47.8826 17.5215 48.431C17.9843 48.9788 18.2851 49.0398 18.3936 49.0413V50.5413C16.2925 50.5366 14.4836 47.0405 13.667 42.014H9.44141L9.23731 42.0032C8.29584 41.9078 7.54771 41.1595 7.45215 40.2181L7.44141 40.014L7.44141 31.9896ZM8.94141 40.014C8.94154 40.29 9.16534 40.514 9.44141 40.514H15.8633C16.1393 40.5139 16.3632 40.29 16.3633 40.014V31.9896C16.3633 31.7135 16.1394 31.4896 15.8633 31.4896H9.44141C9.16527 31.4896 8.94141 31.7134 8.94141 31.9896L8.94141 40.014Z" fill="white"/>
</g>
<path id="Subtract" opacity="0.9" d="M43.1201 21.4619L43.1201 21.4756C43.191 21.4675 43.2624 21.4619 43.334 21.4619C46.2027 21.4623 48.5282 27.9718 48.5283 36.001C48.5283 44.0304 46.2028 50.5397 43.334 50.54C43.2624 50.54 43.191 50.5354 43.1201 50.5273L43.1201 50.54L18.4062 50.54C21.2718 50.5288 23.5937 44.0237 23.5937 36.001C23.5937 27.9784 21.2717 21.4732 18.4062 21.4619L43.1201 21.4619Z" fill="url(#paint1_linear_10019_121)"/>
</g>
<defs>
<linearGradient id="paint0_linear_10019_121" x1="6.5" y1="3.5" x2="64" y2="67" gradientUnits="userSpaceOnUse">
<stop stop-color="#F9CB99"/>
<stop offset="1" stop-color="#EF7C00"/>
</linearGradient>
<linearGradient id="paint1_linear_10019_121" x1="27.626" y1="54.0232" x2="27.8724" y2="10.4977" gradientUnits="userSpaceOnUse">
<stop stop-color="#EF7C00"/>
<stop offset="1" stop-color="#F9CB99"/>
</linearGradient>
</defs>
</svg>
