<svg width="72" height="72" viewBox="0 0 72 72" fill="none" xmlns="http://www.w3.org/2000/svg">
<g id="dremio">
<path id="background" d="M72 18C72 8.05888 63.9411 0 54 0H18C8.05888 0 0 8.05888 0 18V54C0 63.9411 8.05888 72 18 72H54C63.9411 72 72 63.9411 72 54V18Z" fill="black"/>
<path id="surface" opacity="0.25" d="M72 18C72 8.05888 63.9411 0 54 0H18C8.05888 0 0 8.05888 0 18V54C0 63.9411 8.05888 72 18 72H54C63.9411 72 72 63.9411 72 54V18Z" fill="url(#paint0_linear_10047_58)"/>
<path id="Vector" fill-rule="evenodd" clip-rule="evenodd" d="M22.7696 44.0997L22.1801 43.6919L21.9887 44.3845C21.1487 47.4263 18.999 49.8893 17.3891 50.4434C17.3867 50.4442 17.3869 50.4473 17.3846 50.4482C12.5792 52.4908 12.3087 43.7918 19.9692 36.0364C23.1424 32.8238 27.2573 30.6645 31.724 30.0569C34.1169 29.7315 36.732 30.4469 40.002 30.6798C43.3731 30.9199 45.4554 28.4314 47.0343 26.0946C47.7688 25.0075 46.5227 23.9468 45.4684 23.1058C44.7813 22.5577 43.9946 21.9421 43.4065 21.1443C40.358 17.0086 34.6001 15.5603 27.984 17.2861C19.8235 19.4147 10.3991 26.776 8.99201 37.9063C8.26852 43.629 9.8978 49.4492 13.6266 53.8562C14.45 54.8294 15.3277 55.6019 16.1594 56.364C18.0534 58.0994 19.8424 59.7389 20.9909 63.083L21.2355 63.7952L21.8052 63.3044C24.8533 60.6794 25.1322 57.4498 22.617 54.1606C24.1998 53.1333 25.2356 51.3919 25.3634 49.4828C25.5051 47.3667 24.5105 45.3039 22.7696 44.0997Z" fill="url(#paint1_linear_10047_58)"/>
<path id="symbol-stroke" d="M46.4024 27.0174C47.0188 27.0362 47.5547 27.3862 47.8233 28.0037C47.9942 28.3969 47.9521 28.8032 47.8789 29.1033C47.8028 29.4153 47.6677 29.7159 47.5352 29.9656C47.2689 30.4671 46.9489 30.88 46.8858 30.9608C43.4537 35.3505 37.41 38.0962 29.8516 40.699C26.8734 41.7246 24.2827 42.7217 22.1973 43.7059L22.1778 43.6922L22.1699 43.7186C21.1802 44.1866 20.3049 44.6521 19.5567 45.116C18.3899 45.8395 17.5904 46.5256 17.1387 47.1658C16.7047 47.7811 16.6143 48.3138 16.7725 48.8319C16.8702 49.1515 17.1277 49.5147 17.4737 49.6834C17.761 49.8234 18.2447 49.8956 19 49.3885L19.0059 49.3973C18.4511 49.9067 17.8925 50.2694 17.3867 50.4432L17.3819 50.4481C17.0079 50.607 16.6612 50.6999 16.3438 50.7342C15.8232 50.3263 15.4887 49.763 15.3379 49.2694C15.0152 48.2124 15.2754 47.2046 15.9131 46.3006C16.5333 45.4217 17.5275 44.6094 18.7656 43.8416C21.2477 42.3025 24.9457 40.8023 29.3633 39.2811C36.942 36.6712 42.5759 34.038 45.7041 30.0369C45.7522 29.9755 46.0076 29.6456 46.211 29.2625C46.3132 29.0699 46.3867 28.892 46.4219 28.7479C46.4444 28.6557 46.4433 28.6081 46.4424 28.5926C46.4299 28.5658 46.4195 28.5491 46.4121 28.5399C46.4042 28.5299 46.3975 28.5252 46.3975 28.5252C46.3975 28.5252 46.3941 28.5227 46.3897 28.5213C46.3848 28.5198 46.3739 28.517 46.3565 28.5164C46.2776 28.5142 46.0913 28.5574 45.8653 28.7586C44.837 29.6737 43.598 30.4378 42.0908 30.7664C40.5784 31.0961 38.8564 30.9739 36.8887 30.2137L37.4287 28.8143C39.1629 29.4843 40.5854 29.5592 41.7715 29.3006C42.9627 29.0409 43.9766 28.431 44.8682 27.6375C45.2926 27.2599 45.8366 27.0002 46.4024 27.0174Z" fill="white"/>
<path id="Vector_2" opacity="0.9" fill-rule="evenodd" clip-rule="evenodd" d="M26.691 44.1385L26.8881 43.5607C27.207 42.6252 27.67 38.5777 25.4461 37.481L25.3654 37.4412L25.3179 37.3646C25.1927 37.1622 25.1 36.8223 25.3698 36.3522C26.1755 34.949 30.1184 32.9669 32.6026 33.0359L33.3422 33.0582L32.8121 33.5761C32.0498 34.3215 31.7521 35.808 31.4368 37.3817C30.9035 40.0438 30.2992 43.0612 27.2744 43.9643L26.691 44.1385Z" fill="url(#paint2_linear_10047_58)"/>
<path id="symbol-stroke_2" d="M61.3016 10.887C61.6524 10.8278 62.2633 10.8197 62.6522 11.3284L62.7264 11.4368L62.7918 11.5569C63.0764 12.1534 62.7569 12.73 62.5613 13.0032C62.3151 13.347 61.9711 13.6435 61.6981 13.8381L61.6922 13.843L45.0633 25.4553L44.9578 25.5286L44.8338 25.5628C43.6135 25.8997 42.5552 25.253 41.993 24.3987C41.4337 23.5487 41.2473 22.3294 41.8904 21.301L41.9949 21.134L42.1688 21.0393L60.1404 11.2952L60.1619 11.2835L60.1844 11.2727C60.4933 11.1302 60.9058 10.9537 61.3016 10.887ZM43.0819 22.2503C42.9076 22.6567 42.972 23.1582 43.2459 23.5745C43.5283 24.0034 43.9323 24.1998 44.3309 24.136L60.7479 12.6712L43.0819 22.2503Z" fill="white"/>
<path id="symbol-stroke_3" d="M34.3208 27.09C35.0007 27.09 35.5518 26.5371 35.5518 25.8551C35.5518 25.173 35.0007 24.6201 34.3208 24.6201C33.641 24.6201 33.0898 25.173 33.0898 25.8551C33.0898 26.5371 33.641 27.09 34.3208 27.09Z" fill="white"/>
</g>
<defs>
<linearGradient id="paint0_linear_10047_58" x1="6.5" y1="3.5" x2="64" y2="67" gradientUnits="userSpaceOnUse">
<stop stop-color="#F6A3BF"/>
<stop offset="1" stop-color="#D15E89"/>
</linearGradient>
<linearGradient id="paint1_linear_10047_58" x1="13.0673" y1="21.0686" x2="39.6292" y2="59.4595" gradientUnits="userSpaceOnUse">
<stop stop-color="#F6A3BF"/>
<stop offset="1" stop-color="#D15E89"/>
</linearGradient>
<linearGradient id="paint2_linear_10047_58" x1="26.1005" y1="34.0917" x2="32.5417" y2="42.5149" gradientUnits="userSpaceOnUse">
<stop stop-color="#F6A3BF"/>
<stop offset="1" stop-color="#D15E89"/>
</linearGradient>
</defs>
</svg>
