<svg width="72" height="72" viewBox="0 0 72 72" fill="none" xmlns="http://www.w3.org/2000/svg">
<g id="intake">
<path id="background" d="M72 18C72 8.05888 63.9411 0 54 0H18C8.05888 0 0 8.05888 0 18V54C0 63.9411 8.05888 72 18 72H54C63.9411 72 72 63.9411 72 54V18Z" fill="black"/>
<path id="surface" opacity="0.25" d="M72 18C72 8.05888 63.9411 0 54 0H18C8.05888 0 0 8.05888 0 18V54C0 63.9411 8.05888 72 18 72H54C63.9411 72 72 63.9411 72 54V18Z" fill="url(#paint0_linear_10019_36)"/>
<g id="symbol-stroke">
<path d="M23.7324 46.3594C23.3074 47.0207 23.0605 47.8079 23.0605 48.6543V58.0342H21.5605V48.6543C21.5605 47.5119 21.8948 46.4448 22.4707 45.5488L23.7324 46.3594Z" fill="white"/>
<path d="M38.0889 17.833C38.028 17.9373 37.959 18.0622 37.8877 18.2129C37.4852 19.0641 37.0835 20.392 36.7314 22.1523C36.4407 23.6061 36.1956 25.3022 36.0068 27.1797H40.291V28.6797H35.8721C35.7738 29.9042 35.6989 31.1929 35.6514 32.5312H40.291V34.0312H35.6084C35.5956 34.6782 35.5889 35.3349 35.5889 36C35.5889 36.6674 35.5955 37.3264 35.6084 37.9756H40.291V39.4756H35.6514C35.6936 40.6608 35.7566 41.8071 35.8389 42.9043H40.291V44.4043H35.9658C36.1593 46.4477 36.4194 48.2872 36.7314 49.8477C37.0835 51.608 37.4852 52.9359 37.8877 53.7871C37.9591 53.9382 38.0279 54.0635 38.0889 54.168V56C36.4802 55.9995 35.094 51.2509 34.459 44.4043H27.3105C26.5471 44.4043 25.8326 44.6051 25.2148 44.9561L24.8447 44.3037L24.4736 43.6514C25.3113 43.1755 26.2805 42.9043 27.3105 42.9043H34.334C34.253 41.8036 34.1918 40.6574 34.1504 39.4756H29.502V37.9756H34.1084C34.0957 37.3257 34.0889 36.6666 34.0889 36C34.0889 35.3357 34.0957 34.6789 34.1084 34.0312H19.7119V32.5312H34.1494C34.4779 23.1393 36.1164 16.0006 38.0889 16V17.833Z" fill="white"/>
<path d="M26.7119 39.4756H9.13281V37.9756H26.7119V39.4756Z" fill="white"/>
<path d="M16.9229 34.0312H9.13281V32.5312H16.9229V34.0312Z" fill="white"/>
<path d="M23.0605 22.9297C23.0606 25.2768 24.9634 27.1796 27.3105 27.1797H31.3008V28.6797H27.3105C24.135 28.6796 21.5606 26.1052 21.5605 22.9297V19.7402H23.0605V22.9297Z" fill="white"/>
<path d="M23.0605 17.2129H21.5605V11.5508H23.0605V17.2129Z" fill="white"/>
</g>
<path id="Subtract" d="M53.0859 16L53.1895 16.0068C55.3507 16.2817 57.0859 25.1276 57.0859 36C57.0859 47.0455 55.295 55.9997 53.0859 56H38.0859C40.2951 56 42.0859 47.0457 42.0859 36C42.0859 24.9543 40.2951 16 38.0859 16L53.0859 16Z" fill="url(#paint1_linear_10019_36)"/>
</g>
<defs>
<linearGradient id="paint0_linear_10019_36" x1="6.5" y1="3.5" x2="64" y2="67" gradientUnits="userSpaceOnUse">
<stop stop-color="#F6A3BF"/>
<stop offset="1" stop-color="#D15E89"/>
</linearGradient>
<linearGradient id="paint1_linear_10019_36" x1="40.197" y1="19.8095" x2="63.91" y2="39.8863" gradientUnits="userSpaceOnUse">
<stop stop-color="#F6A3BF"/>
<stop offset="1" stop-color="#D15E89"/>
</linearGradient>
</defs>
</svg>
