<svg width="72" height="72" viewBox="0 0 72 72" fill="none" xmlns="http://www.w3.org/2000/svg">
<g id="model-serving">
<path id="background" d="M72 18C72 8.05888 63.9411 0 54 0H18C8.05888 0 0 8.05888 0 18V54C0 63.9411 8.05888 72 18 72H54C63.9411 72 72 63.9411 72 54V18Z" fill="black"/>
<path id="surface" opacity="0.25" d="M72 18C72 8.05888 63.9411 0 54 0H18C8.05888 0 0 8.05888 0 18V54C0 63.9411 8.05888 72 18 72H54C63.9411 72 72 63.9411 72 54V18Z" fill="url(#paint0_linear_7778_5593)"/>
<path id="symbol-stroke" fill-rule="evenodd" clip-rule="evenodd" d="M47.5773 8.55273C47.9206 8.69493 48.1088 8.97751 48.2082 9.2168C48.3064 9.45379 48.3505 9.72046 48.3683 9.97949C48.4041 10.5014 48.3455 11.1745 48.2228 11.9512C47.9753 13.5172 47.4362 15.675 46.6623 18.2559C46.6013 18.459 46.5377 18.6645 46.4738 18.873C47.7143 18.5477 48.9111 18.287 50.0539 18.0947C52.9143 17.6135 55.4766 17.548 57.549 17.9658C59.62 18.3834 61.2934 19.3058 62.1994 20.875L60.8996 21.625C60.2868 20.5638 59.0833 19.8056 57.2531 19.4365C55.4241 19.0678 53.0596 19.1102 50.3019 19.5742C48.9285 19.8053 47.4674 20.1385 45.9396 20.5723C44.3791 25.4239 42.1446 31.4687 39.466 37.9355C39.4204 38.0456 39.3738 38.155 39.3283 38.2646L57.7453 56.6826L56.6847 57.7432L38.7013 39.7598C35.8325 46.5561 32.9903 52.5736 30.6388 56.9395C29.3611 59.3118 28.2167 61.2186 27.2843 62.501C26.822 63.1369 26.3877 63.6543 25.9933 63.998C25.7976 64.1686 25.5779 64.3258 25.341 64.4238C25.1015 64.5228 24.7683 64.5895 24.4249 64.4473L24.9992 63.0615C24.8486 62.9992 24.7451 63.0469 24.7667 63.0381C24.7929 63.0273 24.8721 62.9837 25.007 62.8662C25.274 62.6334 25.6314 62.2244 26.0714 61.6191C26.9447 60.418 28.0518 58.5803 29.3185 56.2285C31.7059 51.7959 34.6208 45.6116 37.5568 38.6152L27.8849 28.9434C22.2552 32.5367 17.6617 36.496 14.6261 40.1719C12.8456 42.328 11.6275 44.3538 11.0324 46.1221C10.4368 47.8919 10.4909 49.3136 11.1037 50.375L9.80483 51.125C8.89889 49.5559 8.93573 47.6458 9.60952 45.6436C10.2839 43.64 11.622 41.4533 13.4689 39.2168C16.5725 35.4586 21.1913 31.4702 26.799 27.8574L14.2589 15.3174L15.3195 14.2559L28.1007 27.0371C28.7642 26.6277 29.4391 26.2214 30.1271 25.8242C35.1727 22.9112 40.2069 20.7283 44.7511 19.3604C44.9177 18.8319 45.0771 18.3198 45.2257 17.8242C45.993 15.2656 46.5095 13.1836 46.7414 11.7168C46.8582 10.9776 46.8955 10.4355 46.8712 10.082C46.859 9.90391 46.8333 9.81729 46.8224 9.79102C46.8132 9.76915 46.8532 9.87598 47.0041 9.93848L47.5773 8.55273ZM44.1876 21.1074C40.0366 22.4472 35.4736 24.4693 30.8771 27.123C30.3057 27.4529 29.7441 27.7898 29.1906 28.1279L38.1798 37.1172C40.6225 31.2052 42.684 25.6697 44.1876 21.1074Z" fill="white"/>
<path id="Polygon 2" opacity="0.9" d="M36 15L54 25.5V46.5L36 57L18 46.5V25.5L36 15Z" fill="url(#paint1_linear_7778_5593)"/>
<path id="symbol-stroke_2" d="M46.6621 8.57687C46.9016 8.47789 47.2348 8.41122 47.5781 8.55344L47.0039 9.93918C47.1547 10.0016 47.2583 9.95364 47.2363 9.96262C47.2101 9.97344 47.131 10.017 46.9961 10.1345C46.729 10.3673 46.3717 10.7763 45.9316 11.3816C45.0584 12.5827 43.9521 14.4206 42.6855 16.7722C40.1564 21.4679 37.0337 28.1291 33.9229 35.6394C31.6338 41.1656 29.6745 46.3712 28.1885 50.7712C32.2393 49.4318 36.6674 47.4523 41.127 44.8777C48.1249 40.8374 53.8204 36.1368 57.3779 31.8288C59.1584 29.6728 60.3765 27.6468 60.9717 25.8786C61.5672 24.109 61.513 22.687 60.9004 21.6257L62.1992 20.8757C63.1051 22.4449 63.0674 24.3549 62.3936 26.3571C61.7192 28.3608 60.3811 30.5473 58.5342 32.7839C54.8359 37.2622 48.9885 42.0706 41.877 46.1765C36.9611 49.0146 32.0561 51.1602 27.6045 52.5339C27.3041 53.4595 27.0276 54.3421 26.7773 55.1765C26.0101 57.735 25.4935 59.8171 25.2617 61.2839C25.1449 62.0231 25.1076 62.5652 25.1318 62.9187C25.1441 63.0968 25.1698 63.1835 25.1807 63.2097C25.1898 63.2316 25.1499 63.1247 24.999 63.0622L24.4258 64.448C24.0825 64.3058 23.8943 64.0232 23.7949 63.7839C23.6967 63.5469 23.6525 63.2802 23.6348 63.0212C23.599 62.4993 23.6576 61.8262 23.7803 61.0495C24.0278 59.4835 24.5668 57.3258 25.3408 54.7448C25.5056 54.1955 25.682 53.6262 25.8682 53.0378C24.5069 53.4055 23.1964 53.6963 21.9502 53.906C19.0899 54.3872 16.5274 54.4526 14.4551 54.0349C12.3841 53.6173 10.7107 52.6948 9.80469 51.1257L11.1035 50.3757C11.7163 51.437 12.9206 52.1951 14.751 52.5642C16.5799 52.9329 18.9436 52.8904 21.7012 52.4265C23.1824 52.1773 24.7648 51.8057 26.4238 51.321C27.9599 46.671 30.0586 41.0488 32.5371 35.0652C35.661 27.5234 38.8044 20.8141 41.3643 16.0612C42.642 13.6889 43.7864 11.7821 44.7188 10.4997C45.1811 9.8638 45.6154 9.34638 46.0098 9.00266C46.2054 8.83213 46.4251 8.67496 46.6621 8.57687Z" fill="white"/>
</g>
<defs>
<linearGradient id="paint0_linear_7778_5593" x1="6.5" y1="3.5" x2="64" y2="67" gradientUnits="userSpaceOnUse">
<stop stop-color="#F6A3BF"/>
<stop offset="1" stop-color="#D15E89"/>
</linearGradient>
<linearGradient id="paint1_linear_7778_5593" x1="22" y1="19" x2="45.1351" y2="54.346" gradientUnits="userSpaceOnUse">
<stop stop-color="#F6A3BF"/>
<stop offset="1" stop-color="#D15E89"/>
</linearGradient>
</defs>
</svg>
