<svg width="72" height="72" viewBox="0 0 72 72" fill="none" xmlns="http://www.w3.org/2000/svg">
<g id="notebooks">
<path id="background" d="M72 18C72 8.05888 63.9411 0 54 0H18C8.05888 0 0 8.05888 0 18V54C0 63.9411 8.05888 72 18 72H54C63.9411 72 72 63.9411 72 54V18Z" fill="black"/>
<path id="surface" opacity="0.25" d="M72 18C72 8.05888 63.9411 0 54 0H18C8.05888 0 0 8.05888 0 18V54C0 63.9411 8.05888 72 18 72H54C63.9411 72 72 63.9411 72 54V18Z" fill="url(#paint0_linear_10302_2234)"/>
<path id="symbol-stroke" fill-rule="evenodd" clip-rule="evenodd" d="M55 12C57.2091 12 59 13.7909 59 16V56C59 58.14 57.3194 59.8879 55.2061 59.9951L55 60H47C48.2628 60 49.388 59.414 50.1211 58.5H51C52.3807 58.5 53.5 57.3807 53.5 56V16C53.5 14.6193 52.3807 13.5 51 13.5H50.1211C49.388 12.586 48.2628 12 47 12H55ZM54.1211 13.5C54.6704 14.1849 55 15.0537 55 16V56C55 56.946 54.6711 57.8151 54.1221 58.5H55C56.3807 58.5 57.5 57.3807 57.5 56V16C57.5 14.6193 56.3807 13.5 55 13.5H54.1211Z" fill="white"/>
<path id="Rectangle 1119" d="M15 16C15 13.7909 16.7909 12 19 12H47C49.2091 12 51 13.7909 51 16V56C51 58.2091 49.2091 60 47 60H19C16.7909 60 15 58.2091 15 56V16Z" fill="url(#paint1_linear_10302_2234)"/>
<g id="symbol-stroke_2">
<path d="M17 52.75H13V51.25H17V52.75Z" fill="white"/>
<path d="M17 48.75H13V47.25H17V48.75Z" fill="white"/>
<path d="M17 44.75H13V43.25H17V44.75Z" fill="white"/>
<path d="M36.1689 31.335L31.1689 41.335L29.8271 40.665L34.8271 30.665L36.1689 31.335Z" fill="white"/>
<path d="M17 40.75H13V39.25H17V40.75Z" fill="white"/>
<path d="M28.0283 32.5303L24.5586 36L28.0283 39.4697L26.9678 40.5303L22.4375 36L26.9678 31.4697L28.0283 32.5303Z" fill="white"/>
<path d="M43.5586 36L39.0283 40.5303L37.9678 39.4697L41.4375 36L37.9678 32.5303L39.0283 31.4697L43.5586 36Z" fill="white"/>
<path d="M17 36.75H13V35.25H17V36.75Z" fill="white"/>
<path d="M17 32.75H13V31.25H17V32.75Z" fill="white"/>
<path d="M17 28.75H13V27.25H17V28.75Z" fill="white"/>
<path d="M17 24.75H13V23.25H17V24.75Z" fill="white"/>
<path d="M17 20.75H13V19.25H17V20.75Z" fill="white"/>
</g>
</g>
<defs>
<linearGradient id="paint0_linear_10302_2234" x1="6.5" y1="3.5" x2="64" y2="67" gradientUnits="userSpaceOnUse">
<stop stop-color="#F6A3BF"/>
<stop offset="1" stop-color="#D15E89"/>
</linearGradient>
<linearGradient id="paint1_linear_10302_2234" x1="19" y1="16.5714" x2="46.6763" y2="53.5699" gradientUnits="userSpaceOnUse">
<stop stop-color="#F6A3BF"/>
<stop offset="1" stop-color="#D15E89"/>
</linearGradient>
</defs>
</svg>
