<svg width="72" height="72" viewBox="0 0 72 72" fill="none" xmlns="http://www.w3.org/2000/svg">
<g id="workflows">
<path id="background" d="M72 18C72 8.05888 63.9411 0 54 0H18C8.05888 0 0 8.05888 0 18V54C0 63.9411 8.05888 72 18 72H54C63.9411 72 72 63.9411 72 54V18Z" fill="black"/>
<path id="surface" opacity="0.25" d="M72 18C72 8.05888 63.9411 0 54 0H18C8.05888 0 0 8.05888 0 18V54C0 63.9411 8.05888 72 18 72H54C63.9411 72 72 63.9411 72 54V18Z" fill="url(#paint0_linear_8026_492)"/>
<path id="Rectangle 890" d="M26 31C26 29.3431 27.3431 28 29 28H43C44.6569 28 46 29.3431 46 31V41C46 42.6569 44.6569 44 43 44H29C27.3431 44 26 42.6569 26 41V31Z" fill="url(#paint1_linear_8026_492)"/>
<g id="symbol-stroke">
<path d="M36 56.25H31V54.75H36V56.25Z" fill="white"/>
<path d="M41 53.25H31V51.75H41V53.25Z" fill="white"/>
<path fill-rule="evenodd" clip-rule="evenodd" d="M43 46C44.6569 46 46 47.3431 46 49V59C46 60.6051 44.7394 61.9158 43.1543 61.9961L43 62H29L28.8457 61.9961C27.2606 61.9158 26 60.6051 26 59V49C26 47.3431 27.3431 46 29 46H43ZM29 47.5C28.1716 47.5 27.5 48.1716 27.5 49V59C27.5 59.8284 28.1716 60.5 29 60.5H43C43.8284 60.5 44.5 59.8284 44.5 59V49C44.5 48.1716 43.8284 47.5 43 47.5H29Z" fill="white"/>
<path d="M26 36.75H20C15.4437 36.75 11.75 40.4437 11.75 45C11.75 49.5564 15.4437 53.25 20 53.25H21.8467L20.2979 51.7021L21.3584 50.6416L24.7178 54L21.3584 57.3584L20.2979 56.2979L21.8467 54.75H20C14.6152 54.75 10.25 50.3848 10.25 45C10.25 39.6152 14.6152 35.25 20 35.25H26V36.75Z" fill="white"/>
<path d="M36 20.25H31V18.75H36V20.25Z" fill="white"/>
<path d="M41 17.25H31V15.75H41V17.25Z" fill="white"/>
<path fill-rule="evenodd" clip-rule="evenodd" d="M43 10C44.6569 10 46 11.3431 46 13V17.25H52C57.3848 17.25 61.75 21.6152 61.75 27C61.75 32.3848 57.3848 36.75 52 36.75H50.1533L51.7021 38.2979L50.6416 39.3584L47.2822 36L50.6416 32.6416L51.7021 33.7021L50.1533 35.25H52C56.5564 35.25 60.25 31.5563 60.25 27C60.25 22.4437 56.5564 18.75 52 18.75H46V23C46 24.6051 44.7394 25.9158 43.1543 25.9961L43 26H29L28.8457 25.9961C27.2606 25.9158 26 24.6051 26 23V13C26 11.3431 27.3431 10 29 10H43ZM29 11.5C28.1716 11.5 27.5 12.1716 27.5 13V23C27.5 23.8284 28.1716 24.5 29 24.5H43C43.8284 24.5 44.5 23.8284 44.5 23V13C44.5 12.1716 43.8284 11.5 43 11.5H29Z" fill="white"/>
<path d="M36 38.25H31V36.75H36V38.25Z" fill="white"/>
<path d="M41 35.25H31V33.75H41V35.25Z" fill="white"/>
</g>
</g>
<defs>
<linearGradient id="paint0_linear_8026_492" x1="6.5" y1="3.5" x2="64" y2="67" gradientUnits="userSpaceOnUse">
<stop stop-color="#F6A3BF"/>
<stop offset="1" stop-color="#D15E89"/>
</linearGradient>
<linearGradient id="paint1_linear_8026_492" x1="28.2222" y1="29.5238" x2="35.4074" y2="45.5327" gradientUnits="userSpaceOnUse">
<stop stop-color="#F6A3BF"/>
<stop offset="1" stop-color="#D15E89"/>
</linearGradient>
</defs>
</svg>
