<svg width="72" height="72" viewBox="0 0 72 72" fill="none" xmlns="http://www.w3.org/2000/svg">
<g id="assume-role">
<path id="background" d="M72 18C72 8.05888 63.9411 0 54 0H18C8.05888 0 0 8.05888 0 18V54C0 63.9411 8.05888 72 18 72H54C63.9411 72 72 63.9411 72 54V18Z" fill="black"/>
<path id="surface" opacity="0.25" d="M72 18C72 8.05888 63.9411 0 54 0H18C8.05888 0 0 8.05888 0 18V54C0 63.9411 8.05888 72 18 72H54C63.9411 72 72 63.9411 72 54V18Z" fill="url(#paint0_linear_8037_416)"/>
<path id="Ellipse 456" d="M29 26C29 29.866 32.134 33 36 33C39.866 33 43 29.866 43 26C43 22.134 39.866 19 36 19C32.134 19 29 22.134 29 26Z" fill="url(#paint1_linear_8037_416)"/>
<path id="Rectangle 861" d="M23 48C23 40.8203 28.8203 35 36 35C43.1797 35 49 40.8203 49 48V52H23V48Z" fill="url(#paint2_linear_8037_416)"/>
<path id="symbol-stroke" d="M14.5 48.9639V57.5H23.0361V59H13V48.9639H14.5ZM59 48.9639V59H48.9639V57.5H57.5V48.9639H59ZM23.0361 13V14.5H14.5V23.0361H13V13H23.0361ZM59 13V23.0361H57.5V14.5H48.9639V13H59Z" fill="white"/>
</g>
<defs>
<linearGradient id="paint0_linear_8037_416" x1="6.5" y1="3.5" x2="64" y2="67" gradientUnits="userSpaceOnUse">
<stop stop-color="#69B6EA"/>
<stop offset="1" stop-color="#0979C5"/>
</linearGradient>
<linearGradient id="paint1_linear_8037_416" x1="41.406" y1="31.9548" x2="31.5427" y2="19.5782" gradientUnits="userSpaceOnUse">
<stop stop-color="#0979C5"/>
<stop offset="1" stop-color="#69B6EA"/>
</linearGradient>
<linearGradient id="paint2_linear_8037_416" x1="49" y1="52" x2="24.3086" y2="43.2119" gradientUnits="userSpaceOnUse">
<stop stop-color="#0979C5"/>
<stop offset="1" stop-color="#69B6EA"/>
</linearGradient>
</defs>
</svg>
