<svg width="72" height="72" viewBox="0 0 72 72" fill="none" xmlns="http://www.w3.org/2000/svg">
<g id="service-account">
<path id="background" d="M72 18C72 8.05888 63.9411 0 54 0H18C8.05888 0 0 8.05888 0 18V54C0 63.9411 8.05888 72 18 72H54C63.9411 72 72 63.9411 72 54V18Z" fill="black"/>
<path id="surface" opacity="0.25" d="M72 18C72 8.05888 63.9411 0 54 0H18C8.05888 0 0 8.05888 0 18V54C0 63.9411 8.05888 72 18 72H54C63.9411 72 72 63.9411 72 54V18Z" fill="url(#paint0_linear_7778_5591)"/>
<path id="symbol-stroke" d="M54.25 20.5234L36 13.7998L17.75 20.5234V35.6758C17.75 40.9228 19.5863 46.069 22.9219 50.1621C26.2217 54.2113 30.8614 57.0724 36 58.2305C41.1385 57.0724 45.7783 54.2113 49.0781 50.1621C52.4137 46.069 54.25 40.9228 54.25 35.6758V20.5234ZM55.75 35.6758C55.75 41.2703 53.7926 46.7503 50.2402 51.1094C46.69 55.4658 41.6908 58.5264 36.1602 59.7324L36 59.7676L35.8398 59.7324C30.3091 58.5264 25.31 55.4658 21.7598 51.1094C18.2074 46.7503 16.25 41.2703 16.25 35.6758V19.4766L35.7402 12.2959L36 12.2012L36.2598 12.2959L55.75 19.4766V35.6758Z" fill="white"/>
<path id="Ellipse 456" d="M28 34C28 38.4183 31.5817 42 36 42C40.4183 42 44 38.4183 44 34C44 29.5817 40.4183 26 36 26C31.5817 26 28 29.5817 28 34Z" fill="url(#paint1_linear_7778_5591)"/>
<path id="Rectangle 861" opacity="0.9" d="M22 58C22 50.268 28.268 44 36 44C43.732 44 50 50.268 50 58V62H22V58Z" fill="url(#paint2_linear_7778_5591)"/>
</g>
<defs>
<linearGradient id="paint0_linear_7778_5591" x1="6.5" y1="3.5" x2="64" y2="67" gradientUnits="userSpaceOnUse">
<stop stop-color="#69B6EA"/>
<stop offset="1" stop-color="#0979C5"/>
</linearGradient>
<linearGradient id="paint1_linear_7778_5591" x1="42.1783" y1="40.8054" x2="30.9059" y2="26.6608" gradientUnits="userSpaceOnUse">
<stop stop-color="#0979C5"/>
<stop offset="1" stop-color="#69B6EA"/>
</linearGradient>
<linearGradient id="paint2_linear_7778_5591" x1="39.5" y1="63.5" x2="27" y2="45" gradientUnits="userSpaceOnUse">
<stop stop-color="#0979C5"/>
<stop offset="1" stop-color="#69B6EA"/>
</linearGradient>
</defs>
</svg>
