<svg width="72" height="72" viewBox="0 0 72 72" fill="none" xmlns="http://www.w3.org/2000/svg">
<g id="help-center">
<path id="background" d="M72 18C72 8.05888 63.9411 0 54 0H18C8.05888 0 0 8.05888 0 18V54C0 63.9411 8.05888 72 18 72H54C63.9411 72 72 63.9411 72 54V18Z" fill="black"/>
<path id="surface" opacity="0.25" d="M72 18C72 8.05888 63.9411 0 54 0H18C8.05888 0 0 8.05888 0 18V54C0 63.9411 8.05888 72 18 72H54C63.9411 72 72 63.9411 72 54V18Z" fill="url(#paint0_linear_8029_950)"/>
<path id="symbol-stroke" d="M59.5 36C59.5 23.0213 48.9787 12.5 36 12.5C23.0213 12.5 12.5 23.0213 12.5 36C12.5 48.9787 23.0213 59.5 36 59.5V61C22.1929 61 11 49.8071 11 36C11 22.1929 22.1929 11 36 11C49.8071 11 61 22.1929 61 36C61 49.8071 49.8071 61 36 61V59.5C48.9787 59.5 59.5 48.9787 59.5 36ZM48.5 36C48.5 29.0964 42.9036 23.5 36 23.5C29.0964 23.5 23.5 29.0964 23.5 36C23.5 42.9036 29.0964 48.5 36 48.5C42.9036 48.5 48.5 42.9036 48.5 36ZM50 36C50 43.732 43.732 50 36 50C28.268 50 22 43.732 22 36C22 28.268 28.268 22 36 22C43.732 22 50 28.268 50 36Z" fill="white"/>
<path id="Subtract" opacity="0.9" d="M61 36C61 49.8071 49.8071 61 36 61V48.5C42.9036 48.5 48.5 42.9036 48.5 36H61ZM36 23.5C29.0964 23.5 23.5 29.0964 23.5 36H11C11 22.1929 22.1929 11 36 11V23.5Z" fill="url(#paint1_linear_8029_950)"/>
</g>
<defs>
<linearGradient id="paint0_linear_8029_950" x1="6.5" y1="3.5" x2="64" y2="67" gradientUnits="userSpaceOnUse">
<stop stop-color="#BFE881"/>
<stop offset="1" stop-color="#83BF30"/>
</linearGradient>
<linearGradient id="paint1_linear_8029_950" x1="46.1606" y1="51.0547" x2="8.69082" y2="9.66368" gradientUnits="userSpaceOnUse">
<stop stop-color="#83BF30"/>
<stop offset="1" stop-color="#BFE881"/>
</linearGradient>
</defs>
</svg>
