<svg width="72" height="72" viewBox="0 0 72 72" fill="none" xmlns="http://www.w3.org/2000/svg">
<g id="support-plans">
<path id="background" d="M72 18C72 8.05888 63.9411 0 54 0H18C8.05888 0 0 8.05888 0 18V54C0 63.9411 8.05888 72 18 72H54C63.9411 72 72 63.9411 72 54V18Z" fill="black"/>
<path id="surface" opacity="0.25" d="M72 18C72 8.05888 63.9411 0 54 0H18C8.05888 0 0 8.05888 0 18V54C0 63.9411 8.05888 72 18 72H54C63.9411 72 72 63.9411 72 54V18Z" fill="url(#paint0_linear_9573_23)"/>
<path id="symbol-stroke" fill-rule="evenodd" clip-rule="evenodd" d="M59 17C61.2091 17 63 18.7909 63 21V51L62.9951 51.2061C62.8879 53.3194 61.14 55 59 55H13L12.7939 54.9951C10.7488 54.8913 9.10865 53.2512 9.00488 51.2061L9 51V21C9 18.86 10.6806 17.1121 12.7939 17.0049L13 17H59ZM13 18.5996C11.6745 18.5996 10.5996 19.6745 10.5996 21V51C10.5996 52.3255 11.6745 53.4004 13 53.4004H59C60.3255 53.4004 61.4004 52.3255 61.4004 51V21C61.4004 19.6745 60.3255 18.5996 59 18.5996H13Z" fill="white"/>
<path id="Rectangle 1065" d="M54 57C54 59.7614 51.7614 62 49 62H22.9964C20.235 62 17.9964 59.7614 17.9964 57V15C17.9964 12.2386 20.235 10 22.9964 10H49C51.7614 10 54 12.2386 54 15V57Z" fill="url(#paint1_linear_9573_23)"/>
<g id="symbol-stroke_2">
<path d="M41 55.002H25V53.502H41V55.002Z" fill="white"/>
<path d="M31 51.002H25V49.502H31V51.002Z" fill="white"/>
<path d="M47 51.002H33V49.502H47V51.002Z" fill="white"/>
<path d="M47 47.002H25V45.502H47V47.002Z" fill="white"/>
<path fill-rule="evenodd" clip-rule="evenodd" d="M36 19C37.6569 19 39 20.3431 39 22V25H42C43.6569 25 45 26.3431 45 28C45 29.6569 43.6569 31 42 31H39V34C39 35.6569 37.6569 37 36 37C34.3431 37 33 35.6569 33 34V31H30C28.3431 31 27 29.6569 27 28C27 26.3431 28.3431 25 30 25H33V22C33 20.3431 34.3431 19 36 19ZM36 20.5C35.2233 20.5 34.5846 21.0903 34.5078 21.8467L34.5 22V26.5H30C29.1716 26.5 28.5 27.1716 28.5 28C28.5 28.8284 29.1716 29.5 30 29.5H34.5V34C34.5 34.8284 35.1716 35.5 36 35.5C36.7767 35.5 37.4154 34.9097 37.4922 34.1533L37.5 34V29.5H42C42.8284 29.5 43.5 28.8284 43.5 28C43.5 27.2233 42.9097 26.5846 42.1533 26.5078L42 26.5H37.5V22C37.5 21.2233 36.9097 20.5846 36.1533 20.5078L36 20.5Z" fill="white"/>
</g>
</g>
<defs>
<linearGradient id="paint0_linear_9573_23" x1="6.5" y1="3.5" x2="64" y2="67" gradientUnits="userSpaceOnUse">
<stop stop-color="#BFE881"/>
<stop offset="1" stop-color="#83BF30"/>
</linearGradient>
<linearGradient id="paint1_linear_9573_23" x1="17.9964" y1="10" x2="56.4631" y2="37.6434" gradientUnits="userSpaceOnUse">
<stop stop-color="#BFE881"/>
<stop offset="1" stop-color="#83BF30"/>
</linearGradient>
</defs>
</svg>
