<svg width="72" height="72" viewBox="0 0 72 72" fill="none" xmlns="http://www.w3.org/2000/svg">
<g id="database">
<path id="background" d="M72 18C72 8.05888 63.9411 0 54 0H18C8.05888 0 0 8.05888 0 18V54C0 63.9411 8.05888 72 18 72H54C63.9411 72 72 63.9411 72 54V18Z" fill="black"/>
<path id="surface" opacity="0.25" d="M72 18C72 8.05888 63.9411 0 54 0H18C8.05888 0 0 8.05888 0 18V54C0 63.9411 8.05888 72 18 72H54C63.9411 72 72 63.9411 72 54V18Z" fill="url(#paint0_linear_7778_5537)"/>
<path id="gradient" d="M53 53C52.9997 55.2091 45.3887 57 36 57C26.6113 57 19.0003 55.2091 19 53V18C19 20.2091 26.6112 22 36 22C45.3888 22 53 20.2091 53 18V53Z" fill="url(#paint1_linear_7778_5537)"/>
<g id="symbol-stroke">
<path d="M47.7764 48.0527C48.1905 48.0528 48.5264 48.3886 48.5264 48.8027V51.3027C48.5264 51.7169 48.1905 52.0527 47.7764 52.0527C47.3622 52.0527 47.0264 51.7169 47.0264 51.3027V48.8027C47.0264 48.3885 47.3622 48.0527 47.7764 48.0527Z" fill="white"/>
<path d="M20.6787 42.0117C20.7683 42.0782 20.8926 42.1616 21.0654 42.2578C21.7516 42.6395 22.8437 43.032 24.3223 43.3799C27.2563 44.0702 31.386 44.5117 36 44.5117C40.614 44.5117 44.7437 44.0702 47.6777 43.3799C49.1563 43.032 50.2484 42.6395 50.9346 42.2578C51.107 42.1619 51.2308 42.0781 51.3203 42.0117H53C53 44.2209 45.3888 46.0117 36 46.0117C26.6112 46.0117 19 44.2209 19 42.0117H20.6787Z" fill="white"/>
<path d="M47.7764 36.0527C48.1905 36.0528 48.5264 36.3886 48.5264 36.8027V39.3027C48.5264 39.7169 48.1905 40.0527 47.7764 40.0527C47.3622 40.0527 47.0264 39.7169 47.0264 39.3027V36.8027C47.0264 36.3885 47.3622 36.0527 47.7764 36.0527Z" fill="white"/>
<path d="M20.6787 30.0059C20.7683 30.0724 20.8926 30.1558 21.0654 30.252C21.7516 30.6336 22.8437 31.0261 24.3223 31.374C27.2563 32.0644 31.386 32.5059 36 32.5059C40.614 32.5059 44.7437 32.0644 47.6777 31.374C49.1563 31.0261 50.2484 30.6336 50.9346 30.252C51.107 30.156 51.2308 30.0723 51.3203 30.0059H53C53 32.215 45.3888 34.0059 36 34.0059C26.6112 34.0059 19 32.215 19 30.0059H20.6787Z" fill="white"/>
<path d="M47.7764 24.0527C48.1905 24.0528 48.5264 24.3886 48.5264 24.8027V27.3027C48.5264 27.7169 48.1905 28.0527 47.7764 28.0527C47.3622 28.0527 47.0264 27.7169 47.0264 27.3027V24.8027C47.0264 24.3885 47.3622 24.0527 47.7764 24.0527Z" fill="white"/>
<path d="M36 14C45.3888 14 53 15.7909 53 18H51.3203C51.2308 17.9336 51.107 17.8498 50.9346 17.7539C50.2484 17.3722 49.1563 16.9798 47.6777 16.6318C44.7437 15.9415 40.614 15.5 36 15.5C31.386 15.5 27.2563 15.9415 24.3223 16.6318C22.8437 16.9798 21.7516 17.3722 21.0654 17.7539C20.8926 17.8501 20.7683 17.9335 20.6787 18H19C19 15.7909 26.6112 14 36 14Z" fill="white"/>
</g>
</g>
<defs>
<linearGradient id="paint0_linear_7778_5537" x1="6.5" y1="3.5" x2="64" y2="67" gradientUnits="userSpaceOnUse">
<stop stop-color="#66DBE1"/>
<stop offset="1" stop-color="#05ADB8"/>
</linearGradient>
<linearGradient id="paint1_linear_7778_5537" x1="20.8552" y1="26.6774" x2="57.2024" y2="26.6774" gradientUnits="userSpaceOnUse">
<stop stop-color="#05ADB8"/>
<stop offset="1" stop-color="#66DBE1"/>
</linearGradient>
</defs>
</svg>
