<svg width="72" height="72" viewBox="0 0 72 72" fill="none" xmlns="http://www.w3.org/2000/svg">
<g id="mariadb">
<path id="background" d="M72 18C72 8.05888 63.9411 0 54 0H18C8.05888 0 0 8.05888 0 18V54C0 63.9411 8.05888 72 18 72H54C63.9411 72 72 63.9411 72 54V18Z" fill="black"/>
<path id="surface" opacity="0.25" d="M72 18C72 8.05888 63.9411 0 54 0H18C8.05888 0 0 8.05888 0 18V54C0 63.9411 8.05888 72 18 72H54C63.9411 72 72 63.9411 72 54V18Z" fill="url(#paint0_linear_7778_5538)"/>
<path id="gradient" d="M53 48C52.9997 50.2091 45.3887 52 36 52C26.6113 52 19.0003 50.2091 19 48V13C19 15.2091 26.6112 17 36 17C45.3888 17 53 15.2091 53 13V48Z" fill="url(#paint1_linear_7778_5538)"/>
<g id="symbol-stroke">
<path d="M47.7764 43.0527C48.1905 43.0528 48.5264 43.3886 48.5264 43.8027V46.3027C48.5264 46.7169 48.1905 47.0527 47.7764 47.0527C47.3622 47.0527 47.0264 46.7169 47.0264 46.3027V43.8027C47.0264 43.3885 47.3622 43.0527 47.7764 43.0527Z" fill="white"/>
<path d="M20.6787 37.0117C20.7683 37.0782 20.8926 37.1616 21.0654 37.2578C21.7516 37.6395 22.8437 38.032 24.3223 38.3799C27.2563 39.0702 31.386 39.5117 36 39.5117C40.614 39.5117 44.7437 39.0702 47.6777 38.3799C49.1563 38.032 50.2484 37.6395 50.9346 37.2578C51.107 37.1619 51.2308 37.0781 51.3203 37.0117H53C53 39.2209 45.3888 41.0117 36 41.0117C26.6112 41.0117 19 39.2209 19 37.0117H20.6787Z" fill="white"/>
<path d="M47.7764 31.0527C48.1905 31.0528 48.5264 31.3886 48.5264 31.8027V34.3027C48.5264 34.7169 48.1905 35.0527 47.7764 35.0527C47.3622 35.0527 47.0264 34.7169 47.0264 34.3027V31.8027C47.0264 31.3885 47.3622 31.0527 47.7764 31.0527Z" fill="white"/>
<path d="M20.6787 25.0059C20.7683 25.0724 20.8926 25.1558 21.0654 25.252C21.7516 25.6336 22.8437 26.0261 24.3223 26.374C27.2563 27.0644 31.386 27.5059 36 27.5059C40.614 27.5059 44.7437 27.0644 47.6777 26.374C49.1563 26.0261 50.2484 25.6336 50.9346 25.252C51.107 25.156 51.2308 25.0723 51.3203 25.0059H53C53 27.215 45.3888 29.0059 36 29.0059C26.6112 29.0059 19 27.215 19 25.0059H20.6787Z" fill="white"/>
<path d="M47.7764 19.0527C48.1905 19.0528 48.5264 19.3886 48.5264 19.8027V22.3027C48.5264 22.7169 48.1905 23.0527 47.7764 23.0527C47.3622 23.0527 47.0264 22.7169 47.0264 22.3027V19.8027C47.0264 19.3885 47.3622 19.0527 47.7764 19.0527Z" fill="white"/>
<path d="M36 9C45.3888 9 53 10.7909 53 13H51.3203C51.2308 12.9336 51.107 12.8498 50.9346 12.7539C50.2484 12.3722 49.1563 11.9798 47.6777 11.6318C44.7437 10.9415 40.614 10.5 36 10.5C31.386 10.5 27.2563 10.9415 24.3223 11.6318C22.8437 11.9798 21.7516 12.3722 21.0654 12.7539C20.8926 12.8501 20.7683 12.9335 20.6787 13H19C19 10.7909 26.6112 9 36 9Z" fill="white"/>
<path d="M48.45 57.54C49.808 57.54 50.389 57.918 50.389 59.045C50.389 59.801 50.172 60.165 49.598 60.27V60.291C50.298 60.375 50.508 60.802 50.508 61.551C50.508 62.692 49.927 63.035 48.618 63.035C48.044 63.035 47.113 63.014 46.497 62.965C46.413 62.958 46.392 62.937 46.392 62.867V57.715C46.392 57.638 46.413 57.624 46.497 57.617C47.113 57.561 47.876 57.54 48.45 57.54ZM48.338 58.499H47.491V59.892H48.205C48.989 59.892 49.276 59.801 49.276 59.213C49.276 58.646 48.996 58.499 48.338 58.499ZM48.548 60.683H47.491V62.076H48.541C49.143 62.076 49.395 61.936 49.395 61.404C49.395 60.83 49.108 60.683 48.548 60.683Z" fill="white"/>
<path d="M43.3112 57.54C44.9562 57.54 45.5792 58.359 45.5792 60.291C45.5792 62.23 44.9562 63.035 43.3112 63.035C42.6252 63.035 41.8972 63.014 41.2812 62.965C41.1972 62.958 41.1762 62.944 41.1762 62.874V57.715C41.1762 57.638 41.1972 57.624 41.2812 57.617C41.8972 57.561 42.6252 57.54 43.3112 57.54ZM43.2552 58.499H42.2752V62.076H43.3112C44.1582 62.076 44.4662 61.544 44.4662 60.291C44.4662 59.045 44.1442 58.499 43.2552 58.499Z" fill="white"/>
<path d="M38.5902 59.045C39.9762 59.045 40.2842 59.493 40.2842 60.249V62.671C40.2842 62.783 40.2562 62.846 40.1302 62.888C39.6402 63 39.0242 63.035 38.5412 63.035C37.4912 63.035 36.9382 62.923 36.9242 61.824C36.9382 60.879 37.4282 60.676 38.3592 60.676H39.2482V60.424C39.2482 60.088 39.0382 59.941 38.5902 59.941H37.3232C37.2462 59.941 37.2252 59.92 37.2252 59.836V59.262C37.2252 59.178 37.2532 59.164 37.3232 59.15C37.7502 59.066 38.1562 59.045 38.5902 59.045ZM39.2482 61.348H38.4432C38.0792 61.348 37.9532 61.467 37.9532 61.768C37.9532 62.104 38.1072 62.195 38.5482 62.195C38.6882 62.195 39.0452 62.181 39.2482 62.125V61.348Z" fill="white"/>
<path d="M35.7931 57.428C36.1781 57.428 36.3951 57.631 36.3951 57.988C36.3951 58.345 36.1781 58.555 35.7931 58.555C35.4011 58.555 35.1771 58.345 35.1771 57.988C35.1771 57.631 35.4011 57.428 35.7931 57.428ZM35.3731 59.08H36.1991C36.2691 59.08 36.3041 59.115 36.3041 59.185V62.888C36.3041 62.965 36.2691 63 36.1991 63H35.3731C35.3031 63 35.2681 62.965 35.2681 62.888V59.185C35.2681 59.115 35.3031 59.08 35.3731 59.08Z" fill="white"/>
<path d="M33.7116 59.045C33.9146 59.045 34.3976 59.066 34.6426 59.122C34.7196 59.143 34.7546 59.171 34.7546 59.262V59.836C34.7546 59.906 34.7126 59.941 34.6356 59.941H33.9776C33.6136 59.941 33.4876 59.997 33.4876 60.298V62.888C33.4876 62.965 33.4526 63 33.3826 63H32.5496C32.4796 63 32.4446 62.965 32.4446 62.888V60.032C32.4446 59.15 33.0746 59.045 33.7116 59.045Z" fill="white"/>
<path d="M29.9496 59.045C31.3356 59.045 31.6436 59.493 31.6436 60.249V62.671C31.6436 62.783 31.6156 62.846 31.4896 62.888C30.9996 63 30.3836 63.035 29.9006 63.035C28.8506 63.035 28.2976 62.923 28.2836 61.824C28.2976 60.879 28.7876 60.676 29.7186 60.676H30.6076V60.424C30.6076 60.088 30.3976 59.941 29.9496 59.941H28.6826C28.6056 59.941 28.5846 59.92 28.5846 59.836V59.262C28.5846 59.178 28.6126 59.164 28.6826 59.15C29.1096 59.066 29.5156 59.045 29.9496 59.045ZM30.6076 61.348H29.8026C29.4386 61.348 29.3126 61.467 29.3126 61.768C29.3126 62.104 29.4666 62.195 29.9076 62.195C30.0476 62.195 30.4046 62.181 30.6076 62.125V61.348Z" fill="white"/>
<path d="M26.3416 57.575H27.1886C27.2586 57.575 27.2726 57.624 27.2796 57.687L27.7836 62.888C27.7906 62.965 27.7486 63 27.6786 63H26.7896C26.7196 63 26.6916 62.965 26.6846 62.888L26.3766 59.528L25.1166 62.727C25.0886 62.797 25.0396 62.832 24.9696 62.832H24.3046C24.2416 62.832 24.1926 62.797 24.1576 62.727L22.9046 59.528L22.5966 62.888C22.5896 62.965 22.5616 63 22.4916 63H21.6026C21.5326 63 21.4906 62.965 21.4976 62.888L22.0016 57.694C22.0086 57.624 22.0226 57.582 22.0926 57.582H22.9396C23.1636 57.582 23.2476 57.638 23.3386 57.855L24.6406 61.264L25.9426 57.855C26.0266 57.631 26.1176 57.575 26.3416 57.575Z" fill="white"/>
</g>
</g>
<defs>
<linearGradient id="paint0_linear_7778_5538" x1="6.5" y1="3.5" x2="64" y2="67" gradientUnits="userSpaceOnUse">
<stop stop-color="#66DBE1"/>
<stop offset="1" stop-color="#05ADB8"/>
</linearGradient>
<linearGradient id="paint1_linear_7778_5538" x1="20.8552" y1="21.6774" x2="57.2024" y2="21.6774" gradientUnits="userSpaceOnUse">
<stop stop-color="#05ADB8"/>
<stop offset="1" stop-color="#66DBE1"/>
</linearGradient>
</defs>
</svg>
