<svg width="72" height="72" viewBox="0 0 72 72" fill="none" xmlns="http://www.w3.org/2000/svg">
<g id="mongodb-flex">
<path id="background" d="M72 18C72 8.05888 63.9411 0 54 0H18C8.05888 0 0 8.05888 0 18V54C0 63.9411 8.05888 72 18 72H54C63.9411 72 72 63.9411 72 54V18Z" fill="black"/>
<path id="surface" opacity="0.25" d="M72 18C72 8.05888 63.9411 0 54 0H18C8.05888 0 0 8.05888 0 18V54C0 63.9411 8.05888 72 18 72H54C63.9411 72 72 63.9411 72 54V18Z" fill="url(#paint0_linear_7778_5539)"/>
<path id="gradient" d="M53 48C52.9997 50.2091 45.3887 52 36 52C26.6113 52 19.0003 50.2091 19 48V13C19 15.2091 26.6112 17 36 17C45.3888 17 53 15.2091 53 13V48Z" fill="url(#paint1_linear_7778_5539)"/>
<g id="symbol-stroke">
<path d="M59.5042 59.08H60.5052C60.5892 59.08 60.6102 59.136 60.5542 59.206L59.3502 60.949L60.6802 62.867C60.7292 62.937 60.7082 63 60.6242 63H59.6162C59.5672 63 59.5322 62.972 59.5042 62.93L58.7132 61.754L57.9152 62.93C57.8942 62.972 57.8592 63 57.8032 63H56.8022C56.7182 63 56.6972 62.937 56.7462 62.867L58.0762 60.949L56.8652 59.206C56.8092 59.136 56.8372 59.08 56.9212 59.08H57.9222C57.9782 59.08 58.0132 59.101 58.0482 59.143L58.7132 60.137L59.3782 59.143C59.4062 59.101 59.4482 59.08 59.5042 59.08Z" fill="white"/>
<path d="M54.7286 59.045C56.1076 59.045 56.4436 59.43 56.4506 60.991V61.208C56.4506 61.348 56.4086 61.397 56.2266 61.397H54.0286C54.0426 62.027 54.2106 62.139 54.8196 62.139H56.0586C56.1286 62.139 56.1636 62.174 56.1636 62.244V62.825C56.1636 62.902 56.1286 62.93 56.0656 62.937C55.6946 63.014 55.1906 63.035 54.7286 63.035C53.3146 63.035 52.9716 62.636 52.9716 61.04C52.9716 59.437 53.3146 59.045 54.7286 59.045ZM54.7286 59.941C54.2036 59.941 54.0286 60.102 54.0216 60.718H55.4076C55.4006 60.102 55.2396 59.941 54.7286 59.941Z" fill="white"/>
<path d="M51.3226 57.582H52.1486C52.2186 57.582 52.2536 57.617 52.2536 57.687V62.888C52.2536 62.965 52.2186 63 52.1486 63H51.3226C51.2526 63 51.2176 62.965 51.2176 62.888V57.687C51.2176 57.617 51.2526 57.582 51.3226 57.582Z" fill="white"/>
<path d="M47.1476 57.582H50.5216C50.5916 57.582 50.6266 57.617 50.6266 57.687V58.436C50.6266 58.506 50.5916 58.541 50.5216 58.541H48.1416V59.871H50.3046C50.3746 59.871 50.4166 59.906 50.4166 59.976V60.69C50.4166 60.76 50.3746 60.795 50.3046 60.795H48.1416V62.888C48.1416 62.965 48.1066 63 48.0366 63H47.1476C47.0776 63 47.0426 62.965 47.0426 62.888V57.687C47.0426 57.617 47.0776 57.582 47.1476 57.582Z" fill="white"/>
<path d="M42.7569 57.54C44.1149 57.54 44.6959 57.918 44.6959 59.045C44.6959 59.801 44.4789 60.165 43.9049 60.27V60.291C44.6049 60.375 44.8149 60.802 44.8149 61.551C44.8149 62.692 44.2339 63.035 42.9249 63.035C42.3509 63.035 41.4199 63.014 40.8039 62.965C40.7199 62.958 40.6989 62.937 40.6989 62.867V57.715C40.6989 57.638 40.7199 57.624 40.8039 57.617C41.4199 57.561 42.1829 57.54 42.7569 57.54ZM42.6449 58.499H41.7979V59.892H42.5119C43.2959 59.892 43.5829 59.801 43.5829 59.213C43.5829 58.646 43.3029 58.499 42.6449 58.499ZM42.8549 60.683H41.7979V62.076H42.8479C43.4499 62.076 43.7019 61.936 43.7019 61.404C43.7019 60.83 43.4149 60.683 42.8549 60.683Z" fill="white"/>
<path d="M37.6181 57.54C39.2631 57.54 39.8861 58.359 39.8861 60.291C39.8861 62.23 39.2631 63.035 37.6181 63.035C36.9321 63.035 36.2041 63.014 35.5881 62.965C35.5041 62.958 35.4831 62.944 35.4831 62.874V57.715C35.4831 57.638 35.5041 57.624 35.5881 57.617C36.2041 57.561 36.9321 57.54 37.6181 57.54ZM37.5621 58.499H36.5821V62.076H37.6181C38.4651 62.076 38.7731 61.544 38.7731 60.291C38.7731 59.045 38.4511 58.499 37.5621 58.499Z" fill="white"/>
<path d="M32.9021 59.045C34.3581 59.045 34.6871 59.437 34.6871 61.04C34.6871 62.636 34.3581 63.035 32.9021 63.035C31.4531 63.035 31.1171 62.636 31.1171 61.04C31.1171 59.437 31.4531 59.045 32.9021 59.045ZM32.9021 59.941C32.2651 59.941 32.1601 60.158 32.1601 61.04C32.1601 61.922 32.2651 62.139 32.9021 62.139C33.5461 62.139 33.6511 61.922 33.6511 61.04C33.6511 60.158 33.5461 59.941 32.9021 59.941Z" fill="white"/>
<path d="M28.7195 59.045C29.2655 59.045 29.8395 59.101 30.2595 59.178C30.3505 59.192 30.4065 59.255 30.4065 59.353V62.916C30.3995 63.966 30.1965 64.449 28.6915 64.449C28.2645 64.449 27.8025 64.421 27.3965 64.351C27.3335 64.344 27.2985 64.316 27.2985 64.239V63.707C27.2985 63.63 27.3265 63.602 27.3965 63.602H28.6005C29.2165 63.602 29.3635 63.462 29.3635 63V62.958C29.0625 63.014 28.8035 63.035 28.5095 63.035C27.2355 63.035 26.8925 62.594 26.8925 60.984C26.8925 59.458 27.2425 59.045 28.7195 59.045ZM29.3635 59.941H28.6705C27.9915 59.941 27.9285 60.207 27.9285 61.033C27.9285 61.936 28.0335 62.132 28.7405 62.132C28.9155 62.132 29.1675 62.125 29.3635 62.09V59.941Z" fill="white"/>
<path d="M24.5032 59.045C25.8472 59.045 26.1972 59.297 26.1972 60.725V62.888C26.1972 62.965 26.1552 63 26.0852 63H25.2592C25.1892 63 25.1542 62.965 25.1542 62.888V60.991C25.1542 59.99 25.0492 59.941 24.4052 59.941H23.7682V62.888C23.7682 62.965 23.7332 63 23.6632 63H22.8302C22.7602 63 22.7252 62.965 22.7252 62.888V59.269C22.7252 59.185 22.7602 59.178 22.8302 59.164C23.2992 59.059 23.9782 59.045 24.5032 59.045Z" fill="white"/>
<path d="M20.2283 59.045C21.6843 59.045 22.0133 59.437 22.0133 61.04C22.0133 62.636 21.6843 63.035 20.2283 63.035C18.7793 63.035 18.4433 62.636 18.4433 61.04C18.4433 59.437 18.7793 59.045 20.2283 59.045ZM20.2283 59.941C19.5913 59.941 19.4863 60.158 19.4863 61.04C19.4863 61.922 19.5913 62.139 20.2283 62.139C20.8723 62.139 20.9773 61.922 20.9773 61.04C20.9773 60.158 20.8723 59.941 20.2283 59.941Z" fill="white"/>
<path d="M16.4034 57.575H17.2504C17.3204 57.575 17.3344 57.624 17.3414 57.687L17.8454 62.888C17.8524 62.965 17.8104 63 17.7404 63H16.8514C16.7814 63 16.7534 62.965 16.7464 62.888L16.4384 59.528L15.1784 62.727C15.1504 62.797 15.1014 62.832 15.0314 62.832H14.3664C14.3034 62.832 14.2544 62.797 14.2194 62.727L12.9664 59.528L12.6584 62.888C12.6514 62.965 12.6234 63 12.5534 63H11.6644C11.5944 63 11.5524 62.965 11.5594 62.888L12.0634 57.694C12.0704 57.624 12.0844 57.582 12.1544 57.582H13.0014C13.2254 57.582 13.3094 57.638 13.4004 57.855L14.7024 61.264L16.0044 57.855C16.0884 57.631 16.1794 57.575 16.4034 57.575Z" fill="white"/>
<path d="M47.7776 43.0527C48.1917 43.0528 48.5276 43.3886 48.5276 43.8027V46.3027C48.5276 46.7169 48.1917 47.0527 47.7776 47.0527C47.3633 47.0527 47.0276 46.7169 47.0276 46.3027V43.8027C47.0276 43.3885 47.3633 43.0527 47.7776 43.0527Z" fill="white"/>
<path d="M20.6799 37.0117C20.7695 37.0782 20.8938 37.1616 21.0666 37.2578C21.7528 37.6395 22.8449 38.032 24.3235 38.3799C27.2575 39.0702 31.3872 39.5117 36.0012 39.5117C40.6152 39.5117 44.7449 39.0702 47.6789 38.3799C49.1575 38.032 50.2496 37.6395 50.9358 37.2578C51.1082 37.1619 51.232 37.0781 51.3215 37.0117H53.0012C53.0012 39.2209 45.39 41.0117 36.0012 41.0117C26.6124 41.0117 19.0012 39.2209 19.0012 37.0117H20.6799Z" fill="white"/>
<path d="M47.7776 31.0527C48.1917 31.0528 48.5276 31.3886 48.5276 31.8027V34.3027C48.5276 34.7169 48.1917 35.0527 47.7776 35.0527C47.3633 35.0527 47.0276 34.7169 47.0276 34.3027V31.8027C47.0276 31.3885 47.3633 31.0527 47.7776 31.0527Z" fill="white"/>
<path d="M20.6799 25.0059C20.7695 25.0724 20.8938 25.1558 21.0666 25.252C21.7528 25.6336 22.8449 26.0261 24.3235 26.374C27.2575 27.0644 31.3872 27.5059 36.0012 27.5059C40.6152 27.5059 44.7449 27.0644 47.6789 26.374C49.1575 26.0261 50.2496 25.6336 50.9358 25.252C51.1082 25.156 51.232 25.0723 51.3215 25.0059H53.0012C53.0012 27.215 45.39 29.0059 36.0012 29.0059C26.6124 29.0059 19.0012 27.215 19.0012 25.0059H20.6799Z" fill="white"/>
<path d="M47.7776 19.0527C48.1917 19.0528 48.5276 19.3886 48.5276 19.8027V22.3027C48.5276 22.7169 48.1917 23.0527 47.7776 23.0527C47.3633 23.0527 47.0276 22.7169 47.0276 22.3027V19.8027C47.0276 19.3885 47.3633 19.0527 47.7776 19.0527Z" fill="white"/>
<path d="M36.0012 9C45.39 9 53.0012 10.7909 53.0012 13H51.3215C51.232 12.9336 51.1082 12.8498 50.9358 12.7539C50.2496 12.3722 49.1575 11.9798 47.6789 11.6318C44.7449 10.9415 40.6152 10.5 36.0012 10.5C31.3872 10.5 27.2575 10.9415 24.3235 11.6318C22.8449 11.9798 21.7528 12.3722 21.0666 12.7539C20.8938 12.8501 20.7695 12.9335 20.6799 13H19.0012C19.0012 10.7909 26.6124 9 36.0012 9Z" fill="white"/>
</g>
</g>
<defs>
<linearGradient id="paint0_linear_7778_5539" x1="6.5" y1="3.5" x2="64" y2="67" gradientUnits="userSpaceOnUse">
<stop stop-color="#66DBE1"/>
<stop offset="1" stop-color="#05ADB8"/>
</linearGradient>
<linearGradient id="paint1_linear_7778_5539" x1="20.8552" y1="21.6774" x2="57.2024" y2="21.6774" gradientUnits="userSpaceOnUse">
<stop stop-color="#05ADB8"/>
<stop offset="1" stop-color="#66DBE1"/>
</linearGradient>
</defs>
</svg>
