<svg width="72" height="72" viewBox="0 0 72 72" fill="none" xmlns="http://www.w3.org/2000/svg">
<g id="opensearch">
<path id="background" d="M72 18C72 8.05888 63.9411 0 54 0H18C8.05888 0 0 8.05888 0 18V54C0 63.9411 8.05888 72 18 72H54C63.9411 72 72 63.9411 72 54V18Z" fill="black"/>
<path id="surface" opacity="0.25" d="M72 18C72 8.05888 63.9411 0 54 0H18C8.05888 0 0 8.05888 0 18V54C0 63.9411 8.05888 72 18 72H54C63.9411 72 72 63.9411 72 54V18Z" fill="url(#paint0_linear_7778_5561)"/>
<path id="gradient" d="M53 48C52.9997 50.2091 45.3887 52 36 52C26.6113 52 19.0003 50.2091 19 48V13C19 15.2091 26.6112 17 36 17C45.3888 17 53 15.2091 53 13V48Z" fill="url(#paint1_linear_7778_5561)"/>
<g id="symbol-stroke">
<path d="M53.1101 57.582H53.9361C54.0061 57.582 54.0411 57.624 54.0411 57.694V59.08C54.3001 59.052 54.5871 59.045 54.7831 59.045C56.1201 59.045 56.4701 59.297 56.4701 60.725V62.888C56.4701 62.965 56.4351 63 56.3651 63H55.5321C55.4621 63 55.4341 62.965 55.4341 62.888V60.991C55.4341 59.99 55.3221 59.941 54.6781 59.941H54.0481V62.888C54.0481 62.965 54.0131 63 53.9431 63H53.1031C53.0331 63 53.0051 62.965 53.0051 62.888V57.694C53.0051 57.624 53.0401 57.582 53.1101 57.582Z" fill="white"/>
<path d="M51.0889 59.045C51.3479 59.045 51.8519 59.059 52.2299 59.136C52.3069 59.15 52.3489 59.185 52.3489 59.276V59.829C52.3489 59.906 52.3069 59.941 52.2299 59.941H51.0889C50.4449 59.941 50.3469 60.158 50.3469 61.04C50.3469 61.915 50.4449 62.139 51.0889 62.139H52.2299C52.3069 62.139 52.3489 62.174 52.3489 62.244V62.804C52.3489 62.888 52.3069 62.923 52.2299 62.937C51.8519 63.021 51.3479 63.035 51.0889 63.035C49.5979 63.035 49.3109 62.636 49.3109 61.04C49.3109 59.437 49.5979 59.045 51.0889 59.045Z" fill="white"/>
<path d="M47.8733 59.045C48.0763 59.045 48.5593 59.066 48.8043 59.122C48.8813 59.143 48.9163 59.171 48.9163 59.262V59.836C48.9163 59.906 48.8743 59.941 48.7973 59.941H48.1393C47.7753 59.941 47.6493 59.997 47.6493 60.298V62.888C47.6493 62.965 47.6143 63 47.5443 63H46.7113C46.6413 63 46.6063 62.965 46.6063 62.888V60.032C46.6063 59.15 47.2363 59.045 47.8733 59.045Z" fill="white"/>
<path d="M44.1113 59.045C45.4973 59.045 45.8053 59.493 45.8053 60.249V62.671C45.8053 62.783 45.7773 62.846 45.6513 62.888C45.1613 63 44.5453 63.035 44.0623 63.035C43.0123 63.035 42.4593 62.923 42.4453 61.824C42.4593 60.879 42.9493 60.676 43.8803 60.676H44.7693V60.424C44.7693 60.088 44.5593 59.941 44.1113 59.941H42.8443C42.7673 59.941 42.7463 59.92 42.7463 59.836V59.262C42.7463 59.178 42.7743 59.164 42.8443 59.15C43.2713 59.066 43.6773 59.045 44.1113 59.045ZM44.7693 61.348H43.9643C43.6003 61.348 43.4743 61.467 43.4743 61.768C43.4743 62.104 43.6283 62.195 44.0693 62.195C44.2093 62.195 44.5663 62.181 44.7693 62.125V61.348Z" fill="white"/>
<path d="M40.2808 59.045C41.6598 59.045 41.9958 59.43 42.0028 60.991V61.208C42.0028 61.348 41.9608 61.397 41.7788 61.397H39.5808C39.5948 62.027 39.7628 62.139 40.3718 62.139H41.6108C41.6808 62.139 41.7158 62.174 41.7158 62.244V62.825C41.7158 62.902 41.6808 62.93 41.6178 62.937C41.2468 63.014 40.7428 63.035 40.2808 63.035C38.8668 63.035 38.5238 62.636 38.5238 61.04C38.5238 59.437 38.8668 59.045 40.2808 59.045ZM40.2808 59.941C39.7558 59.941 39.5808 60.102 39.5738 60.718H40.9598C40.9528 60.102 40.7918 59.941 40.2808 59.941Z" fill="white"/>
<path d="M36.1438 57.54C36.7248 57.54 37.0608 57.582 37.6068 57.68C37.6908 57.708 37.7328 57.743 37.7328 57.806V58.373C37.7328 58.464 37.6908 58.499 37.5998 58.499H35.9408C35.5138 58.499 35.2968 58.646 35.2968 58.954V59.052C35.2968 59.297 35.3948 59.458 35.7098 59.577L37.0188 60.088C37.6908 60.354 37.9918 60.683 37.9918 61.495V61.691C37.9918 62.727 37.1868 63.035 35.9758 63.035C35.4578 63.035 34.9048 62.993 34.2468 62.888C34.1558 62.867 34.1278 62.825 34.1278 62.734V62.202C34.1278 62.118 34.1698 62.076 34.2608 62.076H36.2488C36.6688 62.076 36.8858 61.95 36.8858 61.642V61.551C36.8858 61.25 36.7458 61.11 36.3818 60.97L35.0168 60.459C34.4358 60.242 34.1838 59.843 34.1838 59.031V58.877C34.1838 57.841 34.9048 57.54 36.1438 57.54Z" fill="white"/>
<path d="M31.7595 59.045C33.1035 59.045 33.4535 59.297 33.4535 60.725V62.888C33.4535 62.965 33.4115 63 33.3415 63H32.5155C32.4455 63 32.4105 62.965 32.4105 62.888V60.991C32.4105 59.99 32.3055 59.941 31.6615 59.941H31.0245V62.888C31.0245 62.965 30.9895 63 30.9195 63H30.0865C30.0165 63 29.9815 62.965 29.9815 62.888V59.269C29.9815 59.185 30.0165 59.178 30.0865 59.164C30.5555 59.059 31.2345 59.045 31.7595 59.045Z" fill="white"/>
<path d="M27.6069 59.045C28.9859 59.045 29.3219 59.43 29.3289 60.991V61.208C29.3289 61.348 29.2869 61.397 29.1049 61.397H26.9069C26.9209 62.027 27.0889 62.139 27.6979 62.139H28.9369C29.0069 62.139 29.0419 62.174 29.0419 62.244V62.825C29.0419 62.902 29.0069 62.93 28.9439 62.937C28.5729 63.014 28.0689 63.035 27.6069 63.035C26.1929 63.035 25.8499 62.636 25.8499 61.04C25.8499 59.437 26.1929 59.045 27.6069 59.045ZM27.6069 59.941C27.0819 59.941 26.9069 60.102 26.8999 60.718H28.2859C28.2789 60.102 28.1179 59.941 27.6069 59.941Z" fill="white"/>
<path d="M23.4312 59.045C24.9082 59.045 25.2582 59.465 25.2582 60.984C25.2582 62.594 24.9152 63.035 23.6412 63.035C23.3472 63.035 23.0812 63.028 22.7802 62.993V64.302C22.7802 64.372 22.7452 64.407 22.6752 64.407H21.8492C21.7792 64.407 21.7442 64.372 21.7442 64.302V59.353C21.7442 59.255 21.8002 59.199 21.8912 59.178C22.4652 59.087 22.9482 59.045 23.4312 59.045ZM23.4802 59.941H22.7802V62.09C22.9832 62.118 23.2282 62.132 23.4102 62.132C24.1172 62.132 24.2222 61.943 24.2222 61.04C24.2222 60.214 24.1662 59.941 23.4802 59.941Z" fill="white"/>
<path d="M18.7328 57.54C20.5178 57.54 21.0008 58.17 21.0008 60.298C21.0008 62.412 20.5178 63.035 18.7328 63.035C16.9478 63.035 16.4648 62.412 16.4648 60.298C16.4648 58.17 16.9478 57.54 18.7328 57.54ZM18.7328 58.499C17.7668 58.499 17.5778 58.926 17.5778 60.298C17.5778 61.656 17.7668 62.076 18.7328 62.076C19.6988 62.076 19.8878 61.656 19.8878 60.298C19.8878 58.926 19.6988 58.499 18.7328 58.499Z" fill="white"/>
<path d="M47.7765 43.0527C48.1906 43.0528 48.5265 43.3886 48.5265 43.8027V46.3027C48.5265 46.7169 48.1906 47.0527 47.7765 47.0527C47.3623 47.0527 47.0265 46.7169 47.0265 46.3027V43.8027C47.0265 43.3885 47.3623 43.0527 47.7765 43.0527Z" fill="white"/>
<path d="M20.6788 37.0117C20.7684 37.0782 20.8927 37.1616 21.0655 37.2578C21.7517 37.6395 22.8438 38.032 24.3224 38.3799C27.2564 39.0702 31.3861 39.5117 36.0001 39.5117C40.6141 39.5117 44.7438 39.0702 47.6778 38.3799C49.1564 38.032 50.2485 37.6395 50.9347 37.2578C51.1071 37.1619 51.2309 37.0781 51.3204 37.0117H53.0001C53.0001 39.2209 45.3889 41.0117 36.0001 41.0117C26.6113 41.0117 19.0001 39.2209 19.0001 37.0117H20.6788Z" fill="white"/>
<path d="M47.7765 31.0527C48.1906 31.0528 48.5265 31.3886 48.5265 31.8027V34.3027C48.5265 34.7169 48.1906 35.0527 47.7765 35.0527C47.3623 35.0527 47.0265 34.7169 47.0265 34.3027V31.8027C47.0265 31.3885 47.3623 31.0527 47.7765 31.0527Z" fill="white"/>
<path d="M20.6788 25.0059C20.7684 25.0724 20.8927 25.1558 21.0655 25.252C21.7517 25.6336 22.8438 26.0261 24.3224 26.374C27.2564 27.0644 31.3861 27.5059 36.0001 27.5059C40.6141 27.5059 44.7438 27.0644 47.6778 26.374C49.1564 26.0261 50.2485 25.6336 50.9347 25.252C51.1071 25.156 51.2309 25.0723 51.3204 25.0059H53.0001C53.0001 27.215 45.3889 29.0059 36.0001 29.0059C26.6113 29.0059 19.0001 27.215 19.0001 25.0059H20.6788Z" fill="white"/>
<path d="M47.7765 19.0527C48.1906 19.0528 48.5265 19.3886 48.5265 19.8027V22.3027C48.5265 22.7169 48.1906 23.0527 47.7765 23.0527C47.3623 23.0527 47.0265 22.7169 47.0265 22.3027V19.8027C47.0265 19.3885 47.3623 19.0527 47.7765 19.0527Z" fill="white"/>
<path d="M36.0001 9C45.3889 9 53.0001 10.7909 53.0001 13H51.3204C51.2309 12.9336 51.1071 12.8498 50.9347 12.7539C50.2485 12.3722 49.1564 11.9798 47.6778 11.6318C44.7438 10.9415 40.6141 10.5 36.0001 10.5C31.3861 10.5 27.2564 10.9415 24.3224 11.6318C22.8438 11.9798 21.7517 12.3722 21.0655 12.7539C20.8927 12.8501 20.7684 12.9335 20.6788 13H19.0001C19.0001 10.7909 26.6113 9 36.0001 9Z" fill="white"/>
</g>
</g>
<defs>
<linearGradient id="paint0_linear_7778_5561" x1="6.5" y1="3.5" x2="64" y2="67" gradientUnits="userSpaceOnUse">
<stop stop-color="#66DBE1"/>
<stop offset="1" stop-color="#05ADB8"/>
</linearGradient>
<linearGradient id="paint1_linear_7778_5561" x1="20.8552" y1="21.6774" x2="57.2024" y2="21.6774" gradientUnits="userSpaceOnUse">
<stop stop-color="#05ADB8"/>
<stop offset="1" stop-color="#66DBE1"/>
</linearGradient>
</defs>
</svg>
