<svg width="72" height="72" viewBox="0 0 72 72" fill="none" xmlns="http://www.w3.org/2000/svg">
<g id="postgresql-flex">
<path id="background" d="M72 18C72 8.05888 63.9411 0 54 0H18C8.05888 0 0 8.05888 0 18V54C0 63.9411 8.05888 72 18 72H54C63.9411 72 72 63.9411 72 54V18Z" fill="black"/>
<path id="surface" opacity="0.25" d="M72 18C72 8.05888 63.9411 0 54 0H18C8.05888 0 0 8.05888 0 18V54C0 63.9411 8.05888 72 18 72H54C63.9411 72 72 63.9411 72 54V18Z" fill="url(#paint0_linear_7778_5562)"/>
<path id="gradient" d="M53 48C52.9997 50.2091 45.3887 52 36 52C26.6113 52 19.0003 50.2091 19 48V13C19 15.2091 26.6112 17 36 17C45.3888 17 53 15.2091 53 13V48Z" fill="url(#paint1_linear_7778_5562)"/>
<g id="symbol-stroke">
<path d="M62.4928 59.08H63.4938C63.5778 59.08 63.5988 59.136 63.5428 59.206L62.3388 60.949L63.6688 62.867C63.7178 62.937 63.6968 63 63.6128 63H62.6048C62.5558 63 62.5208 62.972 62.4928 62.93L61.7018 61.754L60.9038 62.93C60.8828 62.972 60.8478 63 60.7918 63H59.7908C59.7068 63 59.6858 62.937 59.7348 62.867L61.0648 60.949L59.8538 59.206C59.7978 59.136 59.8258 59.08 59.9098 59.08H60.9108C60.9668 59.08 61.0018 59.101 61.0368 59.143L61.7018 60.137L62.3668 59.143C62.3948 59.101 62.4368 59.08 62.4928 59.08Z" fill="white"/>
<path d="M57.7172 59.045C59.0962 59.045 59.4322 59.43 59.4392 60.991V61.208C59.4392 61.348 59.3972 61.397 59.2152 61.397H57.0173C57.0312 62.027 57.1992 62.139 57.8083 62.139H59.0472C59.1172 62.139 59.1523 62.174 59.1523 62.244V62.825C59.1523 62.902 59.1173 62.93 59.0543 62.937C58.6833 63.014 58.1792 63.035 57.7172 63.035C56.3032 63.035 55.9603 62.636 55.9603 61.04C55.9603 59.437 56.3032 59.045 57.7172 59.045ZM57.7172 59.941C57.1922 59.941 57.0173 60.102 57.0103 60.718H58.3962C58.3892 60.102 58.2282 59.941 57.7172 59.941Z" fill="white"/>
<path d="M54.3112 57.582H55.1372C55.2072 57.582 55.2422 57.617 55.2422 57.687V62.888C55.2422 62.965 55.2072 63 55.1372 63H54.3112C54.2412 63 54.2062 62.965 54.2062 62.888V57.687C54.2062 57.617 54.2412 57.582 54.3112 57.582Z" fill="white"/>
<path d="M50.1363 57.582H53.5103C53.5803 57.582 53.6152 57.617 53.6152 57.687V58.436C53.6152 58.506 53.5803 58.541 53.5103 58.541H51.1302V59.871H53.2933C53.3633 59.871 53.4053 59.906 53.4053 59.976V60.69C53.4053 60.76 53.3633 60.795 53.2933 60.795H51.1302V62.888C51.1302 62.965 51.0953 63 51.0253 63H50.1363C50.0663 63 50.0312 62.965 50.0312 62.888V57.687C50.0312 57.617 50.0663 57.582 50.1363 57.582Z" fill="white"/>
<path d="M44.5855 57.582H45.4745C45.5445 57.582 45.5795 57.617 45.5795 57.687V62.041H47.8755C47.9455 62.041 47.9805 62.076 47.9805 62.146V62.895C47.9805 62.965 47.9455 63 47.8755 63H44.5855C44.5155 63 44.4805 62.965 44.4805 62.888V57.687C44.4805 57.617 44.5155 57.582 44.5855 57.582Z" fill="white"/>
<path d="M43.6532 60.298C43.6532 62.167 43.2752 62.867 41.9592 63.007L42.2112 63.868C42.2322 63.945 42.1762 63.98 42.1062 63.98H41.3152C41.2452 63.98 41.2102 63.945 41.1892 63.868L40.9372 63.021C39.5162 62.909 39.1172 62.223 39.1172 60.298C39.1172 58.17 39.6002 57.54 41.3852 57.54C43.1702 57.54 43.6532 58.17 43.6532 60.298ZM41.3852 62.076C42.3512 62.076 42.5402 61.656 42.5402 60.298C42.5402 58.926 42.3512 58.499 41.3852 58.499C40.4192 58.499 40.2302 58.926 40.2302 60.298C40.2302 61.656 40.4192 62.076 41.3852 62.076Z" fill="white"/>
<path d="M36.7092 57.54C37.2902 57.54 37.6262 57.582 38.1722 57.68C38.2562 57.708 38.2982 57.743 38.2982 57.806V58.373C38.2982 58.464 38.2562 58.499 38.1652 58.499H36.5062C36.0792 58.499 35.8622 58.646 35.8622 58.954V59.052C35.8622 59.297 35.9602 59.458 36.2752 59.577L37.5842 60.088C38.2562 60.354 38.5572 60.683 38.5572 61.495V61.691C38.5572 62.727 37.7522 63.035 36.5412 63.035C36.0232 63.035 35.4702 62.993 34.8122 62.888C34.7212 62.867 34.6932 62.825 34.6932 62.734V62.202C34.6932 62.118 34.7352 62.076 34.8262 62.076H36.8142C37.2342 62.076 37.4512 61.95 37.4512 61.642V61.551C37.4512 61.25 37.3112 61.11 36.9472 60.97L35.5822 60.459C35.0012 60.242 34.7492 59.843 34.7492 59.031V58.877C34.7492 57.841 35.4702 57.54 36.7092 57.54Z" fill="white"/>
<path d="M32.4516 59.045C33.8306 59.045 34.1666 59.43 34.1736 60.991V61.208C34.1736 61.348 34.1316 61.397 33.9496 61.397H31.7516C31.7656 62.027 31.9336 62.139 32.5426 62.139H33.7816C33.8516 62.139 33.8866 62.174 33.8866 62.244V62.825C33.8866 62.902 33.8516 62.93 33.7886 62.937C33.4176 63.014 32.9136 63.035 32.4516 63.035C31.0376 63.035 30.6946 62.636 30.6946 61.04C30.6946 59.437 31.0376 59.045 32.4516 59.045ZM32.4516 59.941C31.9266 59.941 31.7516 60.102 31.7446 60.718H33.1306C33.1236 60.102 32.9626 59.941 32.4516 59.941Z" fill="white"/>
<path d="M29.2571 59.045C29.4601 59.045 29.9431 59.066 30.1881 59.122C30.2651 59.143 30.3001 59.171 30.3001 59.262V59.836C30.3001 59.906 30.2581 59.941 30.1811 59.941H29.5231C29.1591 59.941 29.0331 59.997 29.0331 60.298V62.888C29.0331 62.965 28.9981 63 28.9281 63H28.0951C28.0251 63 27.9901 62.965 27.9901 62.888V60.032C27.9901 59.15 28.6201 59.045 29.2571 59.045Z" fill="white"/>
<path d="M25.4874 59.045C26.0334 59.045 26.6074 59.101 27.0274 59.178C27.1184 59.192 27.1744 59.255 27.1744 59.353V62.916C27.1674 63.966 26.9644 64.449 25.4594 64.449C25.0324 64.449 24.5704 64.421 24.1644 64.351C24.1014 64.344 24.0664 64.316 24.0664 64.239V63.707C24.0664 63.63 24.0944 63.602 24.1644 63.602H25.3684C25.9844 63.602 26.1314 63.462 26.1314 63V62.958C25.8304 63.014 25.5714 63.035 25.2774 63.035C24.0034 63.035 23.6604 62.594 23.6604 60.984C23.6604 59.458 24.0104 59.045 25.4874 59.045ZM26.1314 59.941H25.4384C24.7594 59.941 24.6964 60.207 24.6964 61.033C24.6964 61.936 24.8014 62.132 25.5084 62.132C25.6834 62.132 25.9354 62.125 26.1314 62.09V59.941Z" fill="white"/>
<path d="M21.4633 58.212L22.2893 57.995C22.3593 57.974 22.4013 58.023 22.4013 58.1V59.101H23.0453C23.1223 59.101 23.1643 59.136 23.1643 59.206V59.766C23.1643 59.836 23.1223 59.871 23.0453 59.871H22.4013V61.782C22.4013 62.083 22.5063 62.139 22.8143 62.139H23.1013C23.1853 62.139 23.2203 62.167 23.2203 62.244V62.839C23.2203 62.923 23.1853 62.958 23.1083 62.972C22.8633 63.021 22.6673 63.035 22.5133 63.035C21.9113 63.035 21.3653 63.014 21.3653 62.132V59.871H20.9523C20.8753 59.871 20.8403 59.836 20.8403 59.766V59.206C20.8403 59.136 20.8753 59.101 20.9523 59.101H21.3653V58.324C21.3653 58.254 21.3933 58.226 21.4633 58.212Z" fill="white"/>
<path d="M19.0772 59.045C19.3782 59.045 19.7772 59.066 20.1832 59.136C20.2673 59.157 20.2952 59.185 20.2952 59.248V59.78C20.2952 59.857 20.2673 59.892 20.1762 59.892H18.9162C18.6432 59.892 18.5032 59.969 18.5032 60.144V60.214C18.5032 60.347 18.5872 60.445 18.8392 60.536L19.7352 60.851C20.3302 61.061 20.4702 61.425 20.4702 61.901V62.013C20.4702 62.825 19.8682 63.035 18.9792 63.035C18.3702 63.035 17.8663 63 17.5302 62.965C17.4392 62.965 17.4112 62.937 17.4112 62.86V62.293C17.4112 62.216 17.4462 62.188 17.5302 62.188H18.9652C19.3362 62.188 19.4482 62.139 19.4482 61.95V61.887C19.4482 61.754 19.3712 61.663 19.0632 61.558L18.2022 61.25C17.6492 61.061 17.4882 60.634 17.4882 60.186V60.053C17.4882 59.304 18.0692 59.045 19.0772 59.045Z" fill="white"/>
<path d="M15.0753 59.045C16.5313 59.045 16.8603 59.437 16.8603 61.04C16.8603 62.636 16.5313 63.035 15.0753 63.035C13.6263 63.035 13.2903 62.636 13.2903 61.04C13.2903 59.437 13.6263 59.045 15.0753 59.045ZM15.0753 59.941C14.4383 59.941 14.3333 60.158 14.3333 61.04C14.3333 61.922 14.4383 62.139 15.0753 62.139C15.7193 62.139 15.8243 61.922 15.8243 61.04C15.8243 60.158 15.7193 59.941 15.0753 59.941Z" fill="white"/>
<path d="M10.7365 57.54C12.2695 57.54 12.7875 57.939 12.7875 59.339C12.7875 60.753 12.2695 61.04 10.7365 61.04H9.86853V62.888C9.86853 62.979 9.84753 63 9.76353 63H8.87453C8.79053 63 8.76953 62.979 8.76953 62.888V57.715C8.76953 57.638 8.79053 57.624 8.87453 57.617C9.49053 57.561 10.1625 57.54 10.7365 57.54ZM10.6245 58.499H9.86853V60.193H10.6245C11.4575 60.193 11.6745 60.081 11.6745 59.367C11.6745 58.667 11.4575 58.499 10.6245 58.499Z" fill="white"/>
<path d="M47.7755 43.0527C48.1896 43.0528 48.5255 43.3886 48.5255 43.8027V46.3027C48.5255 46.7169 48.1896 47.0527 47.7755 47.0527C47.3612 47.0527 47.0255 46.7169 47.0255 46.3027V43.8027C47.0255 43.3885 47.3612 43.0527 47.7755 43.0527Z" fill="white"/>
<path d="M20.6778 37.0117C20.7674 37.0782 20.8917 37.1616 21.0645 37.2578C21.7507 37.6395 22.8428 38.032 24.3214 38.3799C27.2554 39.0702 31.3851 39.5117 35.9991 39.5117C40.6131 39.5117 44.7428 39.0702 47.6768 38.3799C49.1554 38.032 50.2475 37.6395 50.9337 37.2578C51.1061 37.1619 51.2299 37.0781 51.3194 37.0117H52.9991C52.9991 39.2209 45.3879 41.0117 35.9991 41.0117C26.6103 41.0117 18.9991 39.2209 18.9991 37.0117H20.6778Z" fill="white"/>
<path d="M47.7755 31.0527C48.1896 31.0528 48.5255 31.3886 48.5255 31.8027V34.3027C48.5255 34.7169 48.1896 35.0527 47.7755 35.0527C47.3612 35.0527 47.0255 34.7169 47.0255 34.3027V31.8027C47.0255 31.3885 47.3612 31.0527 47.7755 31.0527Z" fill="white"/>
<path d="M20.6778 25.0059C20.7674 25.0724 20.8917 25.1558 21.0645 25.252C21.7507 25.6336 22.8428 26.0261 24.3214 26.374C27.2554 27.0644 31.3851 27.5059 35.9991 27.5059C40.6131 27.5059 44.7428 27.0644 47.6768 26.374C49.1554 26.0261 50.2475 25.6336 50.9337 25.252C51.1061 25.156 51.2299 25.0723 51.3194 25.0059H52.9991C52.9991 27.215 45.3879 29.0059 35.9991 29.0059C26.6103 29.0059 18.9991 27.215 18.9991 25.0059H20.6778Z" fill="white"/>
<path d="M47.7755 19.0527C48.1896 19.0528 48.5255 19.3886 48.5255 19.8027V22.3027C48.5255 22.7169 48.1896 23.0527 47.7755 23.0527C47.3612 23.0527 47.0255 22.7169 47.0255 22.3027V19.8027C47.0255 19.3885 47.3612 19.0527 47.7755 19.0527Z" fill="white"/>
<path d="M35.9991 9C45.3879 9 52.9991 10.7909 52.9991 13H51.3194C51.2299 12.9336 51.1061 12.8498 50.9337 12.7539C50.2475 12.3722 49.1554 11.9798 47.6768 11.6318C44.7428 10.9415 40.6131 10.5 35.9991 10.5C31.3851 10.5 27.2554 10.9415 24.3214 11.6318C22.8428 11.9798 21.7507 12.3722 21.0645 12.7539C20.8917 12.8501 20.7674 12.9335 20.6778 13H18.9991C18.9991 10.7909 26.6103 9 35.9991 9Z" fill="white"/>
</g>
</g>
<defs>
<linearGradient id="paint0_linear_7778_5562" x1="6.5" y1="3.5" x2="64" y2="67" gradientUnits="userSpaceOnUse">
<stop stop-color="#66DBE1"/>
<stop offset="1" stop-color="#05ADB8"/>
</linearGradient>
<linearGradient id="paint1_linear_7778_5562" x1="20.8552" y1="21.6774" x2="57.2024" y2="21.6774" gradientUnits="userSpaceOnUse">
<stop stop-color="#05ADB8"/>
<stop offset="1" stop-color="#66DBE1"/>
</linearGradient>
</defs>
</svg>
