<svg width="72" height="72" viewBox="0 0 72 72" fill="none" xmlns="http://www.w3.org/2000/svg">
<g id="redis">
<path id="background" d="M72 18C72 8.05888 63.9411 0 54 0H18C8.05888 0 0 8.05888 0 18V54C0 63.9411 8.05888 72 18 72H54C63.9411 72 72 63.9411 72 54V18Z" fill="black"/>
<path id="surface" opacity="0.25" d="M72 18C72 8.05888 63.9411 0 54 0H18C8.05888 0 0 8.05888 0 18V54C0 63.9411 8.05888 72 18 72H54C63.9411 72 72 63.9411 72 54V18Z" fill="url(#paint0_linear_7778_5563)"/>
<path id="gradient" d="M53 48C52.9997 50.2091 45.3887 52 36 52C26.6113 52 19.0003 50.2091 19 48V13C19 15.2091 26.6112 17 36 17C45.3888 17 53 15.2091 53 13V48Z" fill="url(#paint1_linear_7778_5563)"/>
<g id="symbol-stroke">
<path d="M44.1226 59.045C44.4236 59.045 44.8226 59.066 45.2286 59.136C45.3126 59.157 45.3406 59.185 45.3406 59.248V59.78C45.3406 59.857 45.3126 59.892 45.2216 59.892H43.9616C43.6886 59.892 43.5486 59.969 43.5486 60.144V60.214C43.5486 60.347 43.6326 60.445 43.8846 60.536L44.7806 60.851C45.3756 61.061 45.5156 61.425 45.5156 61.901V62.013C45.5156 62.825 44.9136 63.035 44.0246 63.035C43.4156 63.035 42.9116 63 42.5756 62.965C42.4846 62.965 42.4566 62.937 42.4566 62.86V62.293C42.4566 62.216 42.4916 62.188 42.5756 62.188H44.0106C44.3816 62.188 44.4936 62.139 44.4936 61.95V61.887C44.4936 61.754 44.4166 61.663 44.1086 61.558L43.2476 61.25C42.6946 61.061 42.5336 60.634 42.5336 60.186V60.053C42.5336 59.304 43.1146 59.045 44.1226 59.045Z" fill="white"/>
<path d="M41.2765 57.428C41.6615 57.428 41.8785 57.631 41.8785 57.988C41.8785 58.345 41.6615 58.555 41.2765 58.555C40.8845 58.555 40.6605 58.345 40.6605 57.988C40.6605 57.631 40.8845 57.428 41.2765 57.428ZM40.8565 59.08H41.6825C41.7525 59.08 41.7875 59.115 41.7875 59.185V62.888C41.7875 62.965 41.7525 63 41.6825 63H40.8565C40.7865 63 40.7515 62.965 40.7515 62.888V59.185C40.7515 59.115 40.7865 59.08 40.8565 59.08Z" fill="white"/>
<path d="M38.9906 57.582H39.8166C39.8936 57.582 39.9216 57.617 39.9216 57.694V62.727C39.9216 62.832 39.8656 62.888 39.7746 62.902C39.2006 62.993 38.7176 63.035 38.2346 63.035C36.7576 63.035 36.4216 62.622 36.4216 61.047C36.4216 59.493 36.7506 59.045 38.0246 59.045C38.3466 59.045 38.6266 59.059 38.8856 59.087V57.694C38.8856 57.617 38.9136 57.582 38.9906 57.582ZM38.8856 59.948H38.2556C37.5486 59.948 37.4576 60.137 37.4576 61.04C37.4576 61.866 37.5136 62.139 38.2136 62.139C38.3816 62.139 38.6756 62.125 38.8856 62.09V59.948Z" fill="white"/>
<path d="M34.1591 59.045C35.5381 59.045 35.8741 59.43 35.8811 60.991V61.208C35.8811 61.348 35.8391 61.397 35.6571 61.397H33.4591C33.4731 62.027 33.6411 62.139 34.2501 62.139H35.4891C35.5591 62.139 35.5941 62.174 35.5941 62.244V62.825C35.5941 62.902 35.5591 62.93 35.4961 62.937C35.1251 63.014 34.6211 63.035 34.1591 63.035C32.7451 63.035 32.4021 62.636 32.4021 61.04C32.4021 59.437 32.7451 59.045 34.1591 59.045ZM34.1591 59.941C33.6341 59.941 33.4591 60.102 33.4521 60.718H34.8381C34.8311 60.102 34.6701 59.941 34.1591 59.941Z" fill="white"/>
<path d="M29.7184 57.54C31.2514 57.54 31.7694 57.939 31.7694 59.339C31.7694 60.396 31.4894 60.816 30.6984 60.97L31.8884 62.86C31.9444 62.937 31.9094 63 31.8044 63H30.9224C30.7614 63 30.7124 62.951 30.6424 62.846L29.4944 61.04H28.8504V62.888C28.8504 62.979 28.8294 63 28.7454 63H27.8564C27.7724 63 27.7514 62.979 27.7514 62.888V57.715C27.7514 57.638 27.7724 57.624 27.8564 57.617C28.4724 57.561 29.1444 57.54 29.7184 57.54ZM29.6064 58.499H28.8504V60.193H29.6064C30.4394 60.193 30.6564 60.081 30.6564 59.367C30.6564 58.667 30.4394 58.499 29.6064 58.499Z" fill="white"/>
<path d="M47.7764 43.0527C48.1905 43.0528 48.5264 43.3886 48.5264 43.8027V46.3027C48.5264 46.7169 48.1905 47.0527 47.7764 47.0527C47.3622 47.0527 47.0264 46.7169 47.0264 46.3027V43.8027C47.0264 43.3885 47.3622 43.0527 47.7764 43.0527Z" fill="white"/>
<path d="M20.6787 37.0117C20.7683 37.0782 20.8926 37.1616 21.0654 37.2578C21.7516 37.6395 22.8437 38.032 24.3223 38.3799C27.2563 39.0702 31.386 39.5117 36 39.5117C40.614 39.5117 44.7437 39.0702 47.6777 38.3799C49.1563 38.032 50.2484 37.6395 50.9346 37.2578C51.107 37.1619 51.2308 37.0781 51.3203 37.0117H53C53 39.2209 45.3888 41.0117 36 41.0117C26.6112 41.0117 19 39.2209 19 37.0117H20.6787Z" fill="white"/>
<path d="M47.7764 31.0527C48.1905 31.0528 48.5264 31.3886 48.5264 31.8027V34.3027C48.5264 34.7169 48.1905 35.0527 47.7764 35.0527C47.3622 35.0527 47.0264 34.7169 47.0264 34.3027V31.8027C47.0264 31.3885 47.3622 31.0527 47.7764 31.0527Z" fill="white"/>
<path d="M20.6787 25.0059C20.7683 25.0724 20.8926 25.1558 21.0654 25.252C21.7516 25.6336 22.8437 26.0261 24.3223 26.374C27.2563 27.0644 31.386 27.5059 36 27.5059C40.614 27.5059 44.7437 27.0644 47.6777 26.374C49.1563 26.0261 50.2484 25.6336 50.9346 25.252C51.107 25.156 51.2308 25.0723 51.3203 25.0059H53C53 27.215 45.3888 29.0059 36 29.0059C26.6112 29.0059 19 27.215 19 25.0059H20.6787Z" fill="white"/>
<path d="M47.7764 19.0527C48.1905 19.0528 48.5264 19.3886 48.5264 19.8027V22.3027C48.5264 22.7169 48.1905 23.0527 47.7764 23.0527C47.3622 23.0527 47.0264 22.7169 47.0264 22.3027V19.8027C47.0264 19.3885 47.3622 19.0527 47.7764 19.0527Z" fill="white"/>
<path d="M36 9C45.3888 9 53 10.7909 53 13H51.3203C51.2308 12.9336 51.107 12.8498 50.9346 12.7539C50.2484 12.3722 49.1563 11.9798 47.6777 11.6318C44.7437 10.9415 40.614 10.5 36 10.5C31.386 10.5 27.2563 10.9415 24.3223 11.6318C22.8437 11.9798 21.7516 12.3722 21.0654 12.7539C20.8926 12.8501 20.7683 12.9335 20.6787 13H19C19 10.7909 26.6112 9 36 9Z" fill="white"/>
</g>
</g>
<defs>
<linearGradient id="paint0_linear_7778_5563" x1="6.5" y1="3.5" x2="64" y2="67" gradientUnits="userSpaceOnUse">
<stop stop-color="#66DBE1"/>
<stop offset="1" stop-color="#05ADB8"/>
</linearGradient>
<linearGradient id="paint1_linear_7778_5563" x1="20.8552" y1="21.6774" x2="57.2024" y2="21.6774" gradientUnits="userSpaceOnUse">
<stop stop-color="#05ADB8"/>
<stop offset="1" stop-color="#66DBE1"/>
</linearGradient>
</defs>
</svg>
