<svg width="72" height="72" viewBox="0 0 72 72" fill="none" xmlns="http://www.w3.org/2000/svg">
<g id="sqlserver-flex">
<path id="background" d="M72 18C72 8.05888 63.9411 0 54 0H18C8.05888 0 0 8.05888 0 18V54C0 63.9411 8.05888 72 18 72H54C63.9411 72 72 63.9411 72 54V18Z" fill="black"/>
<path id="surface" opacity="0.25" d="M72 18C72 8.05888 63.9411 0 54 0H18C8.05888 0 0 8.05888 0 18V54C0 63.9411 8.05888 72 18 72H54C63.9411 72 72 63.9411 72 54V18Z" fill="url(#paint0_linear_7778_5560)"/>
<path id="gradient" d="M53 48C52.9997 50.2091 45.3887 52 36 52C26.6113 52 19.0003 50.2091 19 48V13C19 15.2091 26.6112 17 36 17C45.3888 17 53 15.2091 53 13V48Z" fill="url(#paint1_linear_7778_5560)"/>
<g id="symbol-stroke">
<path d="M60.4959 59.08H61.4969C61.5809 59.08 61.6019 59.136 61.5459 59.206L60.3419 60.949L61.6719 62.867C61.7209 62.937 61.6999 63 61.6159 63H60.6079C60.5589 63 60.5239 62.972 60.4959 62.93L59.7049 61.754L58.9069 62.93C58.8859 62.972 58.8509 63 58.7949 63H57.7939C57.7099 63 57.6889 62.937 57.7379 62.867L59.0679 60.949L57.8569 59.206C57.8009 59.136 57.8289 59.08 57.9129 59.08H58.9139C58.9699 59.08 59.0049 59.101 59.0399 59.143L59.7049 60.137L60.3699 59.143C60.3979 59.101 60.4399 59.08 60.4959 59.08Z" fill="white"/>
<path d="M55.7204 59.045C57.0994 59.045 57.4354 59.43 57.4424 60.991V61.208C57.4424 61.348 57.4004 61.397 57.2184 61.397H55.0204C55.0344 62.027 55.2024 62.139 55.8114 62.139H57.0504C57.1204 62.139 57.1554 62.174 57.1554 62.244V62.825C57.1554 62.902 57.1204 62.93 57.0574 62.937C56.6864 63.014 56.1824 63.035 55.7204 63.035C54.3064 63.035 53.9634 62.636 53.9634 61.04C53.9634 59.437 54.3064 59.045 55.7204 59.045ZM55.7204 59.941C55.1954 59.941 55.0204 60.102 55.0134 60.718H56.3994C56.3924 60.102 56.2314 59.941 55.7204 59.941Z" fill="white"/>
<path d="M52.3143 57.582H53.1403C53.2103 57.582 53.2453 57.617 53.2453 57.687V62.888C53.2453 62.965 53.2103 63 53.1403 63H52.3143C52.2443 63 52.2093 62.965 52.2093 62.888V57.687C52.2093 57.617 52.2443 57.582 52.3143 57.582Z" fill="white"/>
<path d="M48.1394 57.582H51.5134C51.5834 57.582 51.6184 57.617 51.6184 57.687V58.436C51.6184 58.506 51.5834 58.541 51.5134 58.541H49.1334V59.871H51.2964C51.3664 59.871 51.4084 59.906 51.4084 59.976V60.69C51.4084 60.76 51.3664 60.795 51.2964 60.795H49.1334V62.888C49.1334 62.965 49.0984 63 49.0284 63H48.1394C48.0694 63 48.0344 62.965 48.0344 62.888V57.687C48.0344 57.617 48.0694 57.582 48.1394 57.582Z" fill="white"/>
<path d="M44.9584 59.045C45.1614 59.045 45.6444 59.066 45.8894 59.122C45.9664 59.143 46.0014 59.171 46.0014 59.262V59.836C46.0014 59.906 45.9594 59.941 45.8824 59.941H45.2244C44.8604 59.941 44.7344 59.997 44.7344 60.298V62.888C44.7344 62.965 44.6994 63 44.6294 63H43.7964C43.7264 63 43.6914 62.965 43.6914 62.888V60.032C43.6914 59.15 44.3214 59.045 44.9584 59.045Z" fill="white"/>
<path d="M41.3239 59.045C42.7029 59.045 43.0389 59.43 43.0459 60.991V61.208C43.0459 61.348 43.0039 61.397 42.8219 61.397H40.6239C40.6379 62.027 40.8059 62.139 41.4149 62.139H42.6539C42.7239 62.139 42.7589 62.174 42.7589 62.244V62.825C42.7589 62.902 42.7239 62.93 42.6609 62.937C42.2899 63.014 41.7859 63.035 41.3239 63.035C39.9099 63.035 39.5669 62.636 39.5669 61.04C39.5669 59.437 39.9099 59.045 41.3239 59.045ZM41.3239 59.941C40.7989 59.941 40.6239 60.102 40.6169 60.718H42.0029C41.9959 60.102 41.8349 59.941 41.3239 59.941Z" fill="white"/>
<path d="M38.1535 59.08H39.0425C39.1125 59.08 39.1475 59.108 39.1335 59.192L38.3425 62.202C38.1395 62.951 38.0485 63.035 37.2015 63.035C36.3895 63.035 36.2985 62.958 36.0955 62.202L35.2765 59.192C35.2625 59.108 35.2905 59.08 35.3675 59.08H36.2565C36.3195 59.08 36.3265 59.108 36.3475 59.192L37.0475 61.985C37.0895 62.153 37.1105 62.181 37.2015 62.181C37.3135 62.181 37.3345 62.153 37.3765 61.985L38.0625 59.192C38.0835 59.108 38.0905 59.08 38.1535 59.08Z" fill="white"/>
<path d="M34.0209 59.045C34.2239 59.045 34.7069 59.066 34.9519 59.122C35.0289 59.143 35.0639 59.171 35.0639 59.262V59.836C35.0639 59.906 35.0219 59.941 34.9449 59.941H34.2869C33.9229 59.941 33.7969 59.997 33.7969 60.298V62.888C33.7969 62.965 33.7619 63 33.6919 63H32.8589C32.7889 63 32.7539 62.965 32.7539 62.888V60.032C32.7539 59.15 33.3839 59.045 34.0209 59.045Z" fill="white"/>
<path d="M30.3864 59.045C31.7654 59.045 32.1014 59.43 32.1084 60.991V61.208C32.1084 61.348 32.0664 61.397 31.8844 61.397H29.6864C29.7004 62.027 29.8684 62.139 30.4774 62.139H31.7164C31.7864 62.139 31.8214 62.174 31.8214 62.244V62.825C31.8214 62.902 31.7864 62.93 31.7234 62.937C31.3524 63.014 30.8484 63.035 30.3864 63.035C28.9724 63.035 28.6294 62.636 28.6294 61.04C28.6294 59.437 28.9724 59.045 30.3864 59.045ZM30.3864 59.941C29.8614 59.941 29.6864 60.102 29.6794 60.718H31.0654C31.0584 60.102 30.8974 59.941 30.3864 59.941Z" fill="white"/>
<path d="M26.2494 57.54C26.8304 57.54 27.1664 57.582 27.7124 57.68C27.7964 57.708 27.8384 57.743 27.8384 57.806V58.373C27.8384 58.464 27.7964 58.499 27.7054 58.499H26.0464C25.6194 58.499 25.4024 58.646 25.4024 58.954V59.052C25.4024 59.297 25.5004 59.458 25.8154 59.577L27.1244 60.088C27.7964 60.354 28.0974 60.683 28.0974 61.495V61.691C28.0974 62.727 27.2924 63.035 26.0814 63.035C25.5634 63.035 25.0104 62.993 24.3524 62.888C24.2614 62.867 24.2334 62.825 24.2334 62.734V62.202C24.2334 62.118 24.2754 62.076 24.3664 62.076H26.3544C26.7744 62.076 26.9914 61.95 26.9914 61.642V61.551C26.9914 61.25 26.8514 61.11 26.4874 60.97L25.1224 60.459C24.5414 60.242 24.2894 59.843 24.2894 59.031V58.877C24.2894 57.841 25.0104 57.54 26.2494 57.54Z" fill="white"/>
<path d="M20.447 57.582H21.336C21.406 57.582 21.441 57.617 21.441 57.687V62.041H23.737C23.807 62.041 23.842 62.076 23.842 62.146V62.895C23.842 62.965 23.807 63 23.737 63H20.447C20.377 63 20.342 62.965 20.342 62.888V57.687C20.342 57.617 20.377 57.582 20.447 57.582Z" fill="white"/>
<path d="M19.5147 60.298C19.5147 62.167 19.1367 62.867 17.8207 63.007L18.0727 63.868C18.0937 63.945 18.0377 63.98 17.9677 63.98H17.1767C17.1067 63.98 17.0717 63.945 17.0507 63.868L16.7987 63.021C15.3777 62.909 14.9787 62.223 14.9787 60.298C14.9787 58.17 15.4617 57.54 17.2467 57.54C19.0317 57.54 19.5147 58.17 19.5147 60.298ZM17.2467 62.076C18.2127 62.076 18.4017 61.656 18.4017 60.298C18.4017 58.926 18.2127 58.499 17.2467 58.499C16.2807 58.499 16.0917 58.926 16.0917 60.298C16.0917 61.656 16.2807 62.076 17.2467 62.076Z" fill="white"/>
<path d="M12.5707 57.54C13.1517 57.54 13.4877 57.582 14.0337 57.68C14.1177 57.708 14.1597 57.743 14.1597 57.806V58.373C14.1597 58.464 14.1177 58.499 14.0267 58.499H12.3677C11.9407 58.499 11.7237 58.646 11.7237 58.954V59.052C11.7237 59.297 11.8217 59.458 12.1367 59.577L13.4457 60.088C14.1177 60.354 14.4187 60.683 14.4187 61.495V61.691C14.4187 62.727 13.6137 63.035 12.4027 63.035C11.8847 63.035 11.3317 62.993 10.6737 62.888C10.5827 62.867 10.5547 62.825 10.5547 62.734V62.202C10.5547 62.118 10.5967 62.076 10.6877 62.076H12.6757C13.0957 62.076 13.3127 61.95 13.3127 61.642V61.551C13.3127 61.25 13.1727 61.11 12.8087 60.97L11.4437 60.459C10.8627 60.242 10.6107 59.843 10.6107 59.031V58.877C10.6107 57.841 11.3317 57.54 12.5707 57.54Z" fill="white"/>
<path d="M47.7781 43.0527C48.1922 43.0528 48.5281 43.3886 48.5281 43.8027V46.3027C48.5281 46.7169 48.1922 47.0527 47.7781 47.0527C47.3639 47.0527 47.0281 46.7169 47.0281 46.3027V43.8027C47.0281 43.3885 47.3639 43.0527 47.7781 43.0527Z" fill="white"/>
<path d="M20.6804 37.0117C20.77 37.0782 20.8943 37.1616 21.0672 37.2578C21.7533 37.6395 22.8455 38.032 24.324 38.3799C27.258 39.0702 31.3878 39.5117 36.0017 39.5117C40.6157 39.5117 44.7455 39.0702 47.6795 38.3799C49.158 38.032 50.2501 37.6395 50.9363 37.2578C51.1088 37.1619 51.2325 37.0781 51.3221 37.0117H53.0017C53.0017 39.2209 45.3906 41.0117 36.0017 41.0117C26.6129 41.0117 19.0017 39.2209 19.0017 37.0117H20.6804Z" fill="white"/>
<path d="M47.7781 31.0527C48.1922 31.0528 48.5281 31.3886 48.5281 31.8027V34.3027C48.5281 34.7169 48.1922 35.0527 47.7781 35.0527C47.3639 35.0527 47.0281 34.7169 47.0281 34.3027V31.8027C47.0281 31.3885 47.3639 31.0527 47.7781 31.0527Z" fill="white"/>
<path d="M20.6804 25.0059C20.77 25.0724 20.8943 25.1558 21.0672 25.252C21.7533 25.6336 22.8455 26.0261 24.324 26.374C27.258 27.0644 31.3878 27.5059 36.0017 27.5059C40.6157 27.5059 44.7455 27.0644 47.6795 26.374C49.158 26.0261 50.2501 25.6336 50.9363 25.252C51.1088 25.156 51.2325 25.0723 51.3221 25.0059H53.0017C53.0017 27.215 45.3906 29.0059 36.0017 29.0059C26.6129 29.0059 19.0017 27.215 19.0017 25.0059H20.6804Z" fill="white"/>
<path d="M47.7781 19.0527C48.1922 19.0528 48.5281 19.3886 48.5281 19.8027V22.3027C48.5281 22.7169 48.1922 23.0527 47.7781 23.0527C47.3639 23.0527 47.0281 22.7169 47.0281 22.3027V19.8027C47.0281 19.3885 47.3639 19.0527 47.7781 19.0527Z" fill="white"/>
<path d="M36.0017 9C45.3906 9 53.0017 10.7909 53.0017 13H51.3221C51.2325 12.9336 51.1088 12.8498 50.9363 12.7539C50.2501 12.3722 49.158 11.9798 47.6795 11.6318C44.7455 10.9415 40.6157 10.5 36.0017 10.5C31.3878 10.5 27.258 10.9415 24.324 11.6318C22.8455 11.9798 21.7533 12.3722 21.0672 12.7539C20.8943 12.8501 20.77 12.9335 20.6804 13H19.0017C19.0017 10.7909 26.6129 9 36.0017 9Z" fill="white"/>
</g>
</g>
<defs>
<linearGradient id="paint0_linear_7778_5560" x1="6.5" y1="3.5" x2="64" y2="67" gradientUnits="userSpaceOnUse">
<stop stop-color="#66DBE1"/>
<stop offset="1" stop-color="#05ADB8"/>
</linearGradient>
<linearGradient id="paint1_linear_7778_5560" x1="20.8552" y1="21.6774" x2="57.2024" y2="21.6774" gradientUnits="userSpaceOnUse">
<stop stop-color="#05ADB8"/>
<stop offset="1" stop-color="#66DBE1"/>
</linearGradient>
</defs>
</svg>
